<svg width="24" height="25" viewBox="0 0 24 25" fill="none" xmlns="http://www.w3.org/2000/svg">
<g clip-path="url(#clip0_1795_13053)">
<path d="M12.0039 0.283997C11.7471 0.283997 11.4921 0.292059 11.2393 0.30795L1.24858 6.95604C0.451844 8.56133 0.00390625 10.3704 0.00390625 12.284C0.00390625 15.7938 1.5107 18.9517 3.91277 21.146C3.91277 21.146 7.82355 23.836 12.0039 23.836C17.5973 23.836 23.4157 18.9114 23.4157 12.284C23.4157 4.42592 15.9392 0.944137 15.9392 0.944137C14.7064 0.516403 13.3823 0.283997 12.0039 0.283997Z" fill="#008CDF"/>
<path d="M23.8877 10.5983L20.9785 10.2662C20.9785 16.8937 15.606 22.2662 8.97853 22.2662C7.16855 22.2662 5.45302 21.8636 3.91406 21.146C4.84575 21.9972 5.91216 22.7033 7.07756 23.2289L7.78416 23.1895L8.68017 23.8172C9.73603 24.1211 10.8516 24.284 12.0053 24.284C18.6327 24.284 24.0053 18.9114 24.0053 12.284C24.0053 11.7118 23.9652 11.149 23.8877 10.5983Z" fill="#0069D0"/>
<path d="M17.0803 1.40756C16.7096 1.23431 16.3286 1.07943 15.9384 0.944153L14.8771 1.87753C14.5864 2.12606 14.5169 2.55478 14.7307 2.88684C14.9363 3.20606 15.3518 3.31743 15.7015 3.16973L15.9163 3.07898C16.1801 2.96761 16.4891 3.00792 16.7029 3.19837C17.0808 3.53503 17.015 4.13001 16.5909 4.38093L14.0986 5.85567C13.6119 6.14371 13.3027 6.66736 13.3128 7.2329C13.3233 7.82034 13.6524 8.29879 14.3139 8.35973C15.6828 8.48582 15.4857 7.03551 16.2897 7.03551H19.0472C19.4669 7.03551 19.8309 7.34934 19.8673 7.76751C19.9087 8.24395 19.5342 8.64347 19.0664 8.64347H15.7599C14.4737 8.64347 13.3522 9.63454 13.3136 10.9201C13.2737 12.2503 14.3401 13.3412 15.6614 13.3412H15.9976C16.639 13.3412 17.1589 13.8611 17.1589 14.5025V18.6293C17.1589 18.7518 17.1804 18.8726 17.2209 18.9853L18.1921 18.9644L21.2158 14.047L21.6045 11.2288L22.5902 9.80146C22.5903 9.80151 20.6847 3.09239 17.0803 1.40756Z" fill="#98DB7C"/>
<path d="M23.8873 10.5983C23.3144 6.51851 20.6812 3.09392 17.082 1.40759C19.4739 3.60125 20.9782 6.76494 20.9782 10.2662C20.9782 13.7025 19.5375 16.7977 17.2227 18.9853C17.3646 19.3907 17.767 19.6722 18.2346 19.6054C18.5329 19.5628 18.7861 19.3622 18.9347 19.1001L21.7987 14.05C22.0522 13.6029 22.1175 13.0734 21.9802 12.5781L21.7582 11.7771C21.6852 11.5139 21.9005 11.26 22.172 11.2888L22.33 11.3055C22.7551 11.3506 23.1798 11.2164 23.5018 10.9353L23.8873 10.5983Z" fill="#77CC7D"/>
<path d="M11.8894 1.34489L11.2368 0.307922C6.84761 0.583266 3.10155 3.21544 1.24609 6.95602L2.00228 12.18C2.08713 12.7663 2.43587 13.2815 2.94873 13.5782C3.24377 13.7488 3.37286 14.1073 3.25441 14.4268L2.99622 15.1233C2.76391 15.75 2.95998 16.455 3.48245 16.8719L4.17194 17.4219C4.40777 17.6101 4.59639 17.8508 4.72267 18.1248L6.51428 22.0126L7.56147 22.7516L8.30092 22.2474L8.03275 21.1267C7.88148 20.4945 7.96253 19.8291 8.26108 19.2517L9.42395 17.0027C9.74425 16.3833 9.45025 15.6233 8.79644 15.3806L7.84108 15.0261C7.53761 14.9135 7.33628 14.6239 7.33628 14.3003V14.2257C7.33628 13.7981 6.98964 13.4515 6.56209 13.4515H4.90127C4.49425 13.4515 4.09445 13.3446 3.74177 13.1414L3.33663 12.908C3.02889 12.7307 2.81955 12.422 2.76873 12.0705L2.74286 11.8914C2.6777 11.4409 2.8818 10.9939 3.26481 10.748L3.50289 10.5951C3.79131 10.41 4.16716 10.4364 4.42675 10.6602L4.63895 10.8432C4.89733 11.0659 5.29994 10.9339 5.37625 10.6014L5.60256 9.61528C5.72317 9.08991 6.1083 8.66503 6.61942 8.49361L8.28967 7.93345C8.76667 7.77347 8.96678 7.2082 8.69669 6.7838L7.93741 5.59069C7.72877 5.26284 7.30942 5.14045 6.95716 5.30461L6.33011 5.59688C6.00578 5.74809 5.60167 5.68327 5.38277 5.40019C5.10034 5.03503 5.21383 4.51041 5.61227 4.29169L7.18816 3.42647C7.71091 3.13945 8.36608 3.29503 8.70395 3.78642L8.85039 3.99938C9.06691 4.31452 9.4248 4.50272 9.80716 4.50272H10.5163C10.9864 4.50272 11.4101 4.21931 11.5896 3.78487L12.0116 2.76342C12.2035 2.29875 12.158 1.76986 11.8894 1.34489Z" fill="#98DB7C"/>
<path d="M7.07513 23.2289C7.59113 23.4617 8.12592 23.6584 8.67769 23.8172L8.30222 22.2475C7.69228 22.2136 7.09777 22.1346 6.51562 22.0127L7.07513 23.2289Z" fill="#77CC7D"/>
</g>
<defs>
<clipPath id="clip0_1795_13053">
<rect width="24" height="24" fill="white" transform="translate(0 0.283997)"/>
</clipPath>
</defs>
</svg>
