<svg width="565" height="131" viewBox="0 0 565 131" fill="none" xmlns="http://www.w3.org/2000/svg">
<g clip-path="url(#clip0_1466_13926)">
<path d="M92 41.9969V71.5195C92 82.4984 83.1055 91.393 72.1266 91.393H37.357L16.7289 107.906C14.1594 109.973 10.4039 107.673 11.0687 104.456L13.9078 90.5484C5.76797 88.0328 0.14375 80.5758 0 72.0586C0 72.0406 0 72.0227 0 71.9867C0 71.8969 0 71.7891 0 71.6992V41.9969C0 31.1258 8.82266 22.3031 19.6938 22.3031H72.3063C83.1773 22.3031 92 31.1258 92 41.9969Z" fill="#3BE2F8"/>
<path d="M92 64.2781V71.5195C92 82.4984 83.1055 91.393 72.1266 91.393H37.357L16.7289 107.906C14.1594 109.973 10.4039 107.673 11.0687 104.456L13.9078 90.5484C5.76797 88.0328 0.14375 80.5758 0 72.0586C0 72.0406 0 72.0227 0 71.9867C0 71.8969 0 71.7891 0 71.6992V64.2781C0 75.1492 8.82266 83.9719 19.6938 83.9719H72.3063C83.1773 83.9719 92 75.1492 92 64.2781Z" fill="#0EA2D7"/>
<path d="M72.4516 22.3031H62.7305C43.6297 22.3031 28.1406 37.7922 28.1406 56.893C28.1406 73.8734 40.3773 87.9789 56.4953 90.9258L74.0867 107.008C76.3867 109.11 80.0344 107.098 79.4773 104.043L77.1414 90.9258C85.8562 88.7695 91.9836 80.9352 91.9836 71.9508V41.8531C92.0016 31.0539 83.2508 22.3031 72.4516 22.3031Z" fill="#FF9D00"/>
<path d="M72.4516 84.1695H62.7305C44.8695 84.1695 30.1531 70.6211 28.3383 53.2453C28.2125 54.4672 28.1406 55.6891 28.1406 56.9109C28.1406 73.8914 40.3773 87.9969 56.4953 90.9438L74.0867 107.026C76.3867 109.128 80.0344 107.116 79.4773 104.061L77.1414 90.9438C85.8562 88.7875 91.9836 80.9531 92.0016 71.9688V64.6375C92.0016 75.4188 83.2508 84.1695 72.4516 84.1695Z" fill="#FA7618"/>
<path d="M50.9062 61.6008C54.1315 61.6008 56.7461 58.9862 56.7461 55.7609C56.7461 52.5357 54.1315 49.9211 50.9062 49.9211C47.681 49.9211 45.0664 52.5357 45.0664 55.7609C45.0664 58.9862 47.681 61.6008 50.9062 61.6008Z" fill="#E4EAD3"/>
<path d="M69.2344 61.6008C72.4596 61.6008 75.0742 58.9862 75.0742 55.7609C75.0742 52.5357 72.4596 49.9211 69.2344 49.9211C66.0091 49.9211 63.3945 52.5357 63.3945 55.7609C63.3945 58.9862 66.0091 61.6008 69.2344 61.6008Z" fill="#E4EAD3"/>
</g>
<path d="M145.504 28V16.8H147.584V26.24H153.44V28H145.504ZM154.89 28V19.456H156.89V28H154.89ZM155.898 18.048C155.525 18.048 155.215 17.9307 154.97 17.696C154.735 17.4613 154.618 17.1787 154.618 16.848C154.618 16.5067 154.735 16.224 154.97 16C155.215 15.7653 155.525 15.648 155.898 15.648C156.271 15.648 156.575 15.76 156.81 15.984C157.055 16.1973 157.178 16.4693 157.178 16.8C157.178 17.152 157.061 17.4507 156.826 17.696C156.591 17.9307 156.282 18.048 155.898 18.048ZM161.787 28L158.123 19.456H160.203L163.355 26.992H162.331L165.595 19.456H167.515L163.851 28H161.787ZM172.547 28.112C171.597 28.112 170.765 27.9253 170.051 27.552C169.347 27.168 168.797 26.6453 168.403 25.984C168.019 25.3227 167.827 24.5707 167.827 23.728C167.827 22.8747 168.013 22.1227 168.387 21.472C168.771 20.8107 169.293 20.2933 169.955 19.92C170.627 19.5467 171.389 19.36 172.243 19.36C173.075 19.36 173.816 19.5413 174.467 19.904C175.117 20.2667 175.629 20.7787 176.003 21.44C176.376 22.1013 176.563 22.88 176.563 23.776C176.563 23.8613 176.557 23.9573 176.547 24.064C176.547 24.1707 176.541 24.272 176.531 24.368H169.411V23.04H175.475L174.691 23.456C174.701 22.9653 174.6 22.5333 174.387 22.16C174.173 21.7867 173.88 21.4933 173.507 21.28C173.144 21.0667 172.723 20.96 172.243 20.96C171.752 20.96 171.32 21.0667 170.947 21.28C170.584 21.4933 170.296 21.792 170.083 22.176C169.88 22.5493 169.779 22.992 169.779 23.504V23.824C169.779 24.336 169.896 24.7893 170.131 25.184C170.365 25.5787 170.696 25.8827 171.123 26.096C171.549 26.3093 172.04 26.416 172.595 26.416C173.075 26.416 173.507 26.3413 173.891 26.192C174.275 26.0427 174.616 25.808 174.915 25.488L175.987 26.72C175.603 27.168 175.117 27.5147 174.531 27.76C173.955 27.9947 173.293 28.112 172.547 28.112ZM188.282 28.16C187.428 28.16 186.634 28.0213 185.898 27.744C185.172 27.456 184.538 27.056 183.994 26.544C183.46 26.0213 183.044 25.408 182.746 24.704C182.447 24 182.298 23.232 182.298 22.4C182.298 21.568 182.447 20.8 182.746 20.096C183.044 19.392 183.466 18.784 184.01 18.272C184.554 17.7493 185.188 17.3493 185.914 17.072C186.639 16.784 187.434 16.64 188.298 16.64C189.215 16.64 190.052 16.8 190.81 17.12C191.567 17.4293 192.207 17.8933 192.73 18.512L191.386 19.776C190.98 19.3387 190.527 19.0133 190.026 18.8C189.524 18.576 188.98 18.464 188.394 18.464C187.807 18.464 187.268 18.56 186.778 18.752C186.298 18.944 185.876 19.216 185.514 19.568C185.162 19.92 184.884 20.336 184.682 20.816C184.49 21.296 184.394 21.824 184.394 22.4C184.394 22.976 184.49 23.504 184.682 23.984C184.884 24.464 185.162 24.88 185.514 25.232C185.876 25.584 186.298 25.856 186.778 26.048C187.268 26.24 187.807 26.336 188.394 26.336C188.98 26.336 189.524 26.2293 190.026 26.016C190.527 25.792 190.98 25.456 191.386 25.008L192.73 26.288C192.207 26.896 191.567 27.36 190.81 27.68C190.052 28 189.21 28.16 188.282 28.16ZM199.379 19.36C200.061 19.36 200.669 19.4933 201.203 19.76C201.747 20.0267 202.173 20.4373 202.483 20.992C202.792 21.536 202.947 22.24 202.947 23.104V28H200.947V23.36C200.947 22.6027 200.765 22.0373 200.403 21.664C200.051 21.2907 199.555 21.104 198.915 21.104C198.445 21.104 198.029 21.2 197.667 21.392C197.304 21.584 197.021 21.872 196.819 22.256C196.627 22.6293 196.531 23.104 196.531 23.68V28H194.531V16.128H196.531V21.76L196.099 21.056C196.397 20.512 196.829 20.096 197.395 19.808C197.971 19.5093 198.632 19.36 199.379 19.36ZM210.748 28V26.272L210.636 25.904V22.88C210.636 22.2933 210.46 21.84 210.108 21.52C209.756 21.1893 209.223 21.024 208.508 21.024C208.028 21.024 207.553 21.0987 207.084 21.248C206.625 21.3973 206.236 21.6053 205.916 21.872L205.132 20.416C205.591 20.064 206.135 19.8027 206.764 19.632C207.404 19.4507 208.065 19.36 208.748 19.36C209.985 19.36 210.94 19.6587 211.612 20.256C212.295 20.8427 212.636 21.7547 212.636 22.992V28H210.748ZM208.06 28.112C207.42 28.112 206.86 28.0053 206.38 27.792C205.9 27.568 205.527 27.264 205.26 26.88C205.004 26.4853 204.876 26.0427 204.876 25.552C204.876 25.072 204.988 24.64 205.212 24.256C205.447 23.872 205.825 23.568 206.348 23.344C206.871 23.12 207.564 23.008 208.428 23.008H210.908V24.336H208.572C207.889 24.336 207.431 24.448 207.196 24.672C206.961 24.8853 206.844 25.152 206.844 25.472C206.844 25.8347 206.988 26.1227 207.276 26.336C207.564 26.5493 207.964 26.656 208.476 26.656C208.967 26.656 209.404 26.544 209.788 26.32C210.183 26.096 210.465 25.7653 210.636 25.328L210.972 26.528C210.78 27.0293 210.433 27.4187 209.932 27.696C209.441 27.9733 208.817 28.112 208.06 28.112ZM218.419 28.112C217.48 28.112 216.755 27.872 216.243 27.392C215.731 26.9013 215.475 26.1813 215.475 25.232V17.568H217.475V25.184C217.475 25.5893 217.576 25.904 217.779 26.128C217.992 26.352 218.285 26.464 218.659 26.464C219.107 26.464 219.48 26.3467 219.779 26.112L220.339 27.536C220.104 27.728 219.816 27.872 219.475 27.968C219.133 28.064 218.781 28.112 218.419 28.112ZM214.067 21.12V19.52H219.763V21.12H214.067Z" fill="#A99F9F"/>
<path d="M150.22 56.2C149.127 56.2 148.08 56.0467 147.08 55.74C146.08 55.42 145.287 55.0133 144.7 54.52L145.6 52.5C146.16 52.94 146.853 53.3067 147.68 53.6C148.507 53.8933 149.353 54.04 150.22 54.04C150.953 54.04 151.547 53.96 152 53.8C152.453 53.64 152.787 53.4267 153 53.16C153.213 52.88 153.32 52.5667 153.32 52.22C153.32 51.7933 153.167 51.4533 152.86 51.2C152.553 50.9333 152.153 50.7267 151.66 50.58C151.18 50.42 150.64 50.2733 150.04 50.14C149.453 50.0067 148.86 49.8533 148.26 49.68C147.673 49.4933 147.133 49.26 146.64 48.98C146.16 48.6867 145.767 48.3 145.46 47.82C145.153 47.34 145 46.7267 145 45.98C145 45.22 145.2 44.5267 145.6 43.9C146.013 43.26 146.633 42.7533 147.46 42.38C148.3 41.9933 149.36 41.8 150.64 41.8C151.48 41.8 152.313 41.9067 153.14 42.12C153.967 42.3333 154.687 42.64 155.3 43.04L154.48 45.06C153.853 44.6867 153.207 44.4133 152.54 44.24C151.873 44.0533 151.233 43.96 150.62 43.96C149.9 43.96 149.313 44.0467 148.86 44.22C148.42 44.3933 148.093 44.62 147.88 44.9C147.68 45.18 147.58 45.5 147.58 45.86C147.58 46.2867 147.727 46.6333 148.02 46.9C148.327 47.1533 148.72 47.3533 149.2 47.5C149.693 47.6467 150.24 47.7933 150.84 47.94C151.44 48.0733 152.033 48.2267 152.62 48.4C153.22 48.5733 153.76 48.8 154.24 49.08C154.733 49.36 155.127 49.74 155.42 50.22C155.727 50.7 155.88 51.3067 155.88 52.04C155.88 52.7867 155.673 53.48 155.26 54.12C154.86 54.7467 154.24 55.2533 153.4 55.64C152.56 56.0133 151.5 56.2 150.22 56.2ZM162.238 56.14C161.065 56.14 160.158 55.84 159.518 55.24C158.878 54.6267 158.558 53.7267 158.558 52.54V42.96H161.058V52.48C161.058 52.9867 161.185 53.38 161.438 53.66C161.705 53.94 162.071 54.08 162.538 54.08C163.098 54.08 163.565 53.9333 163.938 53.64L164.638 55.42C164.345 55.66 163.985 55.84 163.558 55.96C163.131 56.08 162.691 56.14 162.238 56.14ZM156.798 47.4V45.4H163.918V47.4H156.798ZM173.275 56V53.84L173.135 53.38V49.6C173.135 48.8667 172.915 48.3 172.475 47.9C172.035 47.4867 171.368 47.28 170.475 47.28C169.875 47.28 169.281 47.3733 168.695 47.56C168.121 47.7467 167.635 48.0067 167.235 48.34L166.255 46.52C166.828 46.08 167.508 45.7533 168.295 45.54C169.095 45.3133 169.921 45.2 170.775 45.2C172.321 45.2 173.515 45.5733 174.355 46.32C175.208 47.0533 175.635 48.1933 175.635 49.74V56H173.275ZM169.915 56.14C169.115 56.14 168.415 56.0067 167.815 55.74C167.215 55.46 166.748 55.08 166.415 54.6C166.095 54.1067 165.935 53.5533 165.935 52.94C165.935 52.34 166.075 51.8 166.355 51.32C166.648 50.84 167.121 50.46 167.775 50.18C168.428 49.9 169.295 49.76 170.375 49.76H173.475V51.42H170.555C169.701 51.42 169.128 51.56 168.835 51.84C168.541 52.1067 168.395 52.44 168.395 52.84C168.395 53.2933 168.575 53.6533 168.935 53.92C169.295 54.1867 169.795 54.32 170.435 54.32C171.048 54.32 171.595 54.18 172.075 53.9C172.568 53.62 172.921 53.2067 173.135 52.66L173.555 54.16C173.315 54.7867 172.881 55.2733 172.255 55.62C171.641 55.9667 170.861 56.14 169.915 56.14ZM178.843 56V45.32H181.223V48.26L180.943 47.4C181.263 46.68 181.763 46.1333 182.443 45.76C183.136 45.3867 183.996 45.2 185.023 45.2V47.58C184.916 47.5533 184.816 47.54 184.723 47.54C184.63 47.5267 184.536 47.52 184.443 47.52C183.496 47.52 182.743 47.8 182.183 48.36C181.623 48.9067 181.343 49.7267 181.343 50.82V56H178.843ZM191.555 56.14C190.381 56.14 189.475 55.84 188.835 55.24C188.195 54.6267 187.875 53.7267 187.875 52.54V42.96H190.375V52.48C190.375 52.9867 190.501 53.38 190.755 53.66C191.021 53.94 191.388 54.08 191.855 54.08C192.415 54.08 192.881 53.9333 193.255 53.64L193.955 55.42C193.661 55.66 193.301 55.84 192.875 55.96C192.448 56.08 192.008 56.14 191.555 56.14ZM186.115 47.4V45.4H193.235V47.4H186.115ZM207.458 56.14C206.552 56.14 205.745 55.94 205.038 55.54C204.332 55.14 203.772 54.54 203.358 53.74C202.958 52.9267 202.758 51.9 202.758 50.66C202.758 49.4067 202.965 48.38 203.378 47.58C203.805 46.78 204.372 46.1867 205.078 45.8C205.798 45.4 206.592 45.2 207.458 45.2C208.512 45.2 209.438 45.4267 210.238 45.88C211.052 46.3333 211.692 46.9667 212.158 47.78C212.638 48.5933 212.878 49.5533 212.878 50.66C212.878 51.7667 212.638 52.7267 212.158 53.54C211.692 54.3533 211.052 54.9933 210.238 55.46C209.438 55.9133 208.512 56.14 207.458 56.14ZM201.538 56V41.16H204.038V47.8L203.838 50.64L203.918 53.48V56H201.538ZM207.178 54C207.778 54 208.312 53.8667 208.778 53.6C209.258 53.3333 209.638 52.9467 209.918 52.44C210.198 51.9333 210.338 51.34 210.338 50.66C210.338 49.9667 210.198 49.3733 209.918 48.88C209.638 48.3733 209.258 47.9867 208.778 47.72C208.312 47.4533 207.778 47.32 207.178 47.32C206.578 47.32 206.038 47.4533 205.558 47.72C205.078 47.9867 204.698 48.3733 204.418 48.88C204.138 49.3733 203.998 49.9667 203.998 50.66C203.998 51.34 204.138 51.9333 204.418 52.44C204.698 52.9467 205.078 53.3333 205.558 53.6C206.038 53.8667 206.578 54 207.178 54ZM219.769 56.14C218.863 56.14 218.063 55.9733 217.369 55.64C216.676 55.2933 216.136 54.7733 215.749 54.08C215.363 53.3733 215.169 52.4867 215.169 51.42V45.32H217.669V51.08C217.669 52.04 217.883 52.76 218.309 53.24C218.749 53.7067 219.369 53.94 220.169 53.94C220.756 53.94 221.263 53.82 221.689 53.58C222.129 53.34 222.469 52.98 222.709 52.5C222.963 52.02 223.089 51.4267 223.089 50.72V45.32H225.589V56H223.209V53.12L223.629 54C223.269 54.6933 222.743 55.2267 222.049 55.6C221.356 55.96 220.596 56.14 219.769 56.14ZM229.743 60.02C229.223 60.02 228.703 59.9333 228.183 59.76C227.663 59.5867 227.229 59.3467 226.883 59.04L227.883 57.2C228.136 57.4267 228.423 57.6067 228.743 57.74C229.063 57.8733 229.389 57.94 229.723 57.94C230.176 57.94 230.543 57.8267 230.823 57.6C231.103 57.3733 231.363 56.9933 231.603 56.46L232.223 55.06L232.423 54.76L236.463 45.32H238.863L233.863 56.86C233.529 57.66 233.156 58.2933 232.743 58.76C232.343 59.2267 231.889 59.5533 231.383 59.74C230.889 59.9267 230.343 60.02 229.743 60.02ZM231.943 56.38L227.123 45.32H229.723L233.643 54.54L231.943 56.38ZM240.425 56V45.32H242.925V56H240.425ZM241.685 43.56C241.218 43.56 240.832 43.4133 240.525 43.12C240.232 42.8267 240.085 42.4733 240.085 42.06C240.085 41.6333 240.232 41.28 240.525 41C240.832 40.7067 241.218 40.56 241.685 40.56C242.152 40.56 242.532 40.7 242.825 40.98C243.132 41.2467 243.285 41.5867 243.285 42C243.285 42.44 243.138 42.8133 242.845 43.12C242.552 43.4133 242.165 43.56 241.685 43.56ZM252.266 45.2C253.12 45.2 253.88 45.3667 254.546 45.7C255.226 46.0333 255.76 46.5467 256.146 47.24C256.533 47.92 256.726 48.8 256.726 49.88V56H254.226V50.2C254.226 49.2533 254 48.5467 253.546 48.08C253.106 47.6133 252.486 47.38 251.686 47.38C251.1 47.38 250.58 47.5 250.126 47.74C249.673 47.98 249.32 48.34 249.066 48.82C248.826 49.2867 248.706 49.88 248.706 50.6V56H246.206V45.32H248.586V48.2L248.166 47.32C248.54 46.64 249.08 46.12 249.786 45.76C250.506 45.3867 251.333 45.2 252.266 45.2ZM264.757 60.02C263.771 60.02 262.804 59.8867 261.857 59.62C260.924 59.3667 260.157 58.9933 259.557 58.5L260.677 56.62C261.144 57.0067 261.731 57.3133 262.437 57.54C263.157 57.78 263.884 57.9 264.617 57.9C265.791 57.9 266.651 57.6267 267.197 57.08C267.744 56.5467 268.017 55.74 268.017 54.66V52.76L268.217 50.34L268.137 47.92V45.32H270.517V54.38C270.517 56.3133 270.024 57.7333 269.037 58.64C268.051 59.56 266.624 60.02 264.757 60.02ZM264.437 55.52C263.424 55.52 262.504 55.3067 261.677 54.88C260.864 54.44 260.217 53.8333 259.737 53.06C259.271 52.2867 259.037 51.38 259.037 50.34C259.037 49.3133 259.271 48.4133 259.737 47.64C260.217 46.8667 260.864 46.2667 261.677 45.84C262.504 45.4133 263.424 45.2 264.437 45.2C265.344 45.2 266.157 45.38 266.877 45.74C267.597 46.1 268.171 46.66 268.597 47.42C269.037 48.18 269.257 49.1533 269.257 50.34C269.257 51.5267 269.037 52.5067 268.597 53.28C268.171 54.04 267.597 54.6067 266.877 54.98C266.157 55.34 265.344 55.52 264.437 55.52ZM264.817 53.4C265.444 53.4 266.004 53.2733 266.497 53.02C266.991 52.7533 267.371 52.3933 267.637 51.94C267.917 51.4733 268.057 50.94 268.057 50.34C268.057 49.74 267.917 49.2133 267.637 48.76C267.371 48.2933 266.991 47.94 266.497 47.7C266.004 47.4467 265.444 47.32 264.817 47.32C264.191 47.32 263.624 47.4467 263.117 47.7C262.624 47.94 262.237 48.2933 261.957 48.76C261.691 49.2133 261.557 49.74 261.557 50.34C261.557 50.94 261.691 51.4733 261.957 51.94C262.237 52.3933 262.624 52.7533 263.117 53.02C263.624 53.2733 264.191 53.4 264.817 53.4ZM281.691 56L277.771 45.32H280.131L283.491 54.74H282.371L285.891 45.32H287.991L291.411 54.74H290.311L293.771 45.32H295.991L292.051 56H289.651L286.531 47.66H287.271L284.091 56H281.691ZM297.71 56V45.32H300.21V56H297.71ZM298.97 43.56C298.504 43.56 298.117 43.4133 297.81 43.12C297.517 42.8267 297.37 42.4733 297.37 42.06C297.37 41.6333 297.517 41.28 297.81 41C298.117 40.7067 298.504 40.56 298.97 40.56C299.437 40.56 299.817 40.7 300.11 40.98C300.417 41.2467 300.57 41.5867 300.57 42C300.57 42.44 300.424 42.8133 300.13 43.12C299.837 43.4133 299.45 43.56 298.97 43.56ZM307.512 56.14C306.338 56.14 305.432 55.84 304.792 55.24C304.152 54.6267 303.832 53.7267 303.832 52.54V42.96H306.332V52.48C306.332 52.9867 306.458 53.38 306.712 53.66C306.978 53.94 307.345 54.08 307.812 54.08C308.372 54.08 308.838 53.9333 309.212 53.64L309.912 55.42C309.618 55.66 309.258 55.84 308.832 55.96C308.405 56.08 307.965 56.14 307.512 56.14ZM302.072 47.4V45.4H309.192V47.4H302.072ZM318.028 45.2C318.881 45.2 319.641 45.3667 320.308 45.7C320.988 46.0333 321.521 46.5467 321.908 47.24C322.295 47.92 322.488 48.8 322.488 49.88V56H319.988V50.2C319.988 49.2533 319.761 48.5467 319.308 48.08C318.868 47.6133 318.248 47.38 317.448 47.38C316.861 47.38 316.341 47.5 315.888 47.74C315.435 47.98 315.081 48.34 314.828 48.82C314.588 49.2867 314.468 49.88 314.468 50.6V56H311.968V41.16H314.468V48.2L313.928 47.32C314.301 46.64 314.841 46.12 315.548 45.76C316.268 45.3867 317.095 45.2 318.028 45.2ZM336.207 56.14C335.02 56.14 333.98 55.9067 333.087 55.44C332.207 54.96 331.52 54.3067 331.027 53.48C330.547 52.6533 330.307 51.7133 330.307 50.66C330.307 49.5933 330.54 48.6533 331.007 47.84C331.487 47.0133 332.14 46.3667 332.967 45.9C333.807 45.4333 334.76 45.2 335.827 45.2C336.867 45.2 337.794 45.4267 338.607 45.88C339.42 46.3333 340.06 46.9733 340.527 47.8C340.994 48.6267 341.227 49.6 341.227 50.72C341.227 50.8267 341.22 50.9467 341.207 51.08C341.207 51.2133 341.2 51.34 341.187 51.46H332.287V49.8H339.867L338.887 50.32C338.9 49.7067 338.774 49.1667 338.507 48.7C338.24 48.2333 337.874 47.8667 337.407 47.6C336.954 47.3333 336.427 47.2 335.827 47.2C335.214 47.2 334.674 47.3333 334.207 47.6C333.754 47.8667 333.394 48.24 333.127 48.72C332.874 49.1867 332.747 49.74 332.747 50.38V50.78C332.747 51.42 332.894 51.9867 333.187 52.48C333.48 52.9733 333.894 53.3533 334.427 53.62C334.96 53.8867 335.574 54.02 336.267 54.02C336.867 54.02 337.407 53.9267 337.887 53.74C338.367 53.5533 338.794 53.26 339.167 52.86L340.507 54.4C340.027 54.96 339.42 55.3933 338.687 55.7C337.967 55.9933 337.14 56.14 336.207 56.14ZM348.208 56.2C347.115 56.2 346.068 56.0467 345.068 55.74C344.068 55.42 343.275 55.0133 342.688 54.52L343.588 52.5C344.148 52.94 344.842 53.3067 345.668 53.6C346.495 53.8933 347.342 54.04 348.208 54.04C348.942 54.04 349.535 53.96 349.988 53.8C350.442 53.64 350.775 53.4267 350.988 53.16C351.202 52.88 351.308 52.5667 351.308 52.22C351.308 51.7933 351.155 51.4533 350.848 51.2C350.542 50.9333 350.142 50.7267 349.648 50.58C349.168 50.42 348.628 50.2733 348.028 50.14C347.442 50.0067 346.848 49.8533 346.248 49.68C345.662 49.4933 345.122 49.26 344.628 48.98C344.148 48.6867 343.755 48.3 343.448 47.82C343.142 47.34 342.988 46.7267 342.988 45.98C342.988 45.22 343.188 44.5267 343.588 43.9C344.002 43.26 344.622 42.7533 345.448 42.38C346.288 41.9933 347.348 41.8 348.628 41.8C349.468 41.8 350.302 41.9067 351.128 42.12C351.955 42.3333 352.675 42.64 353.288 43.04L352.468 45.06C351.842 44.6867 351.195 44.4133 350.528 44.24C349.862 44.0533 349.222 43.96 348.608 43.96C347.888 43.96 347.302 44.0467 346.848 44.22C346.408 44.3933 346.082 44.62 345.868 44.9C345.668 45.18 345.568 45.5 345.568 45.86C345.568 46.2867 345.715 46.6333 346.008 46.9C346.315 47.1533 346.708 47.3533 347.188 47.5C347.682 47.6467 348.228 47.7933 348.828 47.94C349.428 48.0733 350.022 48.2267 350.608 48.4C351.208 48.5733 351.748 48.8 352.228 49.08C352.722 49.36 353.115 49.74 353.408 50.22C353.715 50.7 353.868 51.3067 353.868 52.04C353.868 52.7867 353.662 53.48 353.248 54.12C352.848 54.7467 352.228 55.2533 351.388 55.64C350.548 56.0133 349.488 56.2 348.208 56.2ZM356.206 56V45.32H358.706V56H356.206ZM357.466 43.56C357 43.56 356.613 43.4133 356.306 43.12C356.013 42.8267 355.866 42.4733 355.866 42.06C355.866 41.6333 356.013 41.28 356.306 41C356.613 40.7067 357 40.56 357.466 40.56C357.933 40.56 358.313 40.7 358.606 40.98C358.913 41.2467 359.066 41.5867 359.066 42C359.066 42.44 358.92 42.8133 358.626 43.12C358.333 43.4133 357.946 43.56 357.466 43.56ZM375.468 45.2C376.321 45.2 377.074 45.3667 377.728 45.7C378.394 46.0333 378.914 46.5467 379.288 47.24C379.661 47.92 379.848 48.8 379.848 49.88V56H377.348V50.2C377.348 49.2533 377.141 48.5467 376.728 48.08C376.314 47.6133 375.721 47.38 374.948 47.38C374.401 47.38 373.914 47.5 373.488 47.74C373.074 47.98 372.748 48.3333 372.508 48.8C372.281 49.2667 372.168 49.86 372.168 50.58V56H369.668V50.2C369.668 49.2533 369.461 48.5467 369.048 48.08C368.634 47.6133 368.041 47.38 367.268 47.38C366.721 47.38 366.234 47.5 365.808 47.74C365.394 47.98 365.068 48.3333 364.828 48.8C364.601 49.2667 364.488 49.86 364.488 50.58V56H361.988V45.32H364.368V48.16L363.948 47.32C364.308 46.6267 364.828 46.1 365.508 45.74C366.201 45.38 366.988 45.2 367.868 45.2C368.868 45.2 369.734 45.4467 370.468 45.94C371.214 46.4333 371.708 47.18 371.948 48.18L370.968 47.84C371.314 47.04 371.888 46.4 372.688 45.92C373.488 45.44 374.414 45.2 375.468 45.2ZM389.762 56.2C388.696 56.2 387.702 56.0267 386.782 55.68C385.876 55.32 385.082 54.82 384.402 54.18C383.736 53.5267 383.216 52.76 382.842 51.88C382.469 51 382.282 50.04 382.282 49C382.282 47.96 382.469 47 382.842 46.12C383.216 45.24 383.742 44.48 384.422 43.84C385.102 43.1867 385.896 42.6867 386.802 42.34C387.709 41.98 388.702 41.8 389.782 41.8C390.929 41.8 391.976 42 392.922 42.4C393.869 42.7867 394.669 43.3667 395.322 44.14L393.642 45.72C393.136 45.1733 392.569 44.7667 391.942 44.5C391.316 44.22 390.636 44.08 389.902 44.08C389.169 44.08 388.496 44.2 387.882 44.44C387.282 44.68 386.756 45.02 386.302 45.46C385.862 45.9 385.516 46.42 385.262 47.02C385.022 47.62 384.902 48.28 384.902 49C384.902 49.72 385.022 50.38 385.262 50.98C385.516 51.58 385.862 52.1 386.302 52.54C386.756 52.98 387.282 53.32 387.882 53.56C388.496 53.8 389.169 53.92 389.902 53.92C390.636 53.92 391.316 53.7867 391.942 53.52C392.569 53.24 393.136 52.82 393.642 52.26L395.322 53.86C394.669 54.62 393.869 55.2 392.922 55.6C391.976 56 390.922 56.2 389.762 56.2ZM404.056 56V53.84L403.916 53.38V49.6C403.916 48.8667 403.696 48.3 403.256 47.9C402.816 47.4867 402.149 47.28 401.256 47.28C400.656 47.28 400.063 47.3733 399.476 47.56C398.903 47.7467 398.416 48.0067 398.016 48.34L397.036 46.52C397.609 46.08 398.289 45.7533 399.076 45.54C399.876 45.3133 400.703 45.2 401.556 45.2C403.103 45.2 404.296 45.5733 405.136 46.32C405.989 47.0533 406.416 48.1933 406.416 49.74V56H404.056ZM400.696 56.14C399.896 56.14 399.196 56.0067 398.596 55.74C397.996 55.46 397.529 55.08 397.196 54.6C396.876 54.1067 396.716 53.5533 396.716 52.94C396.716 52.34 396.856 51.8 397.136 51.32C397.429 50.84 397.903 50.46 398.556 50.18C399.209 49.9 400.076 49.76 401.156 49.76H404.256V51.42H401.336C400.483 51.42 399.909 51.56 399.616 51.84C399.323 52.1067 399.176 52.44 399.176 52.84C399.176 53.2933 399.356 53.6533 399.716 53.92C400.076 54.1867 400.576 54.32 401.216 54.32C401.829 54.32 402.376 54.18 402.856 53.9C403.349 53.62 403.703 53.2067 403.916 52.66L404.336 54.16C404.096 54.7867 403.663 55.2733 403.036 55.62C402.423 55.9667 401.643 56.14 400.696 56.14ZM409.624 56V45.32H412.004V48.26L411.724 47.4C412.044 46.68 412.544 46.1333 413.224 45.76C413.918 45.3867 414.778 45.2 415.804 45.2V47.58C415.698 47.5533 415.598 47.54 415.504 47.54C415.411 47.5267 415.318 47.52 415.224 47.52C414.278 47.52 413.524 47.8 412.964 48.36C412.404 48.9067 412.124 49.7267 412.124 50.82V56H409.624ZM422.348 56.14C421.321 56.14 420.394 55.9133 419.568 55.46C418.754 54.9933 418.114 54.3533 417.648 53.54C417.181 52.7267 416.948 51.7667 416.948 50.66C416.948 49.5533 417.181 48.5933 417.648 47.78C418.114 46.9667 418.754 46.3333 419.568 45.88C420.394 45.4267 421.321 45.2 422.348 45.2C423.241 45.2 424.041 45.4 424.748 45.8C425.454 46.1867 426.014 46.78 426.428 47.58C426.841 48.38 427.048 49.4067 427.048 50.66C427.048 51.9 426.848 52.9267 426.448 53.74C426.048 54.54 425.494 55.14 424.788 55.54C424.081 55.94 423.268 56.14 422.348 56.14ZM422.648 54C423.248 54 423.781 53.8667 424.248 53.6C424.728 53.3333 425.108 52.9467 425.388 52.44C425.681 51.9333 425.828 51.34 425.828 50.66C425.828 49.9667 425.681 49.3733 425.388 48.88C425.108 48.3733 424.728 47.9867 424.248 47.72C423.781 47.4533 423.248 47.32 422.648 47.32C422.048 47.32 421.508 47.4533 421.028 47.72C420.561 47.9867 420.181 48.3733 419.888 48.88C419.608 49.3733 419.468 49.9667 419.468 50.66C419.468 51.34 419.608 51.9333 419.888 52.44C420.181 52.9467 420.561 53.3333 421.028 53.6C421.508 53.8667 422.048 54 422.648 54ZM425.888 56V53.48L425.988 50.64L425.788 47.8V41.16H428.268V56H425.888ZM441.105 56.14C439.932 56.14 439.025 55.84 438.385 55.24C437.745 54.6267 437.425 53.7267 437.425 52.54V42.96H439.925V52.48C439.925 52.9867 440.052 53.38 440.305 53.66C440.572 53.94 440.939 54.08 441.405 54.08C441.965 54.08 442.432 53.9333 442.805 53.64L443.505 55.42C443.212 55.66 442.852 55.84 442.425 55.96C441.999 56.08 441.559 56.14 441.105 56.14ZM435.665 47.4V45.4H442.785V47.4H435.665ZM451.622 45.2C452.475 45.2 453.235 45.3667 453.902 45.7C454.582 46.0333 455.115 46.5467 455.502 47.24C455.889 47.92 456.082 48.8 456.082 49.88V56H453.582V50.2C453.582 49.2533 453.355 48.5467 452.902 48.08C452.462 47.6133 451.842 47.38 451.042 47.38C450.455 47.38 449.935 47.5 449.482 47.74C449.029 47.98 448.675 48.34 448.422 48.82C448.182 49.2867 448.062 49.88 448.062 50.6V56H445.562V41.16H448.062V48.2L447.522 47.32C447.895 46.64 448.435 46.12 449.142 45.76C449.862 45.3867 450.689 45.2 451.622 45.2ZM465.833 56V53.84L465.693 53.38V49.6C465.693 48.8667 465.473 48.3 465.033 47.9C464.593 47.4867 463.927 47.28 463.033 47.28C462.433 47.28 461.84 47.3733 461.253 47.56C460.68 47.7467 460.193 48.0067 459.793 48.34L458.813 46.52C459.387 46.08 460.067 45.7533 460.853 45.54C461.653 45.3133 462.48 45.2 463.333 45.2C464.88 45.2 466.073 45.5733 466.913 46.32C467.767 47.0533 468.193 48.1933 468.193 49.74V56H465.833ZM462.473 56.14C461.673 56.14 460.973 56.0067 460.373 55.74C459.773 55.46 459.307 55.08 458.973 54.6C458.653 54.1067 458.493 53.5533 458.493 52.94C458.493 52.34 458.633 51.8 458.913 51.32C459.207 50.84 459.68 50.46 460.333 50.18C460.987 49.9 461.853 49.76 462.933 49.76H466.033V51.42H463.113C462.26 51.42 461.687 51.56 461.393 51.84C461.1 52.1067 460.953 52.44 460.953 52.84C460.953 53.2933 461.133 53.6533 461.493 53.92C461.853 54.1867 462.353 54.32 462.993 54.32C463.607 54.32 464.153 54.18 464.633 53.9C465.127 53.62 465.48 53.2067 465.693 52.66L466.113 54.16C465.873 54.7867 465.44 55.2733 464.813 55.62C464.2 55.9667 463.42 56.14 462.473 56.14ZM475.422 56.14C474.248 56.14 473.342 55.84 472.702 55.24C472.062 54.6267 471.742 53.7267 471.742 52.54V42.96H474.242V52.48C474.242 52.9867 474.368 53.38 474.622 53.66C474.888 53.94 475.255 54.08 475.722 54.08C476.282 54.08 476.748 53.9333 477.122 53.64L477.822 55.42C477.528 55.66 477.168 55.84 476.742 55.96C476.315 56.08 475.875 56.14 475.422 56.14ZM469.982 47.4V45.4H477.102V47.4H469.982ZM490.306 56.14C489.186 56.14 488.186 55.9067 487.306 55.44C486.439 54.96 485.759 54.3067 485.266 53.48C484.772 52.6533 484.526 51.7133 484.526 50.66C484.526 49.5933 484.772 48.6533 485.266 47.84C485.759 47.0133 486.439 46.3667 487.306 45.9C488.186 45.4333 489.186 45.2 490.306 45.2C491.346 45.2 492.259 45.4133 493.046 45.84C493.846 46.2533 494.452 46.8667 494.866 47.68L492.946 48.8C492.626 48.2933 492.232 47.92 491.766 47.68C491.312 47.44 490.819 47.32 490.286 47.32C489.672 47.32 489.119 47.4533 488.626 47.72C488.132 47.9867 487.746 48.3733 487.466 48.88C487.186 49.3733 487.046 49.9667 487.046 50.66C487.046 51.3533 487.186 51.9533 487.466 52.46C487.746 52.9533 488.132 53.3333 488.626 53.6C489.119 53.8667 489.672 54 490.286 54C490.819 54 491.312 53.88 491.766 53.64C492.232 53.4 492.626 53.0267 492.946 52.52L494.866 53.64C494.452 54.44 493.846 55.06 493.046 55.5C492.259 55.9267 491.346 56.14 490.306 56.14ZM503.607 56V53.84L503.467 53.38V49.6C503.467 48.8667 503.247 48.3 502.807 47.9C502.367 47.4867 501.7 47.28 500.807 47.28C500.207 47.28 499.613 47.3733 499.027 47.56C498.453 47.7467 497.967 48.0067 497.567 48.34L496.587 46.52C497.16 46.08 497.84 45.7533 498.627 45.54C499.427 45.3133 500.253 45.2 501.107 45.2C502.653 45.2 503.847 45.5733 504.687 46.32C505.54 47.0533 505.967 48.1933 505.967 49.74V56H503.607ZM500.247 56.14C499.447 56.14 498.747 56.0067 498.147 55.74C497.547 55.46 497.08 55.08 496.747 54.6C496.427 54.1067 496.267 53.5533 496.267 52.94C496.267 52.34 496.407 51.8 496.687 51.32C496.98 50.84 497.453 50.46 498.107 50.18C498.76 49.9 499.627 49.76 500.707 49.76H503.807V51.42H500.887C500.033 51.42 499.46 51.56 499.167 51.84C498.873 52.1067 498.727 52.44 498.727 52.84C498.727 53.2933 498.907 53.6533 499.267 53.92C499.627 54.1867 500.127 54.32 500.767 54.32C501.38 54.32 501.927 54.18 502.407 53.9C502.9 53.62 503.253 53.2067 503.467 52.66L503.887 54.16C503.647 54.7867 503.213 55.2733 502.587 55.62C501.973 55.9667 501.193 56.14 500.247 56.14ZM515.235 45.2C516.088 45.2 516.848 45.3667 517.515 45.7C518.195 46.0333 518.728 46.5467 519.115 47.24C519.502 47.92 519.695 48.8 519.695 49.88V56H517.195V50.2C517.195 49.2533 516.968 48.5467 516.515 48.08C516.075 47.6133 515.455 47.38 514.655 47.38C514.068 47.38 513.548 47.5 513.095 47.74C512.642 47.98 512.288 48.34 512.035 48.82C511.795 49.2867 511.675 49.88 511.675 50.6V56H509.175V45.32H511.555V48.2L511.135 47.32C511.508 46.64 512.048 46.12 512.755 45.76C513.475 45.3867 514.302 45.2 515.235 45.2ZM151.56 80.14C150.693 80.14 149.9 79.94 149.18 79.54C148.473 79.14 147.907 78.54 147.48 77.74C147.067 76.9267 146.86 75.9 146.86 74.66C146.86 73.4067 147.06 72.38 147.46 71.58C147.873 70.78 148.433 70.1867 149.14 69.8C149.847 69.4 150.653 69.2 151.56 69.2C152.613 69.2 153.54 69.4267 154.34 69.88C155.153 70.3333 155.793 70.9667 156.26 71.78C156.74 72.5933 156.98 73.5533 156.98 74.66C156.98 75.7667 156.74 76.7333 156.26 77.56C155.793 78.3733 155.153 79.0067 154.34 79.46C153.54 79.9133 152.613 80.14 151.56 80.14ZM145.64 83.88V69.32H148.02V71.84L147.94 74.68L148.14 77.52V83.88H145.64ZM151.28 78C151.88 78 152.413 77.8667 152.88 77.6C153.36 77.3333 153.74 76.9467 154.02 76.44C154.3 75.9333 154.44 75.34 154.44 74.66C154.44 73.9667 154.3 73.3733 154.02 72.88C153.74 72.3733 153.36 71.9867 152.88 71.72C152.413 71.4533 151.88 71.32 151.28 71.32C150.68 71.32 150.14 71.4533 149.66 71.72C149.18 71.9867 148.8 72.3733 148.52 72.88C148.24 73.3733 148.1 73.9667 148.1 74.66C148.1 75.34 148.24 75.9333 148.52 76.44C148.8 76.9467 149.18 77.3333 149.66 77.6C150.14 77.8667 150.68 78 151.28 78ZM159.351 80V69.32H161.731V72.26L161.451 71.4C161.771 70.68 162.271 70.1333 162.951 69.76C163.644 69.3867 164.504 69.2 165.531 69.2V71.58C165.424 71.5533 165.324 71.54 165.231 71.54C165.138 71.5267 165.044 71.52 164.951 71.52C164.004 71.52 163.251 71.8 162.691 72.36C162.131 72.9067 161.851 73.7267 161.851 74.82V80H159.351ZM172.354 80.14C171.261 80.14 170.287 79.9067 169.434 79.44C168.581 78.96 167.907 78.3067 167.414 77.48C166.921 76.6533 166.674 75.7133 166.674 74.66C166.674 73.5933 166.921 72.6533 167.414 71.84C167.907 71.0133 168.581 70.3667 169.434 69.9C170.287 69.4333 171.261 69.2 172.354 69.2C173.461 69.2 174.441 69.4333 175.294 69.9C176.161 70.3667 176.834 71.0067 177.314 71.82C177.807 72.6333 178.054 73.58 178.054 74.66C178.054 75.7133 177.807 76.6533 177.314 77.48C176.834 78.3067 176.161 78.96 175.294 79.44C174.441 79.9067 173.461 80.14 172.354 80.14ZM172.354 78C172.967 78 173.514 77.8667 173.994 77.6C174.474 77.3333 174.847 76.9467 175.114 76.44C175.394 75.9333 175.534 75.34 175.534 74.66C175.534 73.9667 175.394 73.3733 175.114 72.88C174.847 72.3733 174.474 71.9867 173.994 71.72C173.514 71.4533 172.974 71.32 172.374 71.32C171.761 71.32 171.214 71.4533 170.734 71.72C170.267 71.9867 169.894 72.3733 169.614 72.88C169.334 73.3733 169.194 73.9667 169.194 74.66C169.194 75.34 169.334 75.9333 169.614 76.44C169.894 76.9467 170.267 77.3333 170.734 77.6C171.214 77.8667 171.754 78 172.354 78ZM182.992 80L178.412 69.32H181.012L184.952 78.74H183.672L187.752 69.32H190.152L185.572 80H182.992ZM191.714 80V69.32H194.214V80H191.714ZM192.974 67.56C192.508 67.56 192.121 67.4133 191.814 67.12C191.521 66.8267 191.374 66.4733 191.374 66.06C191.374 65.6333 191.521 65.28 191.814 65C192.121 64.7067 192.508 64.56 192.974 64.56C193.441 64.56 193.821 64.7 194.114 64.98C194.421 65.2467 194.574 65.5867 194.574 66C194.574 66.44 194.428 66.8133 194.134 67.12C193.841 67.4133 193.454 67.56 192.974 67.56ZM202.015 80.14C200.989 80.14 200.062 79.9133 199.235 79.46C198.422 78.9933 197.782 78.3533 197.315 77.54C196.849 76.7267 196.615 75.7667 196.615 74.66C196.615 73.5533 196.849 72.5933 197.315 71.78C197.782 70.9667 198.422 70.3333 199.235 69.88C200.062 69.4267 200.989 69.2 202.015 69.2C202.909 69.2 203.709 69.4 204.415 69.8C205.122 70.1867 205.682 70.78 206.095 71.58C206.509 72.38 206.715 73.4067 206.715 74.66C206.715 75.9 206.515 76.9267 206.115 77.74C205.715 78.54 205.162 79.14 204.455 79.54C203.749 79.94 202.935 80.14 202.015 80.14ZM202.315 78C202.915 78 203.449 77.8667 203.915 77.6C204.395 77.3333 204.775 76.9467 205.055 76.44C205.349 75.9333 205.495 75.34 205.495 74.66C205.495 73.9667 205.349 73.3733 205.055 72.88C204.775 72.3733 204.395 71.9867 203.915 71.72C203.449 71.4533 202.915 71.32 202.315 71.32C201.715 71.32 201.175 71.4533 200.695 71.72C200.229 71.9867 199.849 72.3733 199.555 72.88C199.275 73.3733 199.135 73.9667 199.135 74.66C199.135 75.34 199.275 75.9333 199.555 76.44C199.849 76.9467 200.229 77.3333 200.695 77.6C201.175 77.8667 201.715 78 202.315 78ZM205.555 80V77.48L205.655 74.64L205.455 71.8V65.16H207.935V80H205.555ZM216.246 80.14C215.059 80.14 214.019 79.9067 213.126 79.44C212.246 78.96 211.559 78.3067 211.066 77.48C210.586 76.6533 210.346 75.7133 210.346 74.66C210.346 73.5933 210.579 72.6533 211.046 71.84C211.526 71.0133 212.179 70.3667 213.006 69.9C213.846 69.4333 214.799 69.2 215.866 69.2C216.906 69.2 217.833 69.4267 218.646 69.88C219.459 70.3333 220.099 70.9733 220.566 71.8C221.033 72.6267 221.266 73.6 221.266 74.72C221.266 74.8267 221.259 74.9467 221.246 75.08C221.246 75.2133 221.239 75.34 221.226 75.46H212.326V73.8H219.906L218.926 74.32C218.939 73.7067 218.813 73.1667 218.546 72.7C218.279 72.2333 217.913 71.8667 217.446 71.6C216.993 71.3333 216.466 71.2 215.866 71.2C215.253 71.2 214.713 71.3333 214.246 71.6C213.793 71.8667 213.433 72.24 213.166 72.72C212.913 73.1867 212.786 73.74 212.786 74.38V74.78C212.786 75.42 212.933 75.9867 213.226 76.48C213.519 76.9733 213.933 77.3533 214.466 77.62C214.999 77.8867 215.613 78.02 216.306 78.02C216.906 78.02 217.446 77.9267 217.926 77.74C218.406 77.5533 218.833 77.26 219.206 76.86L220.546 78.4C220.066 78.96 219.459 79.3933 218.726 79.7C218.006 79.9933 217.179 80.14 216.246 80.14ZM234.215 80.14C233.028 80.14 231.988 79.9067 231.095 79.44C230.215 78.96 229.528 78.3067 229.035 77.48C228.555 76.6533 228.315 75.7133 228.315 74.66C228.315 73.5933 228.548 72.6533 229.015 71.84C229.495 71.0133 230.148 70.3667 230.975 69.9C231.815 69.4333 232.768 69.2 233.835 69.2C234.875 69.2 235.801 69.4267 236.615 69.88C237.428 70.3333 238.068 70.9733 238.535 71.8C239.001 72.6267 239.235 73.6 239.235 74.72C239.235 74.8267 239.228 74.9467 239.215 75.08C239.215 75.2133 239.208 75.34 239.195 75.46H230.295V73.8H237.875L236.895 74.32C236.908 73.7067 236.781 73.1667 236.515 72.7C236.248 72.2333 235.881 71.8667 235.415 71.6C234.961 71.3333 234.435 71.2 233.835 71.2C233.221 71.2 232.681 71.3333 232.215 71.6C231.761 71.8667 231.401 72.24 231.135 72.72C230.881 73.1867 230.755 73.74 230.755 74.38V74.78C230.755 75.42 230.901 75.9867 231.195 76.48C231.488 76.9733 231.901 77.3533 232.435 77.62C232.968 77.8867 233.581 78.02 234.275 78.02C234.875 78.02 235.415 77.9267 235.895 77.74C236.375 77.5533 236.801 77.26 237.175 76.86L238.515 78.4C238.035 78.96 237.428 79.3933 236.695 79.7C235.975 79.9933 235.148 80.14 234.215 80.14ZM244.281 80L239.701 69.32H242.301L246.241 78.74H244.961L249.041 69.32H251.441L246.861 80H244.281ZM257.73 80.14C256.544 80.14 255.504 79.9067 254.61 79.44C253.73 78.96 253.044 78.3067 252.55 77.48C252.07 76.6533 251.83 75.7133 251.83 74.66C251.83 73.5933 252.064 72.6533 252.53 71.84C253.01 71.0133 253.664 70.3667 254.49 69.9C255.33 69.4333 256.284 69.2 257.35 69.2C258.39 69.2 259.317 69.4267 260.13 69.88C260.944 70.3333 261.584 70.9733 262.05 71.8C262.517 72.6267 262.75 73.6 262.75 74.72C262.75 74.8267 262.744 74.9467 262.73 75.08C262.73 75.2133 262.724 75.34 262.71 75.46H253.81V73.8H261.39L260.41 74.32C260.424 73.7067 260.297 73.1667 260.03 72.7C259.764 72.2333 259.397 71.8667 258.93 71.6C258.477 71.3333 257.95 71.2 257.35 71.2C256.737 71.2 256.197 71.3333 255.73 71.6C255.277 71.8667 254.917 72.24 254.65 72.72C254.397 73.1867 254.27 73.74 254.27 74.38V74.78C254.27 75.42 254.417 75.9867 254.71 76.48C255.004 76.9733 255.417 77.3533 255.95 77.62C256.484 77.8867 257.097 78.02 257.79 78.02C258.39 78.02 258.93 77.9267 259.41 77.74C259.89 77.5533 260.317 77.26 260.69 76.86L262.03 78.4C261.55 78.96 260.944 79.3933 260.21 79.7C259.49 79.9933 258.664 80.14 257.73 80.14ZM265.152 80V69.32H267.532V72.26L267.252 71.4C267.572 70.68 268.072 70.1333 268.752 69.76C269.445 69.3867 270.305 69.2 271.332 69.2V71.58C271.225 71.5533 271.125 71.54 271.032 71.54C270.938 71.5267 270.845 71.52 270.752 71.52C269.805 71.52 269.052 71.8 268.492 72.36C267.932 72.9067 267.652 73.7267 267.652 74.82V80H265.152ZM274.723 84.02C274.203 84.02 273.683 83.9333 273.163 83.76C272.643 83.5867 272.21 83.3467 271.863 83.04L272.863 81.2C273.116 81.4267 273.403 81.6067 273.723 81.74C274.043 81.8733 274.37 81.94 274.703 81.94C275.156 81.94 275.523 81.8267 275.803 81.6C276.083 81.3733 276.343 80.9933 276.583 80.46L277.203 79.06L277.403 78.76L281.443 69.32H283.843L278.843 80.86C278.51 81.66 278.136 82.2933 277.723 82.76C277.323 83.2267 276.87 83.5533 276.363 83.74C275.87 83.9267 275.323 84.02 274.723 84.02ZM276.923 80.38L272.103 69.32H274.703L278.623 78.54L276.923 80.38ZM289.719 80.14C288.545 80.14 287.639 79.84 286.999 79.24C286.359 78.6267 286.039 77.7267 286.039 76.54V66.96H288.539V76.48C288.539 76.9867 288.665 77.38 288.919 77.66C289.185 77.94 289.552 78.08 290.019 78.08C290.579 78.08 291.045 77.9333 291.419 77.64L292.119 79.42C291.825 79.66 291.465 79.84 291.039 79.96C290.612 80.08 290.172 80.14 289.719 80.14ZM284.279 71.4V69.4H291.399V71.4H284.279ZM300.235 69.2C301.088 69.2 301.848 69.3667 302.515 69.7C303.195 70.0333 303.728 70.5467 304.115 71.24C304.502 71.92 304.695 72.8 304.695 73.88V80H302.195V74.2C302.195 73.2533 301.968 72.5467 301.515 72.08C301.075 71.6133 300.455 71.38 299.655 71.38C299.068 71.38 298.548 71.5 298.095 71.74C297.642 71.98 297.288 72.34 297.035 72.82C296.795 73.2867 296.675 73.88 296.675 74.6V80H294.175V65.16H296.675V72.2L296.135 71.32C296.508 70.64 297.048 70.12 297.755 69.76C298.475 69.3867 299.302 69.2 300.235 69.2ZM307.867 80V69.32H310.367V80H307.867ZM309.127 67.56C308.66 67.56 308.273 67.4133 307.967 67.12C307.673 66.8267 307.527 66.4733 307.527 66.06C307.527 65.6333 307.673 65.28 307.967 65C308.273 64.7067 308.66 64.56 309.127 64.56C309.593 64.56 309.973 64.7 310.267 64.98C310.573 65.2467 310.727 65.5867 310.727 66C310.727 66.44 310.58 66.8133 310.287 67.12C309.993 67.4133 309.607 67.56 309.127 67.56ZM319.708 69.2C320.561 69.2 321.321 69.3667 321.988 69.7C322.668 70.0333 323.201 70.5467 323.588 71.24C323.974 71.92 324.168 72.8 324.168 73.88V80H321.668V74.2C321.668 73.2533 321.441 72.5467 320.988 72.08C320.548 71.6133 319.928 71.38 319.128 71.38C318.541 71.38 318.021 71.5 317.568 71.74C317.114 71.98 316.761 72.34 316.508 72.82C316.268 73.2867 316.148 73.88 316.148 74.6V80H313.648V69.32H316.028V72.2L315.608 71.32C315.981 70.64 316.521 70.12 317.228 69.76C317.948 69.3867 318.774 69.2 319.708 69.2ZM332.199 84.02C331.212 84.02 330.245 83.8867 329.299 83.62C328.365 83.3667 327.599 82.9933 326.999 82.5L328.119 80.62C328.585 81.0067 329.172 81.3133 329.879 81.54C330.599 81.78 331.325 81.9 332.059 81.9C333.232 81.9 334.092 81.6267 334.639 81.08C335.185 80.5467 335.459 79.74 335.459 78.66V76.76L335.659 74.34L335.579 71.92V69.32H337.959V78.38C337.959 80.3133 337.465 81.7333 336.479 82.64C335.492 83.56 334.065 84.02 332.199 84.02ZM331.879 79.52C330.865 79.52 329.945 79.3067 329.119 78.88C328.305 78.44 327.659 77.8333 327.179 77.06C326.712 76.2867 326.479 75.38 326.479 74.34C326.479 73.3133 326.712 72.4133 327.179 71.64C327.659 70.8667 328.305 70.2667 329.119 69.84C329.945 69.4133 330.865 69.2 331.879 69.2C332.785 69.2 333.599 69.38 334.319 69.74C335.039 70.1 335.612 70.66 336.039 71.42C336.479 72.18 336.699 73.1533 336.699 74.34C336.699 75.5267 336.479 76.5067 336.039 77.28C335.612 78.04 335.039 78.6067 334.319 78.98C333.599 79.34 332.785 79.52 331.879 79.52ZM332.259 77.4C332.885 77.4 333.445 77.2733 333.939 77.02C334.432 76.7533 334.812 76.3933 335.079 75.94C335.359 75.4733 335.499 74.94 335.499 74.34C335.499 73.74 335.359 73.2133 335.079 72.76C334.812 72.2933 334.432 71.94 333.939 71.7C333.445 71.4467 332.885 71.32 332.259 71.32C331.632 71.32 331.065 71.4467 330.559 71.7C330.065 71.94 329.679 72.2933 329.399 72.76C329.132 73.2133 328.999 73.74 328.999 74.34C328.999 74.94 329.132 75.4733 329.399 75.94C329.679 76.3933 330.065 76.7533 330.559 77.02C331.065 77.2733 331.632 77.4 332.259 77.4Z" fill="#4A4949"/>
<path opacity="0.8" d="M145.332 111V109.83C146.52 108.954 147.51 108.186 148.302 107.526C149.106 106.866 149.748 106.266 150.228 105.726C150.708 105.186 151.05 104.676 151.254 104.196C151.458 103.704 151.56 103.194 151.56 102.666C151.56 101.958 151.332 101.388 150.876 100.956C150.432 100.512 149.82 100.29 149.04 100.29C148.224 100.29 147.57 100.56 147.078 101.1C146.586 101.628 146.298 102.336 146.214 103.224L144.954 102.468C145.062 101.772 145.284 101.16 145.62 100.632C145.968 100.104 146.43 99.69 147.006 99.39C147.594 99.09 148.29 98.94 149.094 98.94C149.706 98.94 150.252 99.03 150.732 99.21C151.224 99.39 151.644 99.648 151.992 99.984C152.34 100.308 152.604 100.698 152.784 101.154C152.976 101.61 153.072 102.114 153.072 102.666C153.072 103.41 152.892 104.142 152.532 104.862C152.172 105.57 151.578 106.314 150.75 107.094C149.922 107.874 148.8 108.738 147.384 109.686V109.704C147.516 109.692 147.696 109.686 147.924 109.686C148.164 109.674 148.398 109.668 148.626 109.668C148.866 109.656 149.046 109.65 149.166 109.65H153.324V111H145.332ZM160.537 111V107.886H154.741V106.824L160.159 99.12H161.977V106.644H164.083V107.886H161.977V111H160.537ZM156.271 106.644H160.537V102.198C160.537 101.886 160.543 101.568 160.555 101.244C160.579 100.92 160.597 100.602 160.609 100.29H160.573C160.429 100.59 160.243 100.926 160.015 101.298C159.787 101.67 159.577 101.994 159.385 102.27L156.271 106.644ZM172.315 97.86L166.807 112.26H165.457L170.965 97.86H172.315ZM173.531 99.12H182.279V100.47C181.283 101.526 180.467 102.612 179.831 103.728C179.207 104.832 178.751 105.984 178.463 107.184C178.175 108.384 178.031 109.656 178.031 111H176.555C176.555 109.668 176.717 108.366 177.041 107.094C177.377 105.81 177.881 104.58 178.553 103.404C179.225 102.228 180.059 101.13 181.055 100.11L181.289 100.47H173.531V99.12ZM195.222 98.94C196.35 98.94 197.322 99.192 198.138 99.696C198.966 100.188 199.602 100.89 200.046 101.802C200.502 102.714 200.73 103.8 200.73 105.06C200.73 106.32 200.502 107.406 200.046 108.318C199.602 109.23 198.966 109.938 198.138 110.442C197.322 110.934 196.35 111.18 195.222 111.18C194.094 111.18 193.116 110.934 192.288 110.442C191.472 109.938 190.836 109.23 190.38 108.318C189.936 107.406 189.714 106.32 189.714 105.06C189.714 103.8 189.936 102.714 190.38 101.802C190.836 100.89 191.472 100.188 192.288 99.696C193.116 99.192 194.094 98.94 195.222 98.94ZM195.222 100.29C194.406 100.29 193.698 100.482 193.098 100.866C192.498 101.238 192.036 101.784 191.712 102.504C191.388 103.212 191.226 104.064 191.226 105.06C191.226 106.056 191.388 106.914 191.712 107.634C192.036 108.342 192.498 108.888 193.098 109.272C193.698 109.644 194.406 109.83 195.222 109.83C196.05 109.83 196.758 109.644 197.346 109.272C197.946 108.888 198.408 108.342 198.732 107.634C199.056 106.914 199.218 106.056 199.218 105.06C199.218 104.064 199.056 103.212 198.732 102.504C198.408 101.784 197.946 101.238 197.346 100.866C196.758 100.482 196.05 100.29 195.222 100.29ZM203.541 111V102H204.801L204.927 104.016L204.693 103.818C204.885 103.338 205.143 102.954 205.467 102.666C205.791 102.366 206.163 102.15 206.583 102.018C207.015 101.886 207.459 101.82 207.915 101.82C208.563 101.82 209.151 101.946 209.679 102.198C210.207 102.438 210.627 102.81 210.939 103.314C211.263 103.818 211.425 104.46 211.425 105.24V111H209.985V105.744C209.985 104.748 209.769 104.058 209.337 103.674C208.917 103.278 208.395 103.08 207.771 103.08C207.339 103.08 206.907 103.182 206.475 103.386C206.043 103.59 205.683 103.92 205.395 104.376C205.119 104.832 204.981 105.444 204.981 106.212V111H203.541ZM216.054 97.86V108.714C216.054 109.17 216.138 109.488 216.306 109.668C216.474 109.836 216.744 109.92 217.116 109.92C217.356 109.92 217.554 109.902 217.71 109.866C217.866 109.83 218.076 109.764 218.34 109.668L218.106 110.928C217.914 111.012 217.704 111.072 217.476 111.108C217.248 111.156 217.014 111.18 216.774 111.18C216.042 111.18 215.496 110.982 215.136 110.586C214.788 110.19 214.614 109.584 214.614 108.768V97.86H216.054ZM220.908 100.272C220.584 100.272 220.32 100.176 220.116 99.984C219.924 99.78 219.828 99.516 219.828 99.192C219.828 98.868 219.924 98.61 220.116 98.418C220.32 98.214 220.584 98.112 220.908 98.112C221.232 98.112 221.49 98.214 221.682 98.418C221.886 98.61 221.988 98.868 221.988 99.192C221.988 99.516 221.886 99.78 221.682 99.984C221.49 100.176 221.232 100.272 220.908 100.272ZM221.628 102V111H220.188V102H221.628ZM224.969 111V102H226.229L226.355 104.016L226.121 103.818C226.313 103.338 226.571 102.954 226.895 102.666C227.219 102.366 227.591 102.15 228.011 102.018C228.443 101.886 228.887 101.82 229.343 101.82C229.991 101.82 230.579 101.946 231.107 102.198C231.635 102.438 232.055 102.81 232.367 103.314C232.691 103.818 232.853 104.46 232.853 105.24V111H231.413V105.744C231.413 104.748 231.197 104.058 230.765 103.674C230.345 103.278 229.823 103.08 229.199 103.08C228.767 103.08 228.335 103.182 227.903 103.386C227.471 103.59 227.111 103.92 226.823 104.376C226.547 104.832 226.409 105.444 226.409 106.212V111H224.969ZM239.875 111.18C239.023 111.18 238.261 110.994 237.589 110.622C236.929 110.25 236.413 109.716 236.041 109.02C235.669 108.312 235.483 107.472 235.483 106.5C235.483 105.528 235.669 104.694 236.041 103.998C236.413 103.29 236.923 102.75 237.571 102.378C238.219 102.006 238.957 101.82 239.785 101.82C240.625 101.82 241.339 102 241.927 102.36C242.527 102.72 242.983 103.212 243.295 103.836C243.607 104.448 243.763 105.138 243.763 105.906C243.763 106.11 243.757 106.296 243.745 106.464C243.733 106.632 243.715 106.782 243.691 106.914H236.419V105.636H243.061L242.323 105.78C242.323 104.916 242.083 104.25 241.603 103.782C241.135 103.314 240.517 103.08 239.749 103.08C239.161 103.08 238.651 103.218 238.219 103.494C237.799 103.758 237.469 104.148 237.229 104.664C237.001 105.168 236.887 105.78 236.887 106.5C236.887 107.208 237.007 107.82 237.247 108.336C237.487 108.852 237.823 109.248 238.255 109.524C238.699 109.788 239.227 109.92 239.839 109.92C240.499 109.92 241.033 109.794 241.441 109.542C241.861 109.29 242.197 108.948 242.449 108.516L243.583 109.182C243.355 109.59 243.061 109.944 242.701 110.244C242.353 110.544 241.939 110.778 241.459 110.946C240.991 111.102 240.463 111.18 239.875 111.18ZM256.723 98.94C257.767 98.94 258.667 99.156 259.423 99.588C260.179 100.008 260.809 100.632 261.313 101.46L260.107 102.396C259.663 101.628 259.159 101.088 258.595 100.776C258.043 100.452 257.371 100.29 256.579 100.29C255.943 100.29 255.415 100.38 254.995 100.56C254.587 100.74 254.287 100.98 254.095 101.28C253.903 101.568 253.807 101.898 253.807 102.27C253.807 102.69 253.939 103.062 254.203 103.386C254.467 103.698 254.995 103.944 255.787 104.124L258.361 104.7C259.501 104.952 260.293 105.336 260.737 105.852C261.193 106.356 261.421 106.986 261.421 107.742C261.421 108.414 261.229 109.014 260.845 109.542C260.473 110.058 259.945 110.46 259.261 110.748C258.577 111.036 257.773 111.18 256.849 111.18C255.985 111.18 255.223 111.066 254.563 110.838C253.915 110.598 253.357 110.28 252.889 109.884C252.421 109.488 252.037 109.044 251.737 108.552L252.997 107.526C253.225 107.982 253.519 108.384 253.879 108.732C254.239 109.08 254.671 109.35 255.175 109.542C255.691 109.734 256.279 109.83 256.939 109.83C257.551 109.83 258.079 109.758 258.523 109.614C258.979 109.458 259.327 109.236 259.567 108.948C259.807 108.648 259.927 108.288 259.927 107.868C259.927 107.484 259.801 107.142 259.549 106.842C259.297 106.53 258.823 106.296 258.127 106.14L255.337 105.51C254.605 105.342 254.011 105.114 253.555 104.826C253.111 104.526 252.787 104.178 252.583 103.782C252.391 103.374 252.295 102.936 252.295 102.468C252.295 101.832 252.469 101.25 252.817 100.722C253.177 100.182 253.687 99.75 254.347 99.426C255.019 99.102 255.811 98.94 256.723 98.94ZM267.338 111.18C266.762 111.18 266.216 111.072 265.7 110.856C265.196 110.64 264.782 110.292 264.458 109.812C264.146 109.32 263.99 108.684 263.99 107.904V102H265.43V107.526C265.43 108.438 265.628 109.068 266.024 109.416C266.42 109.752 266.978 109.92 267.698 109.92C268.034 109.92 268.364 109.866 268.688 109.758C269.012 109.638 269.3 109.458 269.552 109.218C269.816 108.966 270.02 108.648 270.164 108.264C270.32 107.88 270.398 107.424 270.398 106.896V102H271.838V111H270.578L270.488 109.632C270.176 110.172 269.75 110.568 269.21 110.82C268.682 111.06 268.058 111.18 267.338 111.18ZM275.19 114.78V102H276.45L276.576 104.196L276.378 103.944C276.534 103.524 276.768 103.158 277.08 102.846C277.392 102.522 277.77 102.27 278.214 102.09C278.658 101.91 279.138 101.82 279.654 101.82C280.386 101.82 281.058 102.006 281.67 102.378C282.294 102.75 282.792 103.284 283.164 103.98C283.536 104.676 283.722 105.516 283.722 106.5C283.722 107.472 283.53 108.312 283.146 109.02C282.774 109.716 282.276 110.25 281.652 110.622C281.028 110.994 280.344 111.18 279.6 111.18C278.856 111.18 278.202 111 277.638 110.64C277.086 110.268 276.69 109.8 276.45 109.236L276.63 108.966V114.78H275.19ZM279.456 109.92C280.344 109.92 281.034 109.608 281.526 108.984C282.03 108.36 282.282 107.532 282.282 106.5C282.282 105.468 282.036 104.64 281.544 104.016C281.064 103.392 280.386 103.08 279.51 103.08C278.934 103.08 278.43 103.224 277.998 103.512C277.566 103.788 277.23 104.184 276.99 104.7C276.75 105.204 276.63 105.804 276.63 106.5C276.63 107.184 276.744 107.784 276.972 108.3C277.212 108.816 277.542 109.218 277.962 109.506C278.394 109.782 278.892 109.92 279.456 109.92ZM286.475 114.78V102H287.735L287.861 104.196L287.663 103.944C287.819 103.524 288.053 103.158 288.365 102.846C288.677 102.522 289.055 102.27 289.499 102.09C289.943 101.91 290.423 101.82 290.939 101.82C291.671 101.82 292.343 102.006 292.955 102.378C293.579 102.75 294.077 103.284 294.449 103.98C294.821 104.676 295.007 105.516 295.007 106.5C295.007 107.472 294.815 108.312 294.431 109.02C294.059 109.716 293.561 110.25 292.937 110.622C292.313 110.994 291.629 111.18 290.885 111.18C290.141 111.18 289.487 111 288.923 110.64C288.371 110.268 287.975 109.8 287.735 109.236L287.915 108.966V114.78H286.475ZM290.741 109.92C291.629 109.92 292.319 109.608 292.811 108.984C293.315 108.36 293.567 107.532 293.567 106.5C293.567 105.468 293.321 104.64 292.829 104.016C292.349 103.392 291.671 103.08 290.795 103.08C290.219 103.08 289.715 103.224 289.283 103.512C288.851 103.788 288.515 104.184 288.275 104.7C288.035 105.204 287.915 105.804 287.915 106.5C287.915 107.184 288.029 107.784 288.257 108.3C288.497 108.816 288.827 109.218 289.247 109.506C289.679 109.782 290.177 109.92 290.741 109.92ZM301.486 101.82C302.338 101.82 303.088 102.006 303.736 102.378C304.396 102.75 304.912 103.29 305.284 103.998C305.656 104.694 305.842 105.528 305.842 106.5C305.842 107.472 305.656 108.312 305.284 109.02C304.912 109.716 304.396 110.25 303.736 110.622C303.088 110.994 302.338 111.18 301.486 111.18C300.646 111.18 299.896 110.994 299.236 110.622C298.576 110.25 298.06 109.716 297.688 109.02C297.316 108.312 297.13 107.472 297.13 106.5C297.13 105.528 297.316 104.694 297.688 103.998C298.06 103.29 298.576 102.75 299.236 102.378C299.896 102.006 300.646 101.82 301.486 101.82ZM301.486 103.062C300.874 103.062 300.352 103.2 299.92 103.476C299.488 103.752 299.152 104.148 298.912 104.664C298.684 105.168 298.57 105.78 298.57 106.5C298.57 107.208 298.684 107.82 298.912 108.336C299.152 108.852 299.488 109.248 299.92 109.524C300.352 109.8 300.874 109.938 301.486 109.938C302.098 109.938 302.62 109.8 303.052 109.524C303.484 109.248 303.814 108.852 304.042 108.336C304.282 107.82 304.402 107.208 304.402 106.5C304.402 105.78 304.282 105.168 304.042 104.664C303.814 104.148 303.484 103.752 303.052 103.476C302.62 103.2 302.098 103.062 301.486 103.062ZM308.553 111V102H309.723L309.921 103.476C310.173 102.924 310.539 102.51 311.019 102.234C311.511 101.958 312.105 101.82 312.801 101.82C312.957 101.82 313.125 101.832 313.305 101.856C313.497 101.88 313.659 101.928 313.791 102L313.539 103.314C313.407 103.266 313.263 103.23 313.107 103.206C312.951 103.182 312.729 103.17 312.441 103.17C312.069 103.17 311.691 103.278 311.307 103.494C310.935 103.71 310.623 104.04 310.371 104.484C310.119 104.916 309.993 105.468 309.993 106.14V111H308.553ZM317.48 99.444V108.516C317.48 108.96 317.606 109.29 317.858 109.506C318.11 109.722 318.434 109.83 318.83 109.83C319.178 109.83 319.478 109.77 319.73 109.65C319.982 109.53 320.21 109.368 320.414 109.164L320.918 110.37C320.642 110.622 320.312 110.82 319.928 110.964C319.556 111.108 319.124 111.18 318.632 111.18C318.176 111.18 317.75 111.102 317.354 110.946C316.958 110.778 316.64 110.52 316.4 110.172C316.172 109.812 316.052 109.344 316.04 108.768V99.84L317.48 99.444ZM320.756 102V103.242H314.24V102H320.756Z" fill="#898989"/>
<defs>
<clipPath id="clip0_1466_13926">
<rect width="92" height="92" fill="white" transform="translate(0 19.5)"/>
</clipPath>
</defs>
</svg>
