<svg width="360" height="309" viewBox="0 0 360 309" fill="none" xmlns="http://www.w3.org/2000/svg">
<g clip-path="url(#clip0_324_12347)">
<rect width="360" height="309" fill="#48F88B" fill-opacity="0.1"/>
<path d="M64 97C64 69.3858 86.3858 47 114 47H253C280.614 47 303 69.3858 303 97V309H64V97Z" fill="white"/>
<mask id="path-2-inside-1_324_12347" fill="white">
<path d="M64 97C64 69.3858 86.3858 47 114 47H253C280.614 47 303 69.3858 303 97V309H64V97Z"/>
</mask>
<path d="M64 97C64 69.3858 86.3858 47 114 47H253C280.614 47 303 69.3858 303 97V309H64V97Z" fill="white"/>
<path d="M63 97C63 68.8335 85.8335 46 114 46H253C281.167 46 304 68.8335 304 97H302C302 69.938 280.062 48 253 48H114C86.938 48 65 69.938 65 97H63ZM303 309H64H303ZM63 309V97C63 68.8335 85.8335 46 114 46V48C86.938 48 65 69.938 65 97V309H63ZM253 46C281.167 46 304 68.8335 304 97V309H302V97C302 69.938 280.062 48 253 48V46Z" fill="black" mask="url(#path-2-inside-1_324_12347)"/>
<path d="M27.3089 38.16C26.2156 38.16 25.2356 37.88 24.3689 37.32C23.5156 36.76 22.8356 35.9467 22.3289 34.88C21.8356 33.8133 21.5889 32.52 21.5889 31C21.5889 29.48 21.8356 28.1867 22.3289 27.12C22.8356 26.0533 23.5156 25.24 24.3689 24.68C25.2356 24.12 26.2156 23.84 27.3089 23.84C28.3889 23.84 29.3622 24.12 30.2289 24.68C31.0956 25.24 31.7756 26.0533 32.2689 27.12C32.7622 28.1867 33.0089 29.48 33.0089 31C33.0089 32.52 32.7622 33.8133 32.2689 34.88C31.7756 35.9467 31.0956 36.76 30.2289 37.32C29.3622 37.88 28.3889 38.16 27.3089 38.16ZM27.3089 36.38C28.0422 36.38 28.6822 36.18 29.2289 35.78C29.7889 35.38 30.2222 34.78 30.5289 33.98C30.8489 33.18 31.0089 32.1867 31.0089 31C31.0089 29.8133 30.8489 28.82 30.5289 28.02C30.2222 27.22 29.7889 26.62 29.2289 26.22C28.6822 25.82 28.0422 25.62 27.3089 25.62C26.5756 25.62 25.9289 25.82 25.3689 26.22C24.8089 26.62 24.3689 27.22 24.0489 28.02C23.7422 28.82 23.5889 29.8133 23.5889 31C23.5889 32.1867 23.7422 33.18 24.0489 33.98C24.3689 34.78 24.8089 35.38 25.3689 35.78C25.9289 36.18 26.5756 36.38 27.3089 36.38ZM37.2888 38V24.8L38.1488 25.74H34.1288V24H39.2688V38H37.2888Z" fill="#6A6A6A"/>
<rect x="92.5" y="84.5" width="183" height="37" rx="6.5" fill="white"/>
<rect x="92.5" y="84.5" width="183" height="37" rx="6.5" stroke="#D9D9D9"/>
<circle cx="113" cy="103" r="8.5" fill="white" stroke="#D9D9D9"/>
<path d="M134.64 110V96.8L135.5 97.74H131.48V96H136.62V110H134.64ZM152.514 110.16C151.434 110.16 150.44 109.987 149.534 109.64C148.627 109.28 147.84 108.78 147.174 108.14C146.507 107.487 145.987 106.727 145.614 105.86C145.24 104.993 145.054 104.04 145.054 103C145.054 101.96 145.24 101.007 145.614 100.14C145.987 99.2733 146.507 98.52 147.174 97.88C147.854 97.2267 148.647 96.7267 149.554 96.38C150.46 96.02 151.46 95.84 152.554 95.84C153.66 95.84 154.674 96.02 155.594 96.38C156.514 96.74 157.294 97.28 157.934 98L156.694 99.24C156.12 98.68 155.494 98.2733 154.814 98.02C154.147 97.7533 153.42 97.62 152.634 97.62C151.834 97.62 151.087 97.7533 150.394 98.02C149.714 98.2867 149.12 98.66 148.614 99.14C148.12 99.62 147.734 100.193 147.454 100.86C147.187 101.513 147.054 102.227 147.054 103C147.054 103.76 147.187 104.473 147.454 105.14C147.734 105.793 148.12 106.367 148.614 106.86C149.12 107.34 149.714 107.713 150.394 107.98C151.074 108.247 151.814 108.38 152.614 108.38C153.36 108.38 154.074 108.267 154.754 108.04C155.447 107.8 156.087 107.407 156.674 106.86L157.814 108.38C157.12 108.967 156.307 109.413 155.374 109.72C154.454 110.013 153.5 110.16 152.514 110.16ZM155.894 108.12V102.92H157.814V108.38L155.894 108.12ZM161.643 110V96H167.923C169.536 96 170.776 96.3267 171.643 96.98C172.51 97.62 172.943 98.5 172.943 99.62C172.943 100.38 172.77 101.02 172.423 101.54C172.09 102.06 171.636 102.46 171.063 102.74C170.49 103.02 169.87 103.16 169.203 103.16L169.563 102.56C170.363 102.56 171.07 102.7 171.683 102.98C172.296 103.26 172.783 103.673 173.143 104.22C173.503 104.753 173.683 105.42 173.683 106.22C173.683 107.42 173.23 108.353 172.323 109.02C171.43 109.673 170.096 110 168.323 110H161.643ZM163.643 108.38H168.243C169.35 108.38 170.196 108.193 170.783 107.82C171.37 107.447 171.663 106.86 171.663 106.06C171.663 105.247 171.37 104.653 170.783 104.28C170.196 103.907 169.35 103.72 168.243 103.72H163.463V102.1H167.743C168.756 102.1 169.543 101.913 170.103 101.54C170.663 101.167 170.943 100.607 170.943 99.86C170.943 99.1133 170.663 98.5533 170.103 98.18C169.543 97.8067 168.756 97.62 167.743 97.62H163.643V108.38Z" fill="black"/>
<rect x="92.5" y="138.5" width="183" height="37" rx="6.5" fill="white"/>
<rect x="92.5" y="138.5" width="183" height="37" rx="6.5" stroke="#D9D9D9"/>
<circle cx="113" cy="157" r="8.5" fill="white" stroke="#D9D9D9"/>
<path d="M132.019 164V162.64L137.719 157.14C138.226 156.66 138.599 156.24 138.839 155.88C139.093 155.507 139.259 155.167 139.339 154.86C139.433 154.54 139.479 154.233 139.479 153.94C139.479 153.22 139.226 152.653 138.719 152.24C138.213 151.827 137.473 151.62 136.499 151.62C135.753 151.62 135.079 151.747 134.479 152C133.879 152.24 133.359 152.62 132.919 153.14L131.559 151.96C132.093 151.28 132.806 150.76 133.699 150.4C134.606 150.027 135.599 149.84 136.679 149.84C137.653 149.84 138.499 150 139.219 150.32C139.939 150.627 140.493 151.073 140.879 151.66C141.279 152.247 141.479 152.94 141.479 153.74C141.479 154.193 141.419 154.64 141.299 155.08C141.179 155.52 140.953 155.987 140.619 156.48C140.286 156.973 139.806 157.527 139.179 158.14L134.099 163.04L133.619 162.26H142.079V164H132.019ZM156.555 164.16C155.475 164.16 154.481 163.987 153.575 163.64C152.668 163.28 151.881 162.78 151.215 162.14C150.548 161.487 150.028 160.727 149.655 159.86C149.281 158.993 149.095 158.04 149.095 157C149.095 155.96 149.281 155.007 149.655 154.14C150.028 153.273 150.548 152.52 151.215 151.88C151.895 151.227 152.688 150.727 153.595 150.38C154.501 150.02 155.501 149.84 156.595 149.84C157.701 149.84 158.715 150.02 159.635 150.38C160.555 150.74 161.335 151.28 161.975 152L160.735 153.24C160.161 152.68 159.535 152.273 158.855 152.02C158.188 151.753 157.461 151.62 156.675 151.62C155.875 151.62 155.128 151.753 154.435 152.02C153.755 152.287 153.161 152.66 152.655 153.14C152.161 153.62 151.775 154.193 151.495 154.86C151.228 155.513 151.095 156.227 151.095 157C151.095 157.76 151.228 158.473 151.495 159.14C151.775 159.793 152.161 160.367 152.655 160.86C153.161 161.34 153.755 161.713 154.435 161.98C155.115 162.247 155.855 162.38 156.655 162.38C157.401 162.38 158.115 162.267 158.795 162.04C159.488 161.8 160.128 161.407 160.715 160.86L161.855 162.38C161.161 162.967 160.348 163.413 159.415 163.72C158.495 164.013 157.541 164.16 156.555 164.16ZM159.935 162.12V156.92H161.855V162.38L159.935 162.12ZM165.684 164V150H171.964C173.577 150 174.817 150.327 175.684 150.98C176.551 151.62 176.984 152.5 176.984 153.62C176.984 154.38 176.811 155.02 176.464 155.54C176.131 156.06 175.677 156.46 175.104 156.74C174.531 157.02 173.911 157.16 173.244 157.16L173.604 156.56C174.404 156.56 175.111 156.7 175.724 156.98C176.337 157.26 176.824 157.673 177.184 158.22C177.544 158.753 177.724 159.42 177.724 160.22C177.724 161.42 177.271 162.353 176.364 163.02C175.471 163.673 174.137 164 172.364 164H165.684ZM167.684 162.38H172.284C173.391 162.38 174.237 162.193 174.824 161.82C175.411 161.447 175.704 160.86 175.704 160.06C175.704 159.247 175.411 158.653 174.824 158.28C174.237 157.907 173.391 157.72 172.284 157.72H167.504V156.1H171.784C172.797 156.1 173.584 155.913 174.144 155.54C174.704 155.167 174.984 154.607 174.984 153.86C174.984 153.113 174.704 152.553 174.144 152.18C173.584 151.807 172.797 151.62 171.784 151.62H167.684V162.38Z" fill="black"/>
<rect x="92.5" y="192.5" width="183" height="37" rx="6.5" fill="white"/>
<rect x="92.5" y="192.5" width="183" height="37" rx="6.5" stroke="#D9D9D9"/>
<circle cx="113" cy="211" r="8.5" fill="white" stroke="#D9D9D9"/>
<path d="M136.539 218.16C135.552 218.16 134.592 218.007 133.659 217.7C132.739 217.393 131.985 216.98 131.399 216.46L132.319 214.88C132.785 215.32 133.392 215.68 134.139 215.96C134.885 216.24 135.685 216.38 136.539 216.38C137.579 216.38 138.385 216.16 138.959 215.72C139.545 215.267 139.839 214.66 139.839 213.9C139.839 213.167 139.559 212.58 138.999 212.14C138.452 211.687 137.579 211.46 136.379 211.46H135.259V210.06L139.419 204.94L139.699 205.74H132.039V204H141.279V205.36L137.139 210.46L136.099 209.84H136.759C138.452 209.84 139.719 210.22 140.559 210.98C141.412 211.74 141.839 212.707 141.839 213.88C141.839 214.667 141.645 215.387 141.259 216.04C140.872 216.693 140.285 217.213 139.499 217.6C138.725 217.973 137.739 218.16 136.539 218.16ZM156.535 218.16C155.455 218.16 154.462 217.987 153.555 217.64C152.649 217.28 151.862 216.78 151.195 216.14C150.529 215.487 150.009 214.727 149.635 213.86C149.262 212.993 149.075 212.04 149.075 211C149.075 209.96 149.262 209.007 149.635 208.14C150.009 207.273 150.529 206.52 151.195 205.88C151.875 205.227 152.669 204.727 153.575 204.38C154.482 204.02 155.482 203.84 156.575 203.84C157.682 203.84 158.695 204.02 159.615 204.38C160.535 204.74 161.315 205.28 161.955 206L160.715 207.24C160.142 206.68 159.515 206.273 158.835 206.02C158.169 205.753 157.442 205.62 156.655 205.62C155.855 205.62 155.109 205.753 154.415 206.02C153.735 206.287 153.142 206.66 152.635 207.14C152.142 207.62 151.755 208.193 151.475 208.86C151.209 209.513 151.075 210.227 151.075 211C151.075 211.76 151.209 212.473 151.475 213.14C151.755 213.793 152.142 214.367 152.635 214.86C153.142 215.34 153.735 215.713 154.415 215.98C155.095 216.247 155.835 216.38 156.635 216.38C157.382 216.38 158.095 216.267 158.775 216.04C159.469 215.8 160.109 215.407 160.695 214.86L161.835 216.38C161.142 216.967 160.329 217.413 159.395 217.72C158.475 218.013 157.522 218.16 156.535 218.16ZM159.915 216.12V210.92H161.835V216.38L159.915 216.12ZM165.664 218V204H171.944C173.558 204 174.798 204.327 175.664 204.98C176.531 205.62 176.964 206.5 176.964 207.62C176.964 208.38 176.791 209.02 176.444 209.54C176.111 210.06 175.658 210.46 175.084 210.74C174.511 211.02 173.891 211.16 173.224 211.16L173.584 210.56C174.384 210.56 175.091 210.7 175.704 210.98C176.318 211.26 176.804 211.673 177.164 212.22C177.524 212.753 177.704 213.42 177.704 214.22C177.704 215.42 177.251 216.353 176.344 217.02C175.451 217.673 174.118 218 172.344 218H165.664ZM167.664 216.38H172.264C173.371 216.38 174.218 216.193 174.804 215.82C175.391 215.447 175.684 214.86 175.684 214.06C175.684 213.247 175.391 212.653 174.804 212.28C174.218 211.907 173.371 211.72 172.264 211.72H167.484V210.1H171.764C172.778 210.1 173.564 209.913 174.124 209.54C174.684 209.167 174.964 208.607 174.964 207.86C174.964 207.113 174.684 206.553 174.124 206.18C173.564 205.807 172.778 205.62 171.764 205.62H167.664V216.38Z" fill="black"/>
<rect x="92.5" y="246.5" width="183" height="37" rx="6.5" fill="#008E7C"/>
<rect x="92.5" y="246.5" width="183" height="37" rx="6.5" stroke="#D9D9D9"/>
<circle cx="113" cy="265" r="8.5" fill="#008E7C" stroke="#D9D9D9"/>
<path d="M136.759 272.16C135.773 272.16 134.813 272.007 133.879 271.7C132.959 271.393 132.206 270.98 131.619 270.46L132.539 268.88C133.006 269.32 133.613 269.68 134.359 269.96C135.106 270.24 135.899 270.38 136.739 270.38C137.806 270.38 138.626 270.153 139.199 269.7C139.773 269.247 140.059 268.64 140.059 267.88C140.059 267.36 139.933 266.907 139.679 266.52C139.426 266.133 138.986 265.84 138.359 265.64C137.746 265.427 136.899 265.32 135.819 265.32H132.639L133.379 258H141.279V259.74H134.119L135.159 258.76L134.579 264.54L133.539 263.58H136.239C137.639 263.58 138.766 263.76 139.619 264.12C140.473 264.48 141.093 264.98 141.479 265.62C141.866 266.247 142.059 266.973 142.059 267.8C142.059 268.6 141.866 269.333 141.479 270C141.093 270.653 140.506 271.18 139.719 271.58C138.946 271.967 137.959 272.16 136.759 272.16ZM156.555 272.16C155.475 272.16 154.481 271.987 153.575 271.64C152.668 271.28 151.881 270.78 151.215 270.14C150.548 269.487 150.028 268.727 149.655 267.86C149.281 266.993 149.095 266.04 149.095 265C149.095 263.96 149.281 263.007 149.655 262.14C150.028 261.273 150.548 260.52 151.215 259.88C151.895 259.227 152.688 258.727 153.595 258.38C154.501 258.02 155.501 257.84 156.595 257.84C157.701 257.84 158.715 258.02 159.635 258.38C160.555 258.74 161.335 259.28 161.975 260L160.735 261.24C160.161 260.68 159.535 260.273 158.855 260.02C158.188 259.753 157.461 259.62 156.675 259.62C155.875 259.62 155.128 259.753 154.435 260.02C153.755 260.287 153.161 260.66 152.655 261.14C152.161 261.62 151.775 262.193 151.495 262.86C151.228 263.513 151.095 264.227 151.095 265C151.095 265.76 151.228 266.473 151.495 267.14C151.775 267.793 152.161 268.367 152.655 268.86C153.161 269.34 153.755 269.713 154.435 269.98C155.115 270.247 155.855 270.38 156.655 270.38C157.401 270.38 158.115 270.267 158.795 270.04C159.488 269.8 160.128 269.407 160.715 268.86L161.855 270.38C161.161 270.967 160.348 271.413 159.415 271.72C158.495 272.013 157.541 272.16 156.555 272.16ZM159.935 270.12V264.92H161.855V270.38L159.935 270.12ZM165.684 272V258H171.964C173.577 258 174.817 258.327 175.684 258.98C176.551 259.62 176.984 260.5 176.984 261.62C176.984 262.38 176.811 263.02 176.464 263.54C176.131 264.06 175.677 264.46 175.104 264.74C174.531 265.02 173.911 265.16 173.244 265.16L173.604 264.56C174.404 264.56 175.111 264.7 175.724 264.98C176.337 265.26 176.824 265.673 177.184 266.22C177.544 266.753 177.724 267.42 177.724 268.22C177.724 269.42 177.271 270.353 176.364 271.02C175.471 271.673 174.137 272 172.364 272H165.684ZM167.684 270.38H172.284C173.391 270.38 174.237 270.193 174.824 269.82C175.411 269.447 175.704 268.86 175.704 268.06C175.704 267.247 175.411 266.653 174.824 266.28C174.237 265.907 173.391 265.72 172.284 265.72H167.504V264.1H171.784C172.797 264.1 173.584 263.913 174.144 263.54C174.704 263.167 174.984 262.607 174.984 261.86C174.984 261.113 174.704 260.553 174.144 260.18C173.584 259.807 172.797 259.62 171.784 259.62H167.684V270.38Z" fill="white"/>
<rect x="92.5" y="300.5" width="183" height="37" rx="6.5" fill="white"/>
<rect x="92.5" y="300.5" width="183" height="37" rx="6.5" stroke="#D9D9D9"/>
</g>
<defs>
<clipPath id="clip0_324_12347">
<rect width="360" height="309" fill="white"/>
</clipPath>
</defs>
</svg>
