<svg width="360" height="309" viewBox="0 0 360 309" fill="none" xmlns="http://www.w3.org/2000/svg">
<rect width="360" height="309" fill="#48F88B" fill-opacity="0.1"/>
<mask id="path-1-inside-1_324_12371" fill="white">
<path d="M64 97C64 69.3858 86.3858 47 114 47H253C280.614 47 303 69.3858 303 97V309H64V97Z"/>
</mask>
<path d="M64 97C64 69.3858 86.3858 47 114 47H253C280.614 47 303 69.3858 303 97V309H64V97Z" fill="white"/>
<path d="M63 97C63 68.8335 85.8335 46 114 46H253C281.167 46 304 68.8335 304 97H302C302 69.938 280.062 48 253 48H114C86.938 48 65 69.938 65 97H63ZM303 309H64H303ZM63 309V97C63 68.8335 85.8335 46 114 46V48C86.938 48 65 69.938 65 97V309H63ZM253 46C281.167 46 304 68.8335 304 97V309H302V97C302 69.938 280.062 48 253 48V46Z" fill="black" mask="url(#path-1-inside-1_324_12371)"/>
<path d="M166.527 268.108C165.591 268.108 164.691 267.958 163.827 267.658C162.975 267.346 162.315 266.95 161.847 266.47L162.369 265.444C162.813 265.876 163.407 266.242 164.151 266.542C164.907 266.83 165.699 266.974 166.527 266.974C167.319 266.974 167.961 266.878 168.453 266.686C168.957 266.482 169.323 266.212 169.551 265.876C169.791 265.54 169.911 265.168 169.911 264.76C169.911 264.268 169.767 263.872 169.479 263.572C169.203 263.272 168.837 263.038 168.381 262.87C167.925 262.69 167.421 262.534 166.869 262.402C166.317 262.27 165.765 262.132 165.213 261.988C164.661 261.832 164.151 261.628 163.683 261.376C163.227 261.124 162.855 260.794 162.567 260.386C162.291 259.966 162.153 259.42 162.153 258.748C162.153 258.124 162.315 257.554 162.639 257.038C162.975 256.51 163.485 256.09 164.169 255.778C164.853 255.454 165.729 255.292 166.797 255.292C167.505 255.292 168.207 255.394 168.903 255.598C169.599 255.79 170.199 256.06 170.703 256.408L170.253 257.47C169.713 257.11 169.137 256.846 168.525 256.678C167.925 256.51 167.343 256.426 166.779 256.426C166.023 256.426 165.399 256.528 164.907 256.732C164.415 256.936 164.049 257.212 163.809 257.56C163.581 257.896 163.467 258.28 163.467 258.712C163.467 259.204 163.605 259.6 163.881 259.9C164.169 260.2 164.541 260.434 164.997 260.602C165.465 260.77 165.975 260.92 166.527 261.052C167.079 261.184 167.625 261.328 168.165 261.484C168.717 261.64 169.221 261.844 169.677 262.096C170.145 262.336 170.517 262.66 170.793 263.068C171.081 263.476 171.225 264.01 171.225 264.67C171.225 265.282 171.057 265.852 170.721 266.38C170.385 266.896 169.869 267.316 169.173 267.64C168.489 267.952 167.607 268.108 166.527 268.108ZM177.781 268.09C176.845 268.09 176.005 267.886 175.261 267.478C174.529 267.058 173.953 266.488 173.533 265.768C173.113 265.036 172.903 264.202 172.903 263.266C172.903 262.318 173.113 261.484 173.533 260.764C173.953 260.044 174.529 259.48 175.261 259.072C176.005 258.664 176.845 258.46 177.781 258.46C178.585 258.46 179.311 258.616 179.959 258.928C180.607 259.24 181.117 259.708 181.489 260.332L180.535 260.98C180.211 260.5 179.809 260.146 179.329 259.918C178.849 259.69 178.327 259.576 177.763 259.576C177.091 259.576 176.485 259.732 175.945 260.044C175.405 260.344 174.979 260.77 174.667 261.322C174.355 261.874 174.199 262.522 174.199 263.266C174.199 264.01 174.355 264.658 174.667 265.21C174.979 265.762 175.405 266.194 175.945 266.506C176.485 266.806 177.091 266.956 177.763 266.956C178.327 266.956 178.849 266.842 179.329 266.614C179.809 266.386 180.211 266.038 180.535 265.57L181.489 266.218C181.117 266.83 180.607 267.298 179.959 267.622C179.311 267.934 178.585 268.09 177.781 268.09ZM189.922 268V265.912L189.868 265.57V262.078C189.868 261.274 189.64 260.656 189.184 260.224C188.74 259.792 188.074 259.576 187.186 259.576C186.574 259.576 185.992 259.678 185.44 259.882C184.888 260.086 184.42 260.356 184.036 260.692L183.46 259.738C183.94 259.33 184.516 259.018 185.188 258.802C185.86 258.574 186.568 258.46 187.312 258.46C188.536 258.46 189.478 258.766 190.138 259.378C190.81 259.978 191.146 260.896 191.146 262.132V268H189.922ZM186.664 268.09C185.956 268.09 185.338 267.976 184.81 267.748C184.294 267.508 183.898 267.184 183.622 266.776C183.346 266.356 183.208 265.876 183.208 265.336C183.208 264.844 183.322 264.4 183.55 264.004C183.79 263.596 184.174 263.272 184.702 263.032C185.242 262.78 185.962 262.654 186.862 262.654H190.12V263.608H186.898C185.986 263.608 185.35 263.77 184.99 264.094C184.642 264.418 184.468 264.82 184.468 265.3C184.468 265.84 184.678 266.272 185.098 266.596C185.518 266.92 186.106 267.082 186.862 267.082C187.582 267.082 188.2 266.92 188.716 266.596C189.244 266.26 189.628 265.78 189.868 265.156L190.156 266.038C189.916 266.662 189.496 267.16 188.896 267.532C188.308 267.904 187.564 268.09 186.664 268.09ZM199.441 258.46C200.209 258.46 200.881 258.61 201.457 258.91C202.045 259.198 202.501 259.642 202.825 260.242C203.161 260.842 203.329 261.598 203.329 262.51V268H202.051V262.636C202.051 261.64 201.799 260.89 201.295 260.386C200.803 259.87 200.107 259.612 199.207 259.612C198.535 259.612 197.947 259.75 197.443 260.026C196.951 260.29 196.567 260.68 196.291 261.196C196.027 261.7 195.895 262.312 195.895 263.032V268H194.617V258.55H195.841V261.142L195.643 260.656C195.943 259.972 196.423 259.438 197.083 259.054C197.743 258.658 198.529 258.46 199.441 258.46Z" fill="#383838"/>
<path d="M25.2679 38.16C24.1746 38.16 23.1946 37.88 22.3279 37.32C21.4746 36.76 20.7946 35.9467 20.2879 34.88C19.7946 33.8133 19.5479 32.52 19.5479 31C19.5479 29.48 19.7946 28.1867 20.2879 27.12C20.7946 26.0533 21.4746 25.24 22.3279 24.68C23.1946 24.12 24.1746 23.84 25.2679 23.84C26.3479 23.84 27.3212 24.12 28.1879 24.68C29.0546 25.24 29.7346 26.0533 30.2279 27.12C30.7212 28.1867 30.9679 29.48 30.9679 31C30.9679 32.52 30.7212 33.8133 30.2279 34.88C29.7346 35.9467 29.0546 36.76 28.1879 37.32C27.3212 37.88 26.3479 38.16 25.2679 38.16ZM25.2679 36.38C26.0012 36.38 26.6412 36.18 27.1879 35.78C27.7479 35.38 28.1812 34.78 28.4879 33.98C28.8079 33.18 28.9679 32.1867 28.9679 31C28.9679 29.8133 28.8079 28.82 28.4879 28.02C28.1812 27.22 27.7479 26.62 27.1879 26.22C26.6412 25.82 26.0012 25.62 25.2679 25.62C24.5346 25.62 23.8879 25.82 23.3279 26.22C22.7679 26.62 22.3279 27.22 22.0079 28.02C21.7012 28.82 21.5479 29.8133 21.5479 31C21.5479 32.1867 21.7012 33.18 22.0079 33.98C22.3279 34.78 22.7679 35.38 23.3279 35.78C23.8879 36.18 24.5346 36.38 25.2679 36.38ZM32.6677 38V36.64L38.3677 31.14C38.8744 30.66 39.2477 30.24 39.4877 29.88C39.7411 29.5067 39.9077 29.1667 39.9877 28.86C40.0811 28.54 40.1277 28.2333 40.1277 27.94C40.1277 27.22 39.8744 26.6533 39.3677 26.24C38.8611 25.8267 38.1211 25.62 37.1477 25.62C36.4011 25.62 35.7277 25.7467 35.1277 26C34.5277 26.24 34.0077 26.62 33.5677 27.14L32.2077 25.96C32.7411 25.28 33.4544 24.76 34.3477 24.4C35.2544 24.0267 36.2477 23.84 37.3277 23.84C38.3011 23.84 39.1477 24 39.8677 24.32C40.5877 24.6267 41.1411 25.0733 41.5277 25.66C41.9277 26.2467 42.1277 26.94 42.1277 27.74C42.1277 28.1933 42.0677 28.64 41.9477 29.08C41.8277 29.52 41.6011 29.9867 41.2677 30.48C40.9344 30.9733 40.4544 31.5267 39.8277 32.14L34.7477 37.04L34.2677 36.26H42.7277V38H32.6677Z" fill="#6A6A6A"/>
<path d="M244.896 97.2471H115.307V229.716H244.896V97.2471Z" fill="#008E7C"/>
<path d="M128.266 110.487V136.411H153.626V110.487H128.266ZM148.805 131.484H133.086V115.415H148.805V131.484Z" fill="white"/>
<path d="M145.294 119.004H136.59V127.902H145.294V119.004Z" fill="white"/>
<path d="M128.266 190.287V216.211H153.626V190.287H128.266ZM148.805 211.283H133.086V195.214H148.805V211.283Z" fill="white"/>
<path d="M145.294 198.801H136.59V207.699H145.294V198.801Z" fill="white"/>
<path d="M206.577 190.008V215.919H231.937V190.008H206.577ZM227.116 210.992H211.396V194.924H227.116V210.992Z" fill="white"/>
<path d="M223.612 198.514H214.907V207.413H223.612V198.514Z" fill="white"/>
<path d="M167.427 150.52V176.444H192.775V150.52H167.427ZM187.967 171.517H172.235V155.448H187.967V171.517Z" fill="white"/>
<path d="M184.453 159.032H175.749V167.93H184.453V159.032Z" fill="white"/>
<path d="M231.937 110.494H165.834V119.004H231.937V110.494Z" fill="white"/>
<path d="M231.937 178.066V110.494H223.612V178.066H231.937Z" fill="white"/>
<path d="M200.822 209.586H160.763V215.921H200.822V209.586Z" fill="white"/>
<path d="M200.569 199.824H178.131V206.159H200.569V199.824Z" fill="white"/>
<path d="M133.083 140.719H128.266V180.892H133.083V140.719Z" fill="white"/>
<path d="M152.65 146.141H133.083V150.524H152.65V146.141Z" fill="white"/>
<path d="M152.65 161.972H133.083V167.932H152.65V161.972Z" fill="white"/>
<path d="M164.003 129.852H157.524V136.475H164.003V129.852Z" fill="white"/>
<path d="M165.834 119.004H159.355V125.627H165.834V119.004Z" fill="white"/>
<path d="M180.793 129.852H174.313V136.475H180.793V129.852Z" fill="white"/>
<path d="M152.649 150.523H146.17V157.146H152.649V150.523Z" fill="white"/>
<path d="M152.649 167.097H146.17V173.72H152.649V167.097Z" fill="white"/>
<path d="M146.17 174.268H139.691V180.891H146.17V174.268Z" fill="white"/>
<path d="M167.243 190.293H160.763V196.916H167.243V190.293Z" fill="white"/>
<path d="M200.822 190.004H194.343V196.627H200.822V190.004Z" fill="white"/>
<path d="M184.032 182.402H177.553V189.025H184.032V182.402Z" fill="white"/>
<path d="M187.693 193.316H181.214V199.939H187.693V193.316Z" fill="white"/>
<path d="M173.722 196.629H167.243V203.252H173.722V196.629Z" fill="white"/>
<path d="M164.003 174.754H157.524V181.377H164.003V174.754Z" fill="white"/>
<path d="M164.003 153.834H157.524V160.457H164.003V153.834Z" fill="white"/>
<path d="M170.482 136.477H164.003V143.1H170.482V136.477Z" fill="white"/>
<path d="M164.003 142.828H157.524V149.451H164.003V142.828Z" fill="white"/>
<path d="M223.612 178.066H217.133V184.689H223.612V178.066Z" fill="white"/>
<path d="M217.133 171.442H210.653V178.065H217.133V171.442Z" fill="white"/>
<path d="M210.653 164.894H204.174V171.517H210.653V164.894Z" fill="white"/>
<path d="M204.062 158.27H197.583V164.893H204.062V158.27Z" fill="white"/>
<path d="M204.062 131.775H197.583V138.398H204.062V131.775Z" fill="white"/>
<path d="M144.511 139.518H138.032V146.141H144.511V139.518Z" fill="white"/>
<path d="M139.562 153.618H133.083V160.241H139.562V153.618Z" fill="white"/>
<path d="M186.58 139.788H180.101V146.411H186.58V139.788Z" fill="white"/>
<path d="M199.539 139.788H193.06V146.411H199.539V139.788Z" fill="white"/>
<path d="M193.06 139.788H186.581V146.411H193.06V139.788Z" fill="white"/>
<path d="M191.103 118.529H184.624V125.152H191.103V118.529Z" fill="white"/>
<path d="M204.062 118.529H197.583V125.152H204.062V118.529Z" fill="white"/>
<path d="M217.021 118.529H210.542V125.152H217.021V118.529Z" fill="white"/>
<path d="M217.021 131.775H210.542V138.398H217.021V131.775Z" fill="white"/>
<path d="M217.021 145.022H210.542V151.645H217.021V145.022Z" fill="white"/>
<path d="M217.021 158.27H210.542V164.893H217.021V158.27Z" fill="white"/>
<path d="M204.173 171.517H197.694V178.14H204.173V171.517Z" fill="white"/>
<path d="M257.855 110.494V84H231.937" stroke="#1C1B1E" stroke-width="0.861" stroke-miterlimit="10" stroke-linecap="round" stroke-linejoin="round"/>
<path d="M257.855 216.469V242.963H231.937" stroke="#1C1B1E" stroke-width="0.861" stroke-miterlimit="10" stroke-linecap="round" stroke-linejoin="round"/>
<path d="M102.348 216.469V242.963H128.266" stroke="#1C1B1E" stroke-width="0.861" stroke-miterlimit="10" stroke-linecap="round" stroke-linejoin="round"/>
<path d="M102.348 110.494V84H128.266" stroke="#1C1B1E" stroke-width="0.861" stroke-miterlimit="10" stroke-linecap="round" stroke-linejoin="round"/>
<path d="M264.336 147.806H95.8696V150.455H264.336V147.806Z" fill="#EA134B"/>
</svg>
