<svg width="360" height="309" viewBox="0 0 360 309" fill="none" xmlns="http://www.w3.org/2000/svg">
<rect width="360" height="309" fill="#48F88B" fill-opacity="0.1"/>
<mask id="path-1-inside-1_324_12439" fill="white">
<path d="M64 97C64 69.3858 86.3858 47 114 47H253C280.614 47 303 69.3858 303 97V309H64V97Z"/>
</mask>
<path d="M64 97C64 69.3858 86.3858 47 114 47H253C280.614 47 303 69.3858 303 97V309H64V97Z" fill="white"/>
<path d="M63 97C63 68.8335 85.8335 46 114 46H253C281.167 46 304 68.8335 304 97H302C302 69.938 280.062 48 253 48H114C86.938 48 65 69.938 65 97H63ZM303 309H64H303ZM63 309V97C63 68.8335 85.8335 46 114 46V48C86.938 48 65 69.938 65 97V309H63ZM253 46C281.167 46 304 68.8335 304 97V309H302V97C302 69.938 280.062 48 253 48V46Z" fill="black" mask="url(#path-1-inside-1_324_12439)"/>
<path d="M140.365 268L146.125 255.4H147.439L153.199 268H151.795L146.503 256.174H147.043L141.751 268H140.365ZM142.633 264.634L143.029 263.554H150.355L150.751 264.634H142.633ZM158.85 268.09C157.914 268.09 157.074 267.886 156.33 267.478C155.598 267.058 155.022 266.488 154.602 265.768C154.182 265.036 153.972 264.202 153.972 263.266C153.972 262.318 154.182 261.484 154.602 260.764C155.022 260.044 155.598 259.48 156.33 259.072C157.074 258.664 157.914 258.46 158.85 258.46C159.654 258.46 160.38 258.616 161.028 258.928C161.676 259.24 162.186 259.708 162.558 260.332L161.604 260.98C161.28 260.5 160.878 260.146 160.398 259.918C159.918 259.69 159.396 259.576 158.832 259.576C158.16 259.576 157.554 259.732 157.014 260.044C156.474 260.344 156.048 260.77 155.736 261.322C155.424 261.874 155.268 262.522 155.268 263.266C155.268 264.01 155.424 264.658 155.736 265.21C156.048 265.762 156.474 266.194 157.014 266.506C157.554 266.806 158.16 266.956 158.832 266.956C159.396 266.956 159.918 266.842 160.398 266.614C160.878 266.386 161.28 266.038 161.604 265.57L162.558 266.218C162.186 266.83 161.676 267.298 161.028 267.622C160.38 267.934 159.654 268.09 158.85 268.09ZM168.162 268.09C167.274 268.09 166.59 267.85 166.11 267.37C165.63 266.89 165.39 266.212 165.39 265.336V256.462H166.668V265.264C166.668 265.816 166.806 266.242 167.082 266.542C167.37 266.842 167.778 266.992 168.306 266.992C168.87 266.992 169.338 266.83 169.71 266.506L170.16 267.424C169.908 267.652 169.602 267.82 169.242 267.928C168.894 268.036 168.534 268.09 168.162 268.09ZM163.698 259.612V258.55H169.548V259.612H163.698ZM172.486 268V258.55H173.764V268H172.486ZM173.134 256.462C172.87 256.462 172.648 256.372 172.468 256.192C172.288 256.012 172.198 255.796 172.198 255.544C172.198 255.292 172.288 255.082 172.468 254.914C172.648 254.734 172.87 254.644 173.134 254.644C173.398 254.644 173.62 254.728 173.8 254.896C173.98 255.064 174.07 255.274 174.07 255.526C174.07 255.79 173.98 256.012 173.8 256.192C173.632 256.372 173.41 256.462 173.134 256.462ZM179.75 268L175.556 258.55H176.888L180.74 267.316H180.11L184.016 258.55H185.276L181.064 268H179.75ZM192.717 268V265.912L192.663 265.57V262.078C192.663 261.274 192.435 260.656 191.979 260.224C191.535 259.792 190.869 259.576 189.981 259.576C189.369 259.576 188.787 259.678 188.235 259.882C187.683 260.086 187.215 260.356 186.831 260.692L186.255 259.738C186.735 259.33 187.311 259.018 187.983 258.802C188.655 258.574 189.363 258.46 190.107 258.46C191.331 258.46 192.273 258.766 192.933 259.378C193.605 259.978 193.941 260.896 193.941 262.132V268H192.717ZM189.459 268.09C188.751 268.09 188.133 267.976 187.605 267.748C187.089 267.508 186.693 267.184 186.417 266.776C186.141 266.356 186.003 265.876 186.003 265.336C186.003 264.844 186.117 264.4 186.345 264.004C186.585 263.596 186.969 263.272 187.497 263.032C188.037 262.78 188.757 262.654 189.657 262.654H192.915V263.608H189.693C188.781 263.608 188.145 263.77 187.785 264.094C187.437 264.418 187.263 264.82 187.263 265.3C187.263 265.84 187.473 266.272 187.893 266.596C188.313 266.92 188.901 267.082 189.657 267.082C190.377 267.082 190.995 266.92 191.511 266.596C192.039 266.26 192.423 265.78 192.663 265.156L192.951 266.038C192.711 266.662 192.291 267.16 191.691 267.532C191.103 267.904 190.359 268.09 189.459 268.09ZM200.4 268.09C199.512 268.09 198.828 267.85 198.348 267.37C197.868 266.89 197.628 266.212 197.628 265.336V256.462H198.906V265.264C198.906 265.816 199.044 266.242 199.32 266.542C199.608 266.842 200.016 266.992 200.544 266.992C201.108 266.992 201.576 266.83 201.948 266.506L202.398 267.424C202.146 267.652 201.84 267.82 201.48 267.928C201.132 268.036 200.772 268.09 200.4 268.09ZM195.936 259.612V258.55H201.786V259.612H195.936ZM208.404 268.09C207.42 268.09 206.556 267.886 205.812 267.478C205.068 267.058 204.486 266.488 204.066 265.768C203.646 265.036 203.436 264.202 203.436 263.266C203.436 262.33 203.634 261.502 204.03 260.782C204.438 260.062 204.99 259.498 205.686 259.09C206.394 258.67 207.186 258.46 208.062 258.46C208.95 258.46 209.736 258.664 210.42 259.072C211.116 259.468 211.662 260.032 212.058 260.764C212.454 261.484 212.652 262.318 212.652 263.266C212.652 263.326 212.646 263.392 212.634 263.464C212.634 263.524 212.634 263.59 212.634 263.662H204.408V262.708H211.95L211.446 263.086C211.446 262.402 211.296 261.796 210.996 261.268C210.708 260.728 210.312 260.308 209.808 260.008C209.304 259.708 208.722 259.558 208.062 259.558C207.414 259.558 206.832 259.708 206.316 260.008C205.8 260.308 205.398 260.728 205.11 261.268C204.822 261.808 204.678 262.426 204.678 263.122V263.32C204.678 264.04 204.834 264.676 205.146 265.228C205.47 265.768 205.914 266.194 206.478 266.506C207.054 266.806 207.708 266.956 208.44 266.956C209.016 266.956 209.55 266.854 210.042 266.65C210.546 266.446 210.978 266.134 211.338 265.714L212.058 266.542C211.638 267.046 211.11 267.43 210.474 267.694C209.85 267.958 209.16 268.09 208.404 268.09ZM219.016 268.09C218.116 268.09 217.306 267.886 216.586 267.478C215.878 267.07 215.32 266.506 214.912 265.786C214.504 265.054 214.3 264.214 214.3 263.266C214.3 262.306 214.504 261.466 214.912 260.746C215.32 260.026 215.878 259.468 216.586 259.072C217.306 258.664 218.116 258.46 219.016 258.46C219.844 258.46 220.582 258.646 221.23 259.018C221.89 259.39 222.412 259.936 222.796 260.656C223.192 261.364 223.39 262.234 223.39 263.266C223.39 264.286 223.198 265.156 222.814 265.876C222.43 266.596 221.908 267.148 221.248 267.532C220.6 267.904 219.856 268.09 219.016 268.09ZM219.106 266.956C219.778 266.956 220.378 266.806 220.906 266.506C221.446 266.194 221.866 265.762 222.166 265.21C222.478 264.646 222.634 263.998 222.634 263.266C222.634 262.522 222.478 261.874 222.166 261.322C221.866 260.77 221.446 260.344 220.906 260.044C220.378 259.732 219.778 259.576 219.106 259.576C218.446 259.576 217.852 259.732 217.324 260.044C216.796 260.344 216.376 260.77 216.064 261.322C215.752 261.874 215.596 262.522 215.596 263.266C215.596 263.998 215.752 264.646 216.064 265.21C216.376 265.762 216.796 266.194 217.324 266.506C217.852 266.806 218.446 266.956 219.106 266.956ZM222.67 268V265.156L222.796 263.248L222.616 261.34V254.644H223.894V268H222.67Z" fill="#383838"/>
<path d="M194.53 126.481L178.162 143.251L171.867 136.816C171.525 136.408 171.104 136.076 170.631 135.842C170.158 135.608 169.642 135.476 169.117 135.456C168.591 135.435 168.067 135.525 167.578 135.722C167.088 135.918 166.643 136.215 166.272 136.595C165.9 136.975 165.609 137.43 165.417 137.93C165.225 138.431 165.137 138.966 165.157 139.503C165.177 140.04 165.306 140.567 165.535 141.051C165.764 141.535 166.088 141.965 166.488 142.315L175.453 151.519C175.81 151.88 176.233 152.166 176.698 152.36C177.162 152.555 177.66 152.653 178.162 152.65C179.163 152.646 180.122 152.239 180.833 151.519L199.909 132.019C200.267 131.656 200.55 131.225 200.744 130.75C200.938 130.275 201.038 129.765 201.038 129.25C201.038 128.735 200.938 128.225 200.744 127.75C200.55 127.275 200.267 126.844 199.909 126.481C199.194 125.755 198.227 125.347 197.219 125.347C196.211 125.347 195.244 125.755 194.53 126.481ZM184.152 100C176.606 100 169.23 102.287 162.956 106.573C156.682 110.858 151.792 116.949 148.904 124.075C146.017 131.202 145.261 139.043 146.733 146.609C148.205 154.174 151.839 161.123 157.175 166.577C162.51 172.031 169.308 175.746 176.709 177.251C184.11 178.755 191.781 177.983 198.752 175.031C205.724 172.079 211.682 167.081 215.875 160.667C220.067 154.254 222.304 146.713 222.304 139C222.304 133.878 221.318 128.807 219.4 124.075C217.483 119.344 214.673 115.044 211.13 111.423C207.587 107.801 203.381 104.929 198.752 102.969C194.124 101.009 189.162 100 184.152 100ZM184.152 170.2C178.116 170.2 172.214 168.37 167.195 164.942C162.176 161.514 158.264 156.641 155.954 150.94C153.644 145.239 153.039 138.965 154.217 132.913C155.395 126.861 158.302 121.302 162.57 116.938C166.839 112.575 172.277 109.603 178.198 108.399C184.118 107.196 190.255 107.814 195.832 110.175C201.409 112.536 206.176 116.535 209.53 121.666C212.884 126.797 214.674 132.829 214.674 139C214.674 147.275 211.458 155.211 205.734 161.062C200.01 166.913 192.247 170.2 184.152 170.2Z" fill="#008E7C"/>
<path d="M25.3851 38.16C24.2917 38.16 23.3117 37.88 22.4451 37.32C21.5917 36.76 20.9117 35.9467 20.4051 34.88C19.9117 33.8133 19.6651 32.52 19.6651 31C19.6651 29.48 19.9117 28.1867 20.4051 27.12C20.9117 26.0533 21.5917 25.24 22.4451 24.68C23.3117 24.12 24.2917 23.84 25.3851 23.84C26.4651 23.84 27.4384 24.12 28.3051 24.68C29.1717 25.24 29.8517 26.0533 30.3451 27.12C30.8384 28.1867 31.0851 29.48 31.0851 31C31.0851 32.52 30.8384 33.8133 30.3451 34.88C29.8517 35.9467 29.1717 36.76 28.3051 37.32C27.4384 37.88 26.4651 38.16 25.3851 38.16ZM25.3851 36.38C26.1184 36.38 26.7584 36.18 27.3051 35.78C27.8651 35.38 28.2984 34.78 28.6051 33.98C28.9251 33.18 29.0851 32.1867 29.0851 31C29.0851 29.8133 28.9251 28.82 28.6051 28.02C28.2984 27.22 27.8651 26.62 27.3051 26.22C26.7584 25.82 26.1184 25.62 25.3851 25.62C24.6517 25.62 24.0051 25.82 23.4451 26.22C22.8851 26.62 22.4451 27.22 22.1251 28.02C21.8184 28.82 21.6651 29.8133 21.6651 31C21.6651 32.1867 21.8184 33.18 22.1251 33.98C22.4451 34.78 22.8851 35.38 23.4451 35.78C24.0051 36.18 24.6517 36.38 25.3851 36.38ZM37.0896 38.16C36.1029 38.16 35.1429 38.0067 34.2096 37.7C33.2896 37.3933 32.5363 36.98 31.9496 36.46L32.8696 34.88C33.3363 35.32 33.9429 35.68 34.6896 35.96C35.4363 36.24 36.2363 36.38 37.0896 36.38C38.1296 36.38 38.9363 36.16 39.5096 35.72C40.0963 35.2667 40.3896 34.66 40.3896 33.9C40.3896 33.1667 40.1096 32.58 39.5496 32.14C39.0029 31.6867 38.1296 31.46 36.9296 31.46H35.8096V30.06L39.9696 24.94L40.2496 25.74H32.5896V24H41.8296V25.36L37.6896 30.46L36.6496 29.84H37.3096C39.0029 29.84 40.2696 30.22 41.1096 30.98C41.9629 31.74 42.3896 32.7067 42.3896 33.88C42.3896 34.6667 42.1963 35.3867 41.8096 36.04C41.4229 36.6933 40.8363 37.2133 40.0496 37.6C39.2763 37.9733 38.2896 38.16 37.0896 38.16Z" fill="#6A6A6A"/>
</svg>
