<svg width="52" height="51" viewBox="0 0 52 51" fill="none" xmlns="http://www.w3.org/2000/svg">
<g clip-path="url(#clip0_177_3520)">
<path d="M25.0927 39.6393C22.61 43.0905 17.8938 44.0579 14.2529 41.8626C12.0715 40.4645 10.7162 38.0839 10.6274 35.4945C10.598 33.5801 11.2247 31.7133 12.4033 30.2044L16.9282 24.1449C17.8495 22.9116 17.5969 21.1649 16.3639 20.2432C15.1305 19.3218 13.3838 19.5745 12.4621 20.8075L8.03298 26.7368C6.00175 29.3544 4.95157 32.6008 5.06491 35.9121C5.4579 43.3504 11.8063 49.0618 19.2445 48.6688C23.239 48.4578 26.9338 46.4844 29.3306 43.282L34.064 36.95C34.9853 35.7167 34.7327 33.97 33.4996 33.0483C32.2663 32.1269 30.5196 32.3796 29.5979 33.6126L25.0927 39.6393Z" fill="#3E8C7C"/>
<path d="M40.0479 3.4536C33.9707 0.212074 26.4338 1.94821 22.3872 7.52181L17.9328 13.4848C17.0115 14.7181 17.2641 16.4648 18.4972 17.3865C19.7305 18.3079 21.4772 18.0552 22.3989 16.8222L26.9251 10.7718C29.3547 7.40369 33.9291 6.40225 37.5436 8.44713C41.2865 10.7068 42.4888 15.5728 40.2291 19.3157C40.0969 19.5347 39.9541 19.7472 39.8012 19.9524L35.0681 26.2863C34.1468 27.5196 34.3994 29.2663 35.6324 30.188C36.8658 31.1094 38.6125 30.8567 39.5342 29.6237L44.2673 23.2898C48.7209 17.3102 47.4838 8.85256 41.5042 4.39902C41.0396 4.05299 40.5532 3.73723 40.0479 3.4536Z" fill="#3E8C7C"/>
<path d="M20.0983 28.4562L27.4316 18.6427C28.3534 17.4092 30.1005 17.1565 31.334 18.0782C32.5675 19 32.8202 20.7471 31.8984 21.9806L24.5651 31.7941C23.6433 33.0276 21.8962 33.2803 20.6627 32.3585C19.4292 31.4368 19.1765 29.6897 20.0983 28.4562Z" fill="#3E8C7C"/>
</g>
<defs>
<clipPath id="clip0_177_3520">
<rect width="44.601" height="44.601" fill="white" transform="translate(0.736816 6.38477) rotate(-8.23021)"/>
</clipPath>
</defs>
</svg>
