<svg width="186" height="275" viewBox="0 0 186 275" fill="none" xmlns="http://www.w3.org/2000/svg">
<g clip-path="url(#clip0_1795_13528)">
<path d="M162.562 274.411H75.4272C62.505 274.411 51.9922 263.899 51.9922 250.976V23.4349C51.9922 10.5127 62.505 -6.10352e-05 75.4272 -6.10352e-05H162.562C175.484 -6.10352e-05 185.997 10.5127 185.997 23.4349V250.976C185.997 263.899 175.484 274.411 162.562 274.411ZM75.4272 0.902326C63.0013 0.902326 52.8946 11.0091 52.8946 23.4349V250.976C52.8946 263.402 63.0013 273.509 75.4272 273.509H162.562C174.988 273.509 185.094 263.402 185.094 250.976V23.4349C185.094 11.0091 174.988 0.902326 162.562 0.902326H75.4272Z" fill="#DEDFE0"/>
<path d="M131.332 21.3685H106.656C103.399 21.3685 100.75 18.72 100.75 15.4624C100.75 12.2048 103.399 9.55627 106.656 9.55627H131.332C134.59 9.55627 137.238 12.2048 137.238 15.4624C137.238 18.72 134.59 21.3685 131.332 21.3685Z" fill="#DADBDC"/>
<path d="M97.0427 273.938C97.0427 274.181 96.8442 274.38 96.6005 274.38H0.44217C0.198525 274.38 0 274.181 0 273.938C0 273.694 0.198525 273.495 0.44217 273.495H96.6005C96.8442 273.495 97.0427 273.694 97.0427 273.938Z" fill="#3F3D58"/>
<path d="M53.7656 137.212L62.6316 140.127V127.367H54.5868L53.7656 137.212Z" fill="#F6AAAE"/>
<path d="M61.5219 130.9C66.401 130.9 70.3562 126.945 70.3562 122.066C70.3562 117.187 66.401 113.231 61.5219 113.231C56.6428 113.231 52.6875 117.187 52.6875 122.066C52.6875 126.945 56.6428 130.9 61.5219 130.9Z" fill="#F6AAAE"/>
<path d="M59.2819 122.756L60.5001 124.236L62.7019 120.383C62.7019 120.383 65.5129 120.527 65.5129 118.443C65.5129 116.358 68.0937 116.3 68.0937 116.3C68.0937 116.3 71.7439 109.924 64.1818 111.603C64.1818 111.603 58.9345 108.007 56.3266 111.079C56.3266 111.079 48.3269 115.108 50.6145 122.125L54.418 129.353L55.2798 127.715C55.2798 127.715 54.7564 120.843 59.2819 122.756Z" fill="#2F2E43"/>
<path d="M58.4582 258.123H51.3203V268.248H58.4582V258.123Z" fill="#F6AAAE"/>
<path d="M57.6762 274.05C56.4534 274.163 50.3488 274.641 50.042 273.243C49.7622 271.957 50.1728 270.612 50.2315 270.432C50.818 264.593 51.0346 264.526 51.1654 264.485C51.373 264.426 51.9821 264.711 52.9657 265.347L53.0289 265.387L53.0424 265.46C53.0604 265.55 53.4981 267.693 55.5646 267.368C56.9813 267.143 57.4415 266.831 57.5904 266.678C57.4686 266.624 57.3197 266.529 57.2159 266.362C57.0625 266.123 57.0355 265.816 57.1347 265.451C57.4009 264.481 58.1995 263.046 58.2311 262.987L58.3214 262.825L66.4338 268.298L71.4421 269.728C71.8211 269.836 72.1234 270.107 72.2768 270.468C72.4888 270.973 72.358 271.56 71.9519 271.925C71.0405 272.742 69.2357 274.145 67.3362 274.317C66.8309 274.362 66.1631 274.38 65.4141 274.38C62.2783 274.38 57.7078 274.055 57.6717 274.05L57.6762 274.05Z" fill="#2F2E43"/>
<path d="M36.2038 242.918L29.75 250.719L35.2499 255.269L41.7036 247.468L36.2038 242.918Z" fill="#F6AAAE"/>
<path d="M30.9435 259.247C29.9328 258.552 24.9201 255.033 25.5743 253.76C26.1789 252.592 27.352 251.82 27.5144 251.716C31.688 247.592 31.9 247.678 32.0264 247.732C32.2249 247.818 32.5091 248.427 32.8656 249.542L32.8881 249.609L32.852 249.672C32.8069 249.754 31.7782 251.685 33.5785 252.75C34.8147 253.481 35.3697 253.53 35.5772 253.508C35.5186 253.39 35.4644 253.219 35.487 253.025C35.5186 252.745 35.6946 252.488 36.0104 252.271C36.8361 251.694 38.3611 251.098 38.4288 251.071L38.6002 251.003L41.3615 260.393L44.3078 264.688C44.5289 265.013 44.5921 265.415 44.4793 265.794C44.3214 266.317 43.8476 266.687 43.2972 266.71C42.0744 266.759 39.7914 266.687 38.2167 265.609C37.8016 265.324 37.2737 264.914 36.6962 264.436C34.2823 262.437 30.966 259.274 30.939 259.247L30.9435 259.247Z" fill="#2F2E43"/>
<path d="M70.2708 180.035H45.7891L51.2305 260.961H59.3925L70.2753 180.035L70.2708 180.035Z" fill="#2F2E43"/>
<path d="M65.2791 184.493L70.2647 180.035L67.7696 224.541L39.8859 251.062L32.9375 245.318L49.1805 224.239L65.2791 184.493Z" fill="#2F2E43"/>
<path d="M65.2812 132.43L53.1892 130.467L49.4353 137.032C44.6616 145.379 42.717 155.044 43.8856 164.586L45.7851 180.04H70.2669L65.2812 132.434L65.2812 132.43Z" fill="#DADBDC"/>
<path d="M55.4601 194.604C55.961 197.099 55.027 199.378 53.3801 199.694C51.7288 200.005 49.9872 198.236 49.4863 195.737C49.2743 194.74 49.3104 193.711 49.5946 192.732L47.6094 182.124L52.7981 181.317L54.2013 191.861C54.842 192.669 55.2752 193.607 55.4601 194.609V194.604Z" fill="#F6AAAE"/>
<path d="M49.1519 191.73L41.5312 168.187V168.151L44.4099 143.908C44.852 140.195 48.0014 137.397 51.7372 137.397C54.0248 137.397 56.1454 138.431 57.5531 140.235C58.9609 142.04 59.4527 144.346 58.8977 146.57L53.8127 166.905L55.0264 189.984L49.1474 191.73L49.1519 191.73Z" fill="#DADBDC"/>
<path d="M92.7514 140.001C94.8675 151.303 105.746 158.752 117.053 156.632C120.473 155.991 123.541 154.547 126.095 152.53L151.813 180.27C153.387 181.966 156.072 181.962 157.642 180.256C159.108 178.664 159.027 176.191 157.457 174.698L129.979 148.51C133.282 144.025 134.789 138.237 133.684 132.331C131.568 121.028 120.689 113.579 109.382 115.7C98.0755 117.82 90.6308 128.694 92.7514 140.001ZM97.1911 139.171C95.5353 130.318 101.365 121.8 110.217 120.144C119.07 118.488 127.588 124.317 129.244 133.17C130.9 142.022 125.07 150.541 116.218 152.197C107.366 153.852 98.847 148.023 97.1911 139.171Z" fill="#007061"/>
</g>
<defs>
<clipPath id="clip0_1795_13528">
<rect width="186" height="274.411" fill="white"/>
</clipPath>
</defs>
</svg>
