<svg width="462" height="232" viewBox="0 0 462 232" fill="none" xmlns="http://www.w3.org/2000/svg">
<g clip-path="url(#clip0_1761_13385)">
<path d="M152.143 232C138.203 232 124.283 231.75 110.384 231.25C90.5248 230.535 69.9888 229.797 50.9014 219.192C37.549 211.774 25.7233 199.873 16.7032 184.774C10.6743 174.54 6.25369 163.438 3.59657 151.857C-1.35998 130.772 -1.19115 108.803 4.08886 87.7974C5.93917 80.5953 8.48997 73.5923 11.7046 66.8889C25.6243 38.0141 51.0127 18.6311 81.3603 13.7106C81.6109 13.678 81.8644 13.6726 82.1161 13.6944C82.2526 13.7017 82.3887 13.7095 82.5274 13.7037L82.7059 13.6469C83.1637 13.4875 83.6338 13.3666 84.1116 13.2855C130.916 6.30567 180.394 20.4284 227.195 54.1257C263.381 80.184 311.338 94.216 373.806 97.0235L374.693 97.07C392.082 98.0707 408.903 105.252 423.339 117.84C437.588 130.264 448.286 146.839 454.277 165.776C455.014 168.084 455.689 170.488 456.284 172.918C456.838 175.177 456.799 177.541 456.171 179.78C455.542 182.019 454.346 184.057 452.698 185.696V185.701L452.543 185.861C452.168 186.234 451.774 186.592 451.371 186.925L450.897 187.316C446.905 190.61 443.752 193.212 439.979 195.234C437.462 196.572 434.785 197.585 432.013 198.246C416.79 201.964 401.331 205.411 386.065 208.492C356.418 214.48 325.99 219.42 295.626 223.173C248.024 229.053 200.106 232.001 152.143 232ZM81.7612 14.7171C81.668 14.7162 81.5748 14.7225 81.4826 14.736C51.4187 19.6106 26.2706 38.8032 12.489 67.3923C9.30602 74.0292 6.78047 80.9628 4.94855 88.0935C-0.283346 108.913 -0.450072 130.687 4.4624 151.585C7.09351 163.055 11.4713 174.051 17.442 184.187C26.3738 199.138 38.0785 210.92 51.291 218.259C70.207 228.769 90.6462 229.504 110.412 230.215C172.234 232.428 234.134 229.729 295.531 222.144C325.875 218.393 356.283 213.456 385.911 207.472C401.166 204.394 416.614 200.949 431.827 197.233C434.532 196.589 437.145 195.601 439.601 194.295C443.298 192.314 446.421 189.737 450.375 186.474L450.849 186.083C451.195 185.797 451.535 185.49 451.861 185.172L451.954 185.074C455.203 181.793 456.467 177.465 455.42 173.2V173.199C454.832 170.794 454.164 168.417 453.435 166.132C441.196 127.449 409.534 100.111 374.65 98.104L373.768 98.0575C345.233 96.7748 320.263 93.2218 297.434 87.1944C270.182 79.9995 246.39 69.1688 226.719 55.0036C180.097 21.4354 130.826 7.36524 84.2259 14.312C83.7906 14.3872 83.3623 14.4984 82.9454 14.6445L82.6235 14.7347C82.4407 14.7429 82.2575 14.7407 82.075 14.7282C81.9674 14.7226 81.8631 14.7171 81.7612 14.7171Z" fill="#F0F0F0"/>
<path d="M144.311 75.5884C143.02 74.3481 141.7 67.4313 140.052 66.7291C141.284 69.4558 140.39 70.1776 140.383 73.1701C140.399 74.8693 140.201 76.5637 139.794 78.2133H111.883V56.3933C111.883 54.4327 112.268 52.4913 113.017 50.6799C113.766 48.8686 114.864 47.2227 116.248 45.8364C117.632 44.45 119.275 43.3503 121.083 42.6001C122.891 41.8498 124.829 41.4637 126.786 41.4637C127.533 41.4784 128.276 41.5872 128.996 41.7877C131.395 42.4365 133.581 43.7059 135.336 45.4685C137.09 47.231 138.352 49.4248 138.993 51.8298C141.12 59.6205 144.504 72.5887 144.311 75.5884Z" fill="#2F2E41"/>
<path d="M113.519 102.431L113.533 85.4237L103.553 86.3171L107.075 97.0437L105.427 124.005C104.627 124.185 103.897 124.594 103.326 125.182C102.754 125.77 102.366 126.512 102.208 127.318C102.05 128.123 102.13 128.957 102.437 129.718C102.744 130.479 103.266 131.134 103.938 131.603C104.61 132.072 105.404 132.335 106.223 132.36C107.042 132.385 107.851 132.17 108.55 131.743C109.25 131.315 109.81 130.693 110.163 129.952C110.515 129.211 110.645 128.384 110.536 127.57L113.519 102.431Z" fill="#FFB6B6"/>
<path d="M133.157 223.967L137.189 223.966L139.107 208.388H133.156L133.157 223.967Z" fill="#FFB6B6"/>
<path d="M131.796 221.974L138.17 221.593V224.329L144.229 228.521C144.529 228.728 144.754 229.025 144.873 229.37C144.991 229.714 144.997 230.088 144.889 230.436C144.78 230.783 144.564 231.087 144.271 231.303C143.978 231.519 143.624 231.636 143.26 231.636H135.672L134.364 228.93L133.853 231.636H130.992L131.796 221.974Z" fill="#2F2E41"/>
<path d="M109.844 223.967L113.877 223.966L115.794 208.388H109.844L109.844 223.967Z" fill="#FFB6B6"/>
<path d="M108.479 221.974L114.853 221.593V224.329L120.913 228.521C121.212 228.728 121.438 229.025 121.556 229.37C121.675 229.714 121.68 230.088 121.572 230.436C121.464 230.783 121.248 231.087 120.955 231.303C120.662 231.519 120.307 231.636 119.944 231.636H112.355L111.048 228.93L110.537 231.636H107.676L108.479 221.974Z" fill="#2F2E41"/>
<path d="M129.57 67.0572L121.217 67.2213L115.321 73.4556L110.595 74.15C108.456 74.4642 106.491 75.504 105.026 77.0957C103.561 78.6874 102.686 80.7345 102.547 82.8948L103.366 87.4007H108.279L111.121 104.118C110.016 106.94 109.941 109.166 112.21 110.041L119.252 123.33L140.052 113.979C141.106 112.162 141.444 110.337 140.366 108.563L141.853 82.9711H146.853C146.853 78.1846 145.237 74.1494 140.488 73.6168C138.602 73.4123 136.708 73.3038 134.811 73.2915L129.57 67.0572Z" fill="#E6E6E6"/>
<path d="M140.05 113.979C140.05 113.979 119.742 117.588 112.208 110.041C112.208 110.041 111.444 111.342 110.291 113.499C109.96 114.119 109.319 114.54 108.933 115.291C108.582 115.974 107.678 116.814 107.295 117.588C106.987 118.211 107.481 119.026 107.161 119.699C103.303 127.805 98.7951 139.24 99.7614 146.791C100.385 151.66 101.672 162.99 103.027 175.16C103.133 176.111 102.275 177.332 102.382 178.29C102.482 179.194 103.547 179.835 103.647 180.74C103.714 181.342 102.97 181.955 103.037 182.556C103.11 183.215 103.993 183.861 104.065 184.518C105.922 201.321 107.623 217.009 107.623 217.009H117.122L118.914 181.179L117.449 168.119L120.889 141.705L125.638 166.806L126.249 180.933L131.268 217.665H140.05V182.106L140.706 180.259L140.05 177.89L140.706 175.337L140.05 172.557V113.979Z" fill="#2F2E41"/>
<path d="M132.134 62.2051C130.84 63.9269 128.999 65.1558 126.915 65.6897C124.83 66.2235 122.627 66.0304 120.667 65.1421C118.707 64.2538 117.107 62.7233 116.131 60.8027C115.156 58.882 114.862 56.6858 115.299 54.5756C115.735 52.4654 116.877 50.5672 118.534 49.1934C120.192 47.8197 122.267 47.0524 124.418 47.0179C126.569 46.9835 128.668 47.6838 130.368 49.0037C132.069 50.3236 133.27 52.1843 133.774 54.2794C133.801 54.3931 133.824 54.5061 133.846 54.6235C134.113 55.9367 134.097 57.2915 133.802 58.5985C133.507 59.9054 132.938 61.1347 132.134 62.2051Z" fill="#FFB6B6"/>
<path d="M130.158 56.7935C129.957 55.7837 129.449 54.861 128.703 54.1521C128.777 55.1198 128.643 56.092 128.31 57.0035C125.82 57.2244 123.319 56.7281 121.101 55.5729C119.43 54.4376 117.304 54.536 114.828 55.5729C114.828 54.3664 115.065 53.1716 115.526 52.0569C115.987 50.9421 116.662 49.9293 117.514 49.0761C118.366 48.2229 119.377 47.5462 120.49 47.0845C121.602 46.6229 122.795 46.3853 124 46.3855H125.637C128.07 46.3859 130.402 47.354 132.122 49.0769C133.842 50.7998 134.808 53.1364 134.809 55.5729C133.297 56.116 131.741 56.5244 130.158 56.7935Z" fill="#2F2E41"/>
<path d="M58.5124 173.89C73.0642 173.89 84.8608 162.073 84.8608 147.496C84.8608 132.919 73.0642 121.102 58.5124 121.102C43.9606 121.102 32.1641 132.919 32.1641 147.496C32.1641 162.073 43.9606 173.89 58.5124 173.89Z" fill="#F0F0F0"/>
<path d="M226.415 52.7882C240.967 52.7882 252.763 40.9711 252.763 26.3941C252.763 11.817 240.967 0 226.415 0C211.863 0 200.066 11.817 200.066 26.3941C200.066 40.9711 211.863 52.7882 226.415 52.7882Z" fill="#F0F0F0"/>
<path d="M435.653 178.031C450.205 178.031 462.001 166.214 462.001 151.637C462.001 137.06 450.205 125.242 435.653 125.242C421.101 125.242 409.305 137.06 409.305 151.637C409.305 166.214 421.101 178.031 435.653 178.031Z" fill="#F0F0F0"/>
<path d="M273.943 29.2725V89.1229C273.943 90.3661 273.453 91.5591 272.581 92.4428C271.708 93.3265 270.522 93.8295 269.281 93.8424C269.264 93.8442 269.247 93.8449 269.229 93.8446H262.276C256.712 93.8446 251.376 91.6305 247.441 87.6894C243.507 83.7483 241.297 78.403 241.297 72.8295V29.2725C241.297 28.0202 241.793 26.8193 242.677 25.9338C243.561 25.0483 244.76 24.5508 246.01 24.5508H248.828C247.523 28.3654 265.239 29.9713 266.212 24.5508H269.229C270.479 24.5508 271.678 25.0483 272.562 25.9338C273.446 26.8193 273.943 28.0202 273.943 29.2725Z" fill="#007061"/>
<path d="M253.309 20.0755C253.309 19.9114 253.374 19.7541 253.49 19.6381C253.606 19.5221 253.763 19.4569 253.926 19.4567H258.127C258.29 19.4571 258.447 19.5225 258.562 19.6385C258.678 19.7545 258.743 19.9116 258.743 20.0755C258.743 20.2393 258.678 20.3964 258.562 20.5124C258.447 20.6284 258.29 20.6938 258.127 20.6942H253.926C253.763 20.694 253.606 20.6288 253.49 20.5128C253.374 20.3968 253.309 20.2395 253.309 20.0755Z" fill="#3F3D56"/>
<path d="M270.673 101.436H244.11C242.049 101.434 240.073 100.613 238.616 99.1528C237.159 97.6931 236.339 95.7138 236.337 93.6493V51.8115C236.191 51.7065 236.072 51.5683 235.99 51.4082C235.908 51.2481 235.866 51.0707 235.866 50.8909V46.6831C235.866 46.5033 235.908 46.326 235.99 46.1659C236.072 46.0059 236.191 45.8677 236.337 45.7628V44.6335C236.191 44.5286 236.072 44.3904 235.99 44.2304C235.908 44.0703 235.866 43.893 235.866 43.7132V39.5052C235.866 39.3253 235.908 39.148 235.99 38.988C236.072 38.8279 236.191 38.6897 236.337 38.5848V36.5438C236.156 36.4469 236.006 36.3028 235.901 36.1269C235.797 35.951 235.742 35.7499 235.742 35.5451V31.3374C235.742 31.1326 235.797 30.9314 235.901 30.7555C236.006 30.5796 236.156 30.4354 236.337 30.3384V24.7457C236.339 22.6812 237.159 20.702 238.616 19.2422C240.073 17.7824 242.049 16.9613 244.11 16.959H270.673C272.734 16.9613 274.71 17.7824 276.167 19.2422C277.624 20.702 278.444 22.6813 278.446 24.7457V36.9367C278.586 37.0245 278.702 37.1464 278.782 37.291C278.862 37.4357 278.904 37.5984 278.904 37.7638V45.7871C278.904 45.9525 278.862 46.1152 278.782 46.2599C278.702 46.4047 278.586 46.5266 278.446 46.6144V93.6493C278.444 95.7138 277.624 97.693 276.167 99.1528C274.71 100.613 272.734 101.434 270.673 101.436ZM244.11 17.994C242.323 17.996 240.61 18.708 239.346 19.9738C238.083 21.2395 237.372 22.9556 237.37 24.7457V31.2189L236.873 31.2381C236.847 31.239 236.822 31.2498 236.804 31.2683C236.786 31.2868 236.776 31.3115 236.775 31.3374V35.5451C236.776 35.5709 236.786 35.5956 236.804 35.6141C236.823 35.6326 236.847 35.6434 236.873 35.6444L237.37 35.6634V39.3116L236.977 39.4086C236.955 39.4139 236.936 39.4262 236.922 39.4437C236.907 39.4611 236.9 39.4827 236.899 39.5052V43.7131C236.9 43.7356 236.907 43.7572 236.922 43.7746C236.936 43.7921 236.955 43.8044 236.977 43.8097L237.37 43.9067V46.4895L236.977 46.5866C236.955 46.5918 236.936 46.6042 236.922 46.6216C236.907 46.6391 236.9 46.6607 236.899 46.6831V50.8909C236.9 50.9133 236.907 50.935 236.921 50.9525C236.936 50.97 236.955 50.9823 236.977 50.9876L237.37 51.0847V93.6493C237.372 95.4394 238.083 97.1555 239.346 98.4213C240.61 99.687 242.323 100.399 244.11 100.401H270.673C272.46 100.399 274.173 99.687 275.437 98.4212C276.7 97.1555 277.411 95.4394 277.413 93.6493V45.7282H277.871V37.823H277.413V24.7457C277.411 22.9557 276.7 21.2395 275.437 19.9738C274.173 18.7081 272.46 17.9961 270.673 17.994L244.11 17.994Z" fill="#3F3D56"/>
<path d="M260.473 20.6942C260.814 20.6942 261.091 20.4172 261.091 20.0755C261.091 19.7337 260.814 19.4567 260.473 19.4567C260.132 19.4567 259.855 19.7337 259.855 20.0755C259.855 20.4172 260.132 20.6942 260.473 20.6942Z" fill="#3F3D56"/>
<path d="M126.101 139.942H56.9816C56 139.939 55.0594 139.548 54.3652 138.852C53.6711 138.157 53.28 137.215 53.2773 136.232V102.494C53.2799 101.511 53.6709 100.569 54.3649 99.8736C55.0589 99.1782 55.9995 98.7864 56.9811 98.7838H126.1C127.082 98.7863 128.022 99.178 128.716 99.8732C129.411 100.568 129.802 101.511 129.804 102.494V136.231C129.802 137.215 129.411 138.157 128.717 138.852C128.023 139.547 127.082 139.939 126.101 139.942Z" fill="white"/>
<path d="M126.101 139.942H56.9816C56 139.939 55.0594 139.548 54.3652 138.852C53.6711 138.157 53.28 137.215 53.2773 136.232V102.494C53.2799 101.511 53.6709 100.569 54.3649 99.8736C55.0589 99.1782 55.9995 98.7864 56.9811 98.7838H126.1C127.082 98.7863 128.022 99.178 128.716 99.8732C129.411 100.568 129.802 101.511 129.804 102.494V136.231C129.802 137.215 129.411 138.157 128.717 138.852C128.023 139.547 127.082 139.939 126.101 139.942ZM56.9816 99.8188C56.2737 99.8209 55.5955 100.104 55.095 100.605C54.5946 101.106 54.3126 101.786 54.3106 102.495V136.231C54.3127 136.94 54.5948 137.62 55.0954 138.121C55.5959 138.622 56.2742 138.905 56.9821 138.907H126.1C126.808 138.905 127.486 138.622 127.986 138.121C128.487 137.619 128.769 136.94 128.771 136.231V102.494C128.769 101.785 128.487 101.106 127.986 100.605C127.486 100.103 126.807 99.8208 126.1 99.8188L56.9816 99.8188Z" fill="#3F3D56"/>
<path d="M95.2452 134.956C81.6134 134.956 67.3992 134.826 62.0957 134.741C61.3979 134.727 60.7334 134.439 60.244 133.941C59.7547 133.442 59.4793 132.772 59.4766 132.073V104.146C59.4768 103.896 59.5761 103.656 59.7526 103.478C59.9291 103.301 60.1685 103.201 60.4184 103.2H122.66C122.91 103.201 123.15 103.3 123.327 103.477C123.504 103.654 123.603 103.893 123.604 104.144V123.091C123.593 126.184 122.371 129.15 120.202 131.351C118.033 133.552 115.09 134.814 112.002 134.866C107.06 134.931 101.207 134.956 95.2452 134.956Z" fill="#007061"/>
<path d="M118.968 121.351H62.7275C62.2566 121.349 61.7975 121.203 61.4126 120.931C61.0277 120.659 60.7356 120.275 60.5762 119.832L54.2106 101.942C54.0879 101.597 54.0497 101.228 54.0991 100.865C54.1485 100.502 54.2841 100.156 54.4946 99.8568C54.705 99.5573 54.9842 99.3128 55.3085 99.1437C55.6329 98.9747 55.993 98.8861 56.3586 98.8854L126.658 98.7874C126.992 98.787 127.323 98.8601 127.626 99.0014C127.928 99.1428 128.197 99.349 128.411 99.6054C128.626 99.8619 128.782 100.162 128.868 100.486C128.955 100.809 128.969 101.148 128.91 101.477L128.965 101.5L128.763 101.972L128.761 101.977L121.066 119.964C120.89 120.376 120.598 120.727 120.225 120.973C119.852 121.22 119.415 121.351 118.968 121.351ZM126.661 99.8224L56.3606 99.9204C56.1603 99.9208 55.963 99.9693 55.7853 100.062C55.6077 100.154 55.4547 100.288 55.3394 100.452C55.2241 100.616 55.1498 100.806 55.1227 101.005C55.0957 101.203 55.1166 101.406 55.1838 101.595L61.5491 119.483C61.6366 119.726 61.7967 119.937 62.0077 120.086C62.2186 120.235 62.4702 120.315 62.7282 120.316H118.968C119.213 120.316 119.452 120.244 119.656 120.109C119.86 119.974 120.02 119.782 120.116 119.557L127.811 101.569C127.893 101.378 127.926 101.171 127.908 100.964C127.889 100.757 127.82 100.559 127.706 100.386C127.592 100.213 127.437 100.07 127.255 99.9721C127.072 99.8738 126.869 99.8224 126.661 99.8224Z" fill="#3F3D56"/>
<path d="M91.4351 125.245C93.8672 125.245 95.8389 123.27 95.8389 120.833C95.8389 118.397 93.8672 116.422 91.4351 116.422C89.0029 116.422 87.0312 118.397 87.0312 120.833C87.0312 123.27 89.0029 125.245 91.4351 125.245Z" fill="white"/>
<path d="M257.794 86.9474C260.227 86.9474 262.198 84.9723 262.198 82.536C262.198 80.0996 260.227 78.1245 257.794 78.1245C255.362 78.1245 253.391 80.0996 253.391 82.536C253.391 84.9723 255.362 86.9474 257.794 86.9474Z" fill="white"/>
<path d="M424.354 146.523L412.59 134.889C412.018 134.319 411.338 133.867 410.591 133.559C409.844 133.252 409.043 133.095 408.235 133.099H408.194C407.38 133.101 406.575 133.265 405.824 133.581C405.074 133.898 404.394 134.36 403.823 134.941C401.193 137.608 399.697 141.192 399.65 144.94C399.602 148.689 401.008 152.31 403.57 155.042C403.694 155.177 403.823 155.306 403.952 155.435C404.668 156.148 405.458 156.781 406.308 157.324C408.634 158.83 411.346 159.626 414.115 159.617H414.202C416.103 159.61 417.983 159.227 419.735 158.488C421.486 157.748 423.074 156.669 424.406 155.311C425.56 154.138 426.203 152.554 426.193 150.907C426.184 149.259 425.522 147.683 424.354 146.523ZM423.672 154.581C421.488 156.785 418.612 158.168 415.529 158.496C412.447 158.824 409.345 158.078 406.747 156.382C406.004 155.89 405.311 155.327 404.676 154.7C402.141 152.193 400.704 148.779 400.682 145.21C400.66 141.642 402.054 138.21 404.557 135.671C405.033 135.185 405.6 134.799 406.226 134.535C406.853 134.271 407.525 134.135 408.204 134.134H408.235C408.908 134.131 409.574 134.262 410.197 134.518C410.819 134.773 411.385 135.149 411.862 135.624L423.626 147.264C424.6 148.228 425.151 149.541 425.16 150.913C425.169 152.285 424.634 153.604 423.672 154.581Z" fill="#3F3D56"/>
<path d="M385.755 108.34L373.991 96.7007C372.834 95.5499 371.267 94.9059 369.636 94.9101H369.6C368.785 94.9133 367.979 95.0783 367.228 95.3954C366.477 95.7125 365.796 96.1755 365.224 96.7576C363.05 98.9699 361.64 101.822 361.201 104.895C360.762 107.969 361.317 111.102 362.786 113.836L362.791 113.841C363.397 114.96 364.149 115.992 365.028 116.91C365.126 117.024 365.24 117.138 365.353 117.252C368.055 119.938 371.709 121.442 375.516 121.433H375.609C377.509 121.426 379.39 121.04 381.141 120.301C382.892 119.561 384.48 118.48 385.812 117.122C386.384 116.542 386.836 115.855 387.143 115.099C387.45 114.344 387.605 113.535 387.6 112.719C387.594 111.904 387.429 111.097 387.112 110.346C386.796 109.594 386.335 108.913 385.755 108.34ZM385.073 116.398C383.837 117.658 382.363 118.66 380.738 119.347C379.112 120.034 377.367 120.391 375.603 120.398H375.516C372.866 120.397 370.277 119.612 368.072 118.14C365.868 116.669 364.147 114.577 363.126 112.128C362.105 109.68 361.829 106.983 362.334 104.378C362.839 101.773 364.101 99.3756 365.963 97.4874C366.926 96.5119 368.236 95.9591 369.606 95.9504C370.976 95.9417 372.293 96.4777 373.268 97.4408L385.032 109.075C386.005 110.041 386.556 111.355 386.564 112.728C386.572 114.101 386.036 115.42 385.073 116.398Z" fill="#3F3D56"/>
<path d="M425.107 150.181L412.137 137.35C411.287 136.51 410.139 136.043 408.945 136.05C407.751 136.058 406.609 136.539 405.769 137.389C404.718 138.453 403.887 139.713 403.322 141.098C402.758 142.484 402.472 143.967 402.481 145.463C402.489 146.96 402.792 148.439 403.372 149.818C403.951 151.197 404.797 152.448 405.86 153.5C406.922 154.551 408.181 155.382 409.565 155.946C410.949 156.51 412.43 156.795 413.923 156.784C415.417 156.774 416.894 156.469 418.27 155.887C419.646 155.305 420.894 154.457 421.942 153.391L425.107 150.181Z" fill="#007061"/>
<path d="M386.509 111.996L373.54 99.1641C372.689 98.3246 371.541 97.8573 370.347 97.8647C369.153 97.8721 368.011 98.3537 367.171 99.2037C366.12 100.267 365.289 101.528 364.725 102.913C364.161 104.298 363.875 105.782 363.883 107.278C363.891 108.774 364.194 110.254 364.774 111.633C365.354 113.012 366.199 114.263 367.262 115.314C368.325 116.366 369.584 117.197 370.967 117.761C372.351 118.324 373.832 118.609 375.326 118.599C376.819 118.589 378.296 118.284 379.672 117.702C381.048 117.119 382.296 116.271 383.344 115.205L386.509 111.996Z" fill="#007061"/>
<path d="M410.856 158.173L410.546 158.991C409.089 158.437 407.677 157.881 406.309 157.324C382.09 147.424 370.527 135.836 362.793 113.841L362.788 113.836C362.421 112.801 362.065 111.742 361.719 110.658L362.535 110.395C362.808 111.436 363.207 112.441 363.723 113.386C364.147 114.592 364.583 115.767 365.03 116.91C372.299 135.474 383.02 146.083 403.571 155.042C404.605 155.492 405.664 155.939 406.749 156.382C408.008 157.205 409.397 157.81 410.856 158.173Z" fill="#3F3D56"/>
<path d="M373.777 120.491L373.051 121.228L399.884 147.776L400.61 147.04L373.777 120.491Z" fill="#3F3D56"/>
<path d="M146.598 98.4937L146.611 81.4863L136.631 82.3797L140.153 93.1062L127.368 112.521C126.569 112.701 125.839 113.11 125.267 113.698C124.696 114.286 124.307 115.028 124.149 115.833C123.992 116.639 124.071 117.473 124.378 118.234C124.685 118.995 125.207 119.65 125.879 120.119C126.552 120.588 127.346 120.851 128.165 120.876C128.984 120.901 129.792 120.686 130.492 120.259C131.191 119.831 131.751 119.209 132.104 118.468C132.457 117.727 132.586 116.9 132.478 116.086L146.598 98.4937Z" fill="#FFB6B6"/>
</g>
<defs>
<clipPath id="clip0_1761_13385">
<rect width="462" height="232" fill="white"/>
</clipPath>
</defs>
</svg>
