<svg width="52" height="52" viewBox="0 0 52 52" fill="none" xmlns="http://www.w3.org/2000/svg">
<g clip-path="url(#clip0_177_3533)">
<path d="M49.4706 14.6709L44.7902 9.98837L46.8215 7.95705C47.0264 7.75918 47.1898 7.5225 47.3022 7.2608C47.4146 6.9991 47.4738 6.71763 47.4763 6.43282C47.4787 6.14801 47.4245 5.86556 47.3166 5.60194C47.2088 5.33833 47.0495 5.09884 46.8481 4.89744C46.6467 4.69604 46.4072 4.53676 46.1436 4.42891C45.88 4.32106 45.5975 4.26679 45.3127 4.26926C45.0279 4.27174 44.7464 4.33091 44.4847 4.44333C44.223 4.55574 43.9863 4.71915 43.7885 4.92402L41.7572 6.95534L37.0746 2.27495C35.5987 0.86852 33.6382 0.0839844 31.5995 0.0839844C29.5608 0.0839844 27.6003 0.86852 26.1244 2.27495C25.4049 2.99388 24.8341 3.84756 24.4446 4.78719C24.0552 5.72683 23.8548 6.73399 23.8548 7.75113C23.8548 8.76827 24.0552 9.77544 24.4446 10.7151C24.8341 11.6547 25.4049 12.5084 26.1244 13.2273L30.8048 17.9077L18.1622 30.5503L13.4796 25.8699C12.0037 24.4635 10.0432 23.679 8.00451 23.679C5.96581 23.679 4.00529 24.4635 2.5294 25.8699C1.80988 26.5889 1.23908 27.4426 0.849648 28.3822C0.460212 29.3218 0.259766 30.329 0.259766 31.3461C0.259766 32.3633 0.460212 33.3704 0.849648 34.3101C1.23908 35.2497 1.80988 36.1034 2.5294 36.8223L7.20979 41.5027L5.17847 43.534C4.9736 43.7319 4.81019 43.9686 4.69778 44.2303C4.58536 44.492 4.52619 44.7734 4.52371 45.0583C4.52124 45.3431 4.57551 45.6255 4.68336 45.8891C4.79121 46.1527 4.95049 46.3922 5.15189 46.5936C5.35329 46.795 5.59278 46.9543 5.85639 47.0622C6.12 47.17 6.40246 47.2243 6.68727 47.2218C6.97208 47.2193 7.25355 47.1602 7.51525 47.0477C7.77694 46.9353 8.01363 46.7719 8.2115 46.5671L10.2428 44.5357L14.9254 49.2161C15.6442 49.9353 16.4978 50.5058 17.4372 50.8951C18.3767 51.2843 19.3836 51.4847 20.4005 51.4847C21.4173 51.4847 22.4243 51.2843 23.3637 50.8951C24.3031 50.5058 25.1567 49.9353 25.8756 49.2161C26.595 48.4974 27.1658 47.6439 27.5552 46.7044C27.9446 45.765 28.145 44.758 28.145 43.741C28.145 42.7241 27.9446 41.7171 27.5552 40.7776C27.1658 39.8381 26.595 38.9846 25.8756 38.2659L21.1952 33.5855L33.8507 20.9407L38.5311 25.6211C39.25 26.3403 40.1035 26.9108 41.0429 27.3001C41.9824 27.6893 42.9893 27.8897 44.0062 27.8897C45.0231 27.8897 46.03 27.6893 46.9694 27.3001C47.9089 26.9108 48.7624 26.3403 49.4813 25.6211C50.2008 24.9024 50.7715 24.0489 51.1609 23.1094C51.5503 22.17 51.7508 21.163 51.7508 20.146C51.7508 19.1291 51.5503 18.1221 51.1609 17.1826C50.7715 16.2431 50.2008 15.3897 49.4813 14.6709H49.4706ZM23.855 43.7421C23.8559 44.1957 23.7669 44.645 23.5931 45.0639C23.4194 45.4829 23.1642 45.8633 22.8425 46.1831C22.1851 46.812 21.3103 47.1631 20.4005 47.1631C19.4906 47.1631 18.6158 46.812 17.9584 46.1831L5.56243 33.7871C4.91475 33.1395 4.55088 32.261 4.55088 31.3451C4.55088 30.4291 4.91475 29.5507 5.56243 28.903C6.21011 28.2553 7.08855 27.8914 8.00451 27.8914C8.92047 27.8914 9.79891 28.2553 10.4466 28.903L22.8425 41.2989C23.1645 41.619 23.4198 41.9997 23.5935 42.4191C23.7673 42.8384 23.8562 43.2881 23.855 43.7421ZM46.4375 22.5881C45.7801 23.217 44.9053 23.5681 43.9955 23.5681C43.0856 23.5681 42.2108 23.217 41.5534 22.5881L29.1574 10.1921C28.8367 9.87145 28.5823 9.49072 28.4088 9.07171C28.2352 8.65269 28.1459 8.2036 28.1459 7.75006C28.1459 6.8341 28.5097 5.95566 29.1574 5.30798C29.8051 4.6603 30.6836 4.29644 31.5995 4.29644C32.5155 4.29644 33.3939 4.6603 34.0416 5.30798L46.4375 17.7039C46.7585 18.0245 47.0132 18.4052 47.1869 18.8242C47.3606 19.2432 47.4501 19.6924 47.4501 20.146C47.4501 20.5996 47.3606 21.0488 47.1869 21.4678C47.0132 21.8869 46.7585 22.2676 46.4375 22.5881Z" fill="#3E8C7C"/>
</g>
<defs>
<clipPath id="clip0_177_3533">
<rect width="51.48" height="51.48" fill="white" transform="translate(0.26001 0.00585938)"/>
</clipPath>
</defs>
</svg>
