<svg width="52" height="52" viewBox="0 0 52 52" fill="none" xmlns="http://www.w3.org/2000/svg">
<g clip-path="url(#clip0_112_3117)">
<path d="M32.435 52.0064H19.565C13.6512 52.0064 8.84 47.1951 8.84 41.2814V11.2514C8.84 5.3376 13.6512 0.526367 19.565 0.526367H32.435C38.3488 0.526367 43.16 5.3376 43.16 11.2514V41.2814C43.16 47.1951 38.3488 52.0064 32.435 52.0064ZM19.565 4.81637C16.0172 4.81637 13.13 7.70354 13.13 11.2514V41.2814C13.13 44.8292 16.0172 47.7164 19.565 47.7164H32.435C35.9828 47.7164 38.87 44.8292 38.87 41.2814V11.2514C38.87 7.70354 35.9828 4.81637 32.435 4.81637H19.565Z" fill="#3E8C7C"/>
<g clip-path="url(#clip1_112_3117)">
<path d="M30.4815 16.3646C30.5001 14.9143 31.2601 13.5749 32.4956 12.8156C31.7131 11.6973 30.4481 11.014 29.0839 10.9714C27.6483 10.8209 26.257 11.8299 25.5256 11.8299C24.7803 11.8299 23.6542 10.9861 22.4412 11.0109C20.8458 11.0629 19.394 11.9478 18.6176 13.343C16.9649 16.2049 18.1973 20.4115 19.781 22.725C20.5736 23.8581 21.4989 25.1231 22.7111 25.0789C23.8969 25.03 24.3398 24.3227 25.7707 24.3227C27.1884 24.3227 27.6041 25.0789 28.8404 25.0502C30.1123 25.0292 30.9142 23.9124 31.6789 22.7685C32.2482 21.9611 32.6864 21.0692 32.9764 20.1253C31.4657 19.4863 30.483 18.0057 30.4815 16.3646Z" fill="#3E8C7C"/>
<path d="M28.1458 9.44991C28.8392 8.61695 29.1812 7.54667 29.0982 6.46631C28.0388 6.57799 27.0592 7.08443 26.3566 7.88482C25.6624 8.67512 25.3103 9.70817 25.3786 10.7583C26.4527 10.7691 27.4726 10.2867 28.1458 9.44991Z" fill="#3E8C7C"/>
</g>
<g clip-path="url(#clip2_112_3117)">
<path d="M30.5573 36.9431C30.1019 36.9431 29.7323 36.5743 29.7323 36.1189C29.7323 35.6635 30.1011 35.2939 30.5565 35.2939C31.0119 35.2939 31.3815 35.6627 31.3815 36.1181C31.3815 36.5735 31.0127 36.9423 30.5573 36.9431ZM21.4444 36.9431C20.989 36.9431 20.6194 36.5743 20.6194 36.1189C20.6194 35.6635 20.9881 35.2939 21.4435 35.2939C21.8989 35.2939 22.2685 35.6627 22.2685 36.1181C22.2685 36.5735 21.8998 36.9423 21.4444 36.9431ZM30.8527 31.9766L32.5002 29.1229C32.5951 28.9587 32.539 28.7492 32.3748 28.6543C32.2106 28.5594 32.0011 28.6155 31.9062 28.7797L30.238 31.6697C28.9626 31.0872 27.5296 30.763 26.0008 30.763C24.4721 30.763 23.0391 31.0872 21.7628 31.6689L20.0947 28.7797C19.9998 28.6155 19.7902 28.5594 19.6261 28.6535C19.4627 28.7484 19.4058 28.9579 19.5007 29.1221L21.1482 31.9766C18.3184 33.5152 16.3838 36.3796 16.1 39.7646H35.9C35.617 36.3796 33.6824 33.5152 30.8527 31.9766Z" fill="#3E8C7C"/>
</g>
</g>
<defs>
<clipPath id="clip0_112_3117">
<rect width="51.48" height="51.48" fill="white" transform="translate(0.26001 0.526367)"/>
</clipPath>
<clipPath id="clip1_112_3117">
<rect width="18.6135" height="18.6135" fill="white" transform="translate(16.1 6.46631)"/>
</clipPath>
<clipPath id="clip2_112_3117">
<rect width="19.8" height="19.8" fill="white" transform="translate(16.1 24.2861)"/>
</clipPath>
</defs>
</svg>
