<svg width="52" height="52" viewBox="0 0 52 52" fill="none" xmlns="http://www.w3.org/2000/svg">
<g clip-path="url(#clip0_177_3528)">
<path d="M32.2797 19.8323L32.4341 19.8323C35.9819 19.8323 38.8691 16.9452 38.8691 13.3973L38.8691 6.96234C38.8691 3.41451 35.9819 0.527344 32.4341 0.527344L19.5641 0.527344C16.0163 0.527344 13.1291 3.41451 13.1291 6.96234L13.1291 13.3973C13.1291 16.9452 16.0163 19.8323 19.5641 19.8323L19.9974 19.8323L23.9313 23.3008C24.5534 23.8499 25.332 24.1245 26.1107 24.1245C26.8786 24.1245 27.6465 23.8542 28.2514 23.318L32.2797 19.8345L32.2797 19.8323ZM26.1085 19.4977L22.2261 16.0786C21.8335 15.7333 21.3295 15.5423 20.8082 15.5423L19.5641 15.5423C18.3801 15.5423 17.4191 14.5792 17.4191 13.3973L17.4191 6.96234C17.4191 5.78045 18.3801 4.81734 19.5641 4.81734L32.4341 4.81734C33.6182 4.81734 34.5791 5.78045 34.5791 6.96234L34.5791 13.3973C34.5791 14.5792 33.6182 15.5423 32.4341 15.5423L31.4817 15.5423C30.9669 15.5423 30.4672 15.7268 30.0789 16.0657L26.1085 19.4999L26.1085 19.4977ZM12.0566 39.1373C16.1965 39.1373 19.5641 35.7697 19.5641 31.6298C19.5641 27.49 16.1965 24.1223 12.0566 24.1223C7.91676 24.1223 4.54911 27.49 4.54911 31.6298C4.54911 35.7697 7.91676 39.1373 12.0566 39.1373ZM12.0566 28.4123C13.8305 28.4123 15.2741 29.8559 15.2741 31.6298C15.2741 33.4038 13.8305 34.8473 12.0566 34.8473C10.2827 34.8473 8.83911 33.4038 8.83911 31.6298C8.83911 29.8559 10.2827 28.4123 12.0566 28.4123ZM32.4341 31.6298C32.4341 35.7697 35.8018 39.1373 39.9416 39.1373C44.0815 39.1373 47.4491 35.7697 47.4491 31.6298C47.4491 27.49 44.0815 24.1223 39.9416 24.1223C35.8018 24.1223 32.4341 27.49 32.4341 31.6298ZM39.9416 28.4123C41.7155 28.4123 43.1591 29.8559 43.1591 31.6298C43.1591 33.4038 41.7155 34.8473 39.9416 34.8473C38.1677 34.8473 36.7241 33.4038 36.7241 31.6298C36.7241 29.8559 38.1677 28.4123 39.9416 28.4123ZM23.719 49.1095C24.133 50.2184 23.5731 51.4561 22.4642 51.8722C22.2153 51.9645 21.9622 52.0095 21.7091 52.0095C20.8425 52.0095 20.0231 51.4775 19.6992 50.6174C18.5688 47.6015 15.4972 45.5745 12.0566 45.5745C8.61603 45.5745 5.54439 47.6015 4.41398 50.6174C3.99785 51.7285 2.76018 52.2819 1.65122 51.8722C0.542253 51.4561 -0.0175921 50.2184 0.396393 49.1095C2.151 44.4269 6.83783 41.2823 12.0588 41.2823C17.2797 41.2823 21.9622 44.4269 23.719 49.1095ZM50.3492 51.8722C50.1003 51.9645 49.8472 52.0095 49.5941 52.0095C48.7275 52.0095 47.9081 51.4775 47.5843 50.6174C46.4538 47.6015 43.3822 45.5745 39.9416 45.5745C36.501 45.5745 33.4294 47.6015 32.299 50.6174C31.8829 51.7285 30.6452 52.2819 29.5362 51.8722C28.4273 51.4561 27.8674 50.2184 28.2814 49.1095C30.036 44.4269 34.7228 41.2823 39.9438 41.2823C45.1647 41.2823 49.8494 44.4269 51.6061 49.1095C52.0201 50.2184 51.4603 51.4561 50.3513 51.8722L50.3492 51.8722Z" fill="#3E8C7C"/>
</g>
<defs>
<clipPath id="clip0_177_3528">
<rect width="51.48" height="51.48" fill="white" transform="translate(0.26001 0.527344)"/>
</clipPath>
</defs>
</svg>
