<svg width="52" height="52" viewBox="0 0 52 52" fill="none" xmlns="http://www.w3.org/2000/svg">
<path d="M2.54872 33.5829L6.9996 36.7511C9.27759 38.3706 11.9696 39.1964 14.6615 39.1964C16.577 39.1964 18.4947 38.7781 20.2643 37.9309L48.0485 25.7086C51.2359 24.1857 52.6237 20.3376 51.1394 17.1286C49.6508 13.9176 45.8305 12.5126 42.6109 13.9862L35.8692 16.9935L21.6714 8.22904C19.7795 6.82192 17.2741 6.56881 15.1249 7.56194L13.4496 8.34701C12.139 8.96263 11.2338 10.1853 11.0279 11.6181C10.822 13.0531 11.3454 14.4817 12.4307 15.4427L21.4483 23.4221L13.7456 26.8584L7.18836 24.4517C5.07768 23.6816 2.71818 24.3637 1.32178 26.1484C0.480945 27.223 0.129165 28.5765 0.330795 29.9579C0.54315 31.4101 1.34967 32.7292 2.54658 33.5786L2.54872 33.5829ZM15.275 12.2316L16.9395 11.4508C17.6517 11.1205 18.4861 11.2084 19.2669 11.7747L31.1308 19.1063L25.7555 21.5044L15.275 12.2316ZM4.7023 28.7953C4.91252 28.5272 5.18278 28.4328 5.41873 28.4328C5.52598 28.4328 13.085 31.1891 13.085 31.1891C13.6105 31.3822 14.1896 31.3629 14.698 31.1355L44.3698 17.8987L44.3977 17.8858C45.4723 17.3903 46.7486 17.8601 47.2462 18.9304C47.7482 20.018 47.2806 21.32 46.2595 21.809L18.4753 34.0312C15.5646 35.4191 12.1176 35.1252 9.48565 33.2548L5.03478 30.0887C4.79025 29.915 4.62079 29.6361 4.57789 29.3423C4.54572 29.1235 4.58862 28.9412 4.7023 28.7953ZM51.74 49.8613C51.74 51.0475 50.779 52.0063 49.595 52.0063H2.40501C1.22097 52.0063 0.26001 51.0475 0.26001 49.8613C0.26001 48.6752 1.22097 47.7163 2.40501 47.7163H49.595C50.779 47.7163 51.74 48.6752 51.74 49.8613Z" fill="#3E8C7C"/>
</svg>
