<svg width="77" height="77" viewBox="0 0 77 77" fill="none" xmlns="http://www.w3.org/2000/svg">
<g clip-path="url(#clip0_2259_17372)">
<path d="M77 0H0V77H77V0Z" fill="white"/>
<path d="M29.8761 7.7002H27.4121V10.1642H29.8761V7.7002Z" fill="black"/>
<path d="M34.8038 7.7002H32.3398V10.1642H34.8038V7.7002Z" fill="black"/>
<path d="M39.7316 7.7002H37.2676V10.1642H39.7316V7.7002Z" fill="black"/>
<path d="M47.1242 7.7002H44.6602V10.1642H47.1242V7.7002Z" fill="black"/>
<path d="M49.587 7.7002H47.123V10.1642H49.587V7.7002Z" fill="black"/>
<path d="M32.341 10.1641H29.877V12.6281H32.341V10.1641Z" fill="black"/>
<path d="M34.8038 10.1641H32.3398V12.6281H34.8038V10.1641Z" fill="black"/>
<path d="M37.2687 10.1641H34.8047V12.6281H37.2687V10.1641Z" fill="black"/>
<path d="M39.7316 10.1641H37.2676V12.6281H39.7316V10.1641Z" fill="black"/>
<path d="M42.1964 10.1641H39.7324V12.6281H42.1964V10.1641Z" fill="black"/>
<path d="M44.6593 10.1641H42.1953V12.6281H44.6593V10.1641Z" fill="black"/>
<path d="M29.8761 12.6279H27.4121V15.0919H29.8761V12.6279Z" fill="black"/>
<path d="M32.341 12.6279H29.877V15.0919H32.341V12.6279Z" fill="black"/>
<path d="M34.8038 12.6279H32.3398V15.0919H34.8038V12.6279Z" fill="black"/>
<path d="M47.1242 12.6279H44.6602V15.0919H47.1242V12.6279Z" fill="black"/>
<path d="M29.8761 15.0918H27.4121V17.5558H29.8761V15.0918Z" fill="black"/>
<path d="M32.341 15.0918H29.877V17.5558H32.341V15.0918Z" fill="black"/>
<path d="M34.8038 15.0918H32.3398V17.5558H34.8038V15.0918Z" fill="black"/>
<path d="M39.7316 15.0918H37.2676V17.5558H39.7316V15.0918Z" fill="black"/>
<path d="M42.1964 15.0918H39.7324V17.5558H42.1964V15.0918Z" fill="black"/>
<path d="M44.6593 15.0918H42.1953V17.5558H44.6593V15.0918Z" fill="black"/>
<path d="M47.1242 15.0918H44.6602V17.5558H47.1242V15.0918Z" fill="black"/>
<path d="M29.8761 17.5562H27.4121V20.0202H29.8761V17.5562Z" fill="black"/>
<path d="M37.2687 17.5562H34.8047V20.0202H37.2687V17.5562Z" fill="black"/>
<path d="M39.7316 17.5562H37.2676V20.0202H39.7316V17.5562Z" fill="black"/>
<path d="M44.6593 17.5562H42.1953V20.0202H44.6593V17.5562Z" fill="black"/>
<path d="M47.1242 17.5562H44.6602V20.0202H47.1242V17.5562Z" fill="black"/>
<path d="M34.8038 20.02H32.3398V22.484H34.8038V20.02Z" fill="black"/>
<path d="M37.2687 20.02H34.8047V22.484H37.2687V20.02Z" fill="black"/>
<path d="M44.6593 20.02H42.1953V22.484H44.6593V20.02Z" fill="black"/>
<path d="M29.8761 22.4839H27.4121V24.9479H29.8761V22.4839Z" fill="black"/>
<path d="M34.8038 22.4839H32.3398V24.9479H34.8038V22.4839Z" fill="black"/>
<path d="M39.7316 22.4839H37.2676V24.9479H39.7316V22.4839Z" fill="black"/>
<path d="M44.6593 22.4839H42.1953V24.9479H44.6593V22.4839Z" fill="black"/>
<path d="M49.587 22.4839H47.123V24.9479H49.587V22.4839Z" fill="black"/>
<path d="M34.8038 24.9482H32.3398V27.4122H34.8038V24.9482Z" fill="black"/>
<path d="M39.7316 24.9482H37.2676V27.4122H39.7316V24.9482Z" fill="black"/>
<path d="M44.6593 24.9482H42.1953V27.4122H44.6593V24.9482Z" fill="black"/>
<path d="M47.1242 24.9482H44.6602V27.4122H47.1242V24.9482Z" fill="black"/>
<path d="M49.587 24.9482H47.123V27.4122H49.587V24.9482Z" fill="black"/>
<path d="M10.1632 27.4121H7.69922V29.8761H10.1632V27.4121Z" fill="black"/>
<path d="M12.6281 27.4121H10.1641V29.8761H12.6281V27.4121Z" fill="black"/>
<path d="M15.0929 27.4121H12.6289V29.8761H15.0929V27.4121Z" fill="black"/>
<path d="M17.5558 27.4121H15.0918V29.8761H17.5558V27.4121Z" fill="black"/>
<path d="M24.9484 27.4121H22.4844V29.8761H24.9484V27.4121Z" fill="black"/>
<path d="M29.8761 27.4121H27.4121V29.8761H29.8761V27.4121Z" fill="black"/>
<path d="M34.8038 27.4121H32.3398V29.8761H34.8038V27.4121Z" fill="black"/>
<path d="M37.2687 27.4121H34.8047V29.8761H37.2687V27.4121Z" fill="black"/>
<path d="M39.7316 27.4121H37.2676V29.8761H39.7316V27.4121Z" fill="black"/>
<path d="M52.0519 27.4121H49.5879V29.8761H52.0519V27.4121Z" fill="black"/>
<path d="M59.4445 27.4121H56.9805V29.8761H59.4445V27.4121Z" fill="black"/>
<path d="M61.9074 27.4121H59.4434V29.8761H61.9074V27.4121Z" fill="black"/>
<path d="M64.3722 27.4121H61.9082V29.8761H64.3722V27.4121Z" fill="black"/>
<path d="M69.2999 27.4121H66.8359V29.8761H69.2999V27.4121Z" fill="black"/>
<path d="M12.6281 29.876H10.1641V32.34H12.6281V29.876Z" fill="black"/>
<path d="M17.5558 29.876H15.0918V32.34H17.5558V29.876Z" fill="black"/>
<path d="M22.4835 29.876H20.0195V32.34H22.4835V29.876Z" fill="black"/>
<path d="M29.8761 29.876H27.4121V32.34H29.8761V29.876Z" fill="black"/>
<path d="M34.8038 29.876H32.3398V32.34H34.8038V29.876Z" fill="black"/>
<path d="M39.7316 29.876H37.2676V32.34H39.7316V29.876Z" fill="black"/>
<path d="M44.6593 29.876H42.1953V32.34H44.6593V29.876Z" fill="black"/>
<path d="M47.1242 29.876H44.6602V32.34H47.1242V29.876Z" fill="black"/>
<path d="M52.0519 29.876H49.5879V32.34H52.0519V29.876Z" fill="black"/>
<path d="M56.9796 29.876H54.5156V32.34H56.9796V29.876Z" fill="black"/>
<path d="M59.4445 29.876H56.9805V32.34H59.4445V29.876Z" fill="black"/>
<path d="M69.2999 29.876H66.8359V32.34H69.2999V29.876Z" fill="black"/>
<path d="M10.1632 32.3398H7.69922V34.8038H10.1632V32.3398Z" fill="black"/>
<path d="M15.0929 32.3398H12.6289V34.8038H15.0929V32.3398Z" fill="black"/>
<path d="M17.5558 32.3398H15.0918V34.8038H17.5558V32.3398Z" fill="black"/>
<path d="M20.0206 32.3398H17.5566V34.8038H20.0206V32.3398Z" fill="black"/>
<path d="M22.4835 32.3398H20.0195V34.8038H22.4835V32.3398Z" fill="black"/>
<path d="M24.9484 32.3398H22.4844V34.8038H24.9484V32.3398Z" fill="black"/>
<path d="M27.4113 32.3398H24.9473V34.8038H27.4113V32.3398Z" fill="black"/>
<path d="M32.341 32.3398H29.877V34.8038H32.341V32.3398Z" fill="black"/>
<path d="M34.8038 32.3398H32.3398V34.8038H34.8038V32.3398Z" fill="black"/>
<path d="M37.2687 32.3398H34.8047V34.8038H37.2687V32.3398Z" fill="black"/>
<path d="M39.7316 32.3398H37.2676V34.8038H39.7316V32.3398Z" fill="black"/>
<path d="M42.1964 32.3398H39.7324V34.8038H42.1964V32.3398Z" fill="black"/>
<path d="M61.9074 32.3398H59.4434V34.8038H61.9074V32.3398Z" fill="black"/>
<path d="M64.3722 32.3398H61.9082V34.8038H64.3722V32.3398Z" fill="black"/>
<path d="M66.8351 32.3398H64.3711V34.8038H66.8351V32.3398Z" fill="black"/>
<path d="M69.2999 32.3398H66.8359V34.8038H69.2999V32.3398Z" fill="black"/>
<path d="M10.1632 34.8042H7.69922V37.2682H10.1632V34.8042Z" fill="black"/>
<path d="M22.4835 34.8042H20.0195V37.2682H22.4835V34.8042Z" fill="black"/>
<path d="M27.4113 34.8042H24.9473V37.2682H27.4113V34.8042Z" fill="black"/>
<path d="M32.341 34.8042H29.877V37.2682H32.341V34.8042Z" fill="black"/>
<path d="M34.8038 34.8042H32.3398V37.2682H34.8038V34.8042Z" fill="black"/>
<path d="M47.1242 34.8042H44.6602V37.2682H47.1242V34.8042Z" fill="black"/>
<path d="M54.5167 34.8042H52.0527V37.2682H54.5167V34.8042Z" fill="black"/>
<path d="M56.9796 34.8042H54.5156V37.2682H56.9796V34.8042Z" fill="black"/>
<path d="M61.9074 34.8042H59.4434V37.2682H61.9074V34.8042Z" fill="black"/>
<path d="M64.3722 34.8042H61.9082V37.2682H64.3722V34.8042Z" fill="black"/>
<path d="M69.2999 34.8042H66.8359V37.2682H69.2999V34.8042Z" fill="black"/>
<path d="M10.1632 37.2681H7.69922V39.7321H10.1632V37.2681Z" fill="black"/>
<path d="M15.0929 37.2681H12.6289V39.7321H15.0929V37.2681Z" fill="black"/>
<path d="M17.5558 37.2681H15.0918V39.7321H17.5558V37.2681Z" fill="black"/>
<path d="M20.0206 37.2681H17.5566V39.7321H20.0206V37.2681Z" fill="black"/>
<path d="M22.4835 37.2681H20.0195V39.7321H22.4835V37.2681Z" fill="black"/>
<path d="M24.9484 37.2681H22.4844V39.7321H24.9484V37.2681Z" fill="black"/>
<path d="M29.8761 37.2681H27.4121V39.7321H29.8761V37.2681Z" fill="black"/>
<path d="M32.341 37.2681H29.877V39.7321H32.341V37.2681Z" fill="black"/>
<path d="M34.8038 37.2681H32.3398V39.7321H34.8038V37.2681Z" fill="black"/>
<path d="M39.7316 37.2681H37.2676V39.7321H39.7316V37.2681Z" fill="black"/>
<path d="M42.1964 37.2681H39.7324V39.7321H42.1964V37.2681Z" fill="black"/>
<path d="M44.6593 37.2681H42.1953V39.7321H44.6593V37.2681Z" fill="black"/>
<path d="M47.1242 37.2681H44.6602V39.7321H47.1242V37.2681Z" fill="black"/>
<path d="M49.587 37.2681H47.123V39.7321H49.587V37.2681Z" fill="black"/>
<path d="M52.0519 37.2681H49.5879V39.7321H52.0519V37.2681Z" fill="black"/>
<path d="M54.5167 37.2681H52.0527V39.7321H54.5167V37.2681Z" fill="black"/>
<path d="M56.9796 37.2681H54.5156V39.7321H56.9796V37.2681Z" fill="black"/>
<path d="M59.4445 37.2681H56.9805V39.7321H59.4445V37.2681Z" fill="black"/>
<path d="M61.9074 37.2681H59.4434V39.7321H61.9074V37.2681Z" fill="black"/>
<path d="M66.8351 37.2681H64.3711V39.7321H66.8351V37.2681Z" fill="black"/>
<path d="M69.2999 37.2681H66.8359V39.7321H69.2999V37.2681Z" fill="black"/>
<path d="M17.5558 39.7319H15.0918V42.1959H17.5558V39.7319Z" fill="black"/>
<path d="M20.0206 39.7319H17.5566V42.1959H20.0206V39.7319Z" fill="black"/>
<path d="M27.4113 39.7319H24.9473V42.1959H27.4113V39.7319Z" fill="black"/>
<path d="M37.2687 39.7319H34.8047V42.1959H37.2687V39.7319Z" fill="black"/>
<path d="M39.7316 39.7319H37.2676V42.1959H39.7316V39.7319Z" fill="black"/>
<path d="M47.1242 39.7319H44.6602V42.1959H47.1242V39.7319Z" fill="black"/>
<path d="M56.9796 39.7319H54.5156V42.1959H56.9796V39.7319Z" fill="black"/>
<path d="M61.9074 39.7319H59.4434V42.1959H61.9074V39.7319Z" fill="black"/>
<path d="M12.6281 42.1958H10.1641V44.6598H12.6281V42.1958Z" fill="black"/>
<path d="M15.0929 42.1958H12.6289V44.6598H15.0929V42.1958Z" fill="black"/>
<path d="M17.5558 42.1958H15.0918V44.6598H17.5558V42.1958Z" fill="black"/>
<path d="M20.0206 42.1958H17.5566V44.6598H20.0206V42.1958Z" fill="black"/>
<path d="M22.4835 42.1958H20.0195V44.6598H22.4835V42.1958Z" fill="black"/>
<path d="M24.9484 42.1958H22.4844V44.6598H24.9484V42.1958Z" fill="black"/>
<path d="M27.4113 42.1958H24.9473V44.6598H27.4113V42.1958Z" fill="black"/>
<path d="M29.8761 42.1958H27.4121V44.6598H29.8761V42.1958Z" fill="black"/>
<path d="M34.8038 42.1958H32.3398V44.6598H34.8038V42.1958Z" fill="black"/>
<path d="M37.2687 42.1958H34.8047V44.6598H37.2687V42.1958Z" fill="black"/>
<path d="M44.6593 42.1958H42.1953V44.6598H44.6593V42.1958Z" fill="black"/>
<path d="M49.587 42.1958H47.123V44.6598H49.587V42.1958Z" fill="black"/>
<path d="M52.0519 42.1958H49.5879V44.6598H52.0519V42.1958Z" fill="black"/>
<path d="M56.9796 42.1958H54.5156V44.6598H56.9796V42.1958Z" fill="black"/>
<path d="M59.4445 42.1958H56.9805V44.6598H59.4445V42.1958Z" fill="black"/>
<path d="M61.9074 42.1958H59.4434V44.6598H61.9074V42.1958Z" fill="black"/>
<path d="M66.8351 42.1958H64.3711V44.6598H66.8351V42.1958Z" fill="black"/>
<path d="M10.1632 44.6602H7.69922V47.1242H10.1632V44.6602Z" fill="black"/>
<path d="M17.5558 44.6602H15.0918V47.1242H17.5558V44.6602Z" fill="black"/>
<path d="M22.4835 44.6602H20.0195V47.1242H22.4835V44.6602Z" fill="black"/>
<path d="M29.8761 44.6602H27.4121V47.1242H29.8761V44.6602Z" fill="black"/>
<path d="M34.8038 44.6602H32.3398V47.1242H34.8038V44.6602Z" fill="black"/>
<path d="M37.2687 44.6602H34.8047V47.1242H37.2687V44.6602Z" fill="black"/>
<path d="M42.1964 44.6602H39.7324V47.1242H42.1964V44.6602Z" fill="black"/>
<path d="M49.587 44.6602H47.123V47.1242H49.587V44.6602Z" fill="black"/>
<path d="M52.0519 44.6602H49.5879V47.1242H52.0519V44.6602Z" fill="black"/>
<path d="M66.8351 44.6602H64.3711V47.1242H66.8351V44.6602Z" fill="black"/>
<path d="M69.2999 44.6602H66.8359V47.1242H69.2999V44.6602Z" fill="black"/>
<path d="M17.5558 47.124H15.0918V49.588H17.5558V47.124Z" fill="black"/>
<path d="M22.4835 47.124H20.0195V49.588H22.4835V47.124Z" fill="black"/>
<path d="M24.9484 47.124H22.4844V49.588H24.9484V47.124Z" fill="black"/>
<path d="M27.4113 47.124H24.9473V49.588H27.4113V47.124Z" fill="black"/>
<path d="M29.8761 47.124H27.4121V49.588H29.8761V47.124Z" fill="black"/>
<path d="M34.8038 47.124H32.3398V49.588H34.8038V47.124Z" fill="black"/>
<path d="M39.7316 47.124H37.2676V49.588H39.7316V47.124Z" fill="black"/>
<path d="M49.587 47.124H47.123V49.588H49.587V47.124Z" fill="black"/>
<path d="M52.0519 47.124H49.5879V49.588H52.0519V47.124Z" fill="black"/>
<path d="M54.5167 47.124H52.0527V49.588H54.5167V47.124Z" fill="black"/>
<path d="M56.9796 47.124H54.5156V49.588H56.9796V47.124Z" fill="black"/>
<path d="M59.4445 47.124H56.9805V49.588H59.4445V47.124Z" fill="black"/>
<path d="M66.8351 47.124H64.3711V49.588H66.8351V47.124Z" fill="black"/>
<path d="M29.8761 49.5879H27.4121V52.0519H29.8761V49.5879Z" fill="black"/>
<path d="M32.341 49.5879H29.877V52.0519H32.341V49.5879Z" fill="black"/>
<path d="M34.8038 49.5879H32.3398V52.0519H34.8038V49.5879Z" fill="black"/>
<path d="M42.1964 49.5879H39.7324V52.0519H42.1964V49.5879Z" fill="black"/>
<path d="M44.6593 49.5879H42.1953V52.0519H44.6593V49.5879Z" fill="black"/>
<path d="M47.1242 49.5879H44.6602V52.0519H47.1242V49.5879Z" fill="black"/>
<path d="M49.587 49.5879H47.123V52.0519H49.587V49.5879Z" fill="black"/>
<path d="M59.4445 49.5879H56.9805V52.0519H59.4445V49.5879Z" fill="black"/>
<path d="M61.9074 49.5879H59.4434V52.0519H61.9074V49.5879Z" fill="black"/>
<path d="M64.3722 49.5879H61.9082V52.0519H64.3722V49.5879Z" fill="black"/>
<path d="M32.341 52.0518H29.877V54.5158H32.341V52.0518Z" fill="black"/>
<path d="M42.1964 52.0518H39.7324V54.5158H42.1964V52.0518Z" fill="black"/>
<path d="M47.1242 52.0518H44.6602V54.5158H47.1242V52.0518Z" fill="black"/>
<path d="M49.587 52.0518H47.123V54.5158H49.587V52.0518Z" fill="black"/>
<path d="M54.5167 52.0518H52.0527V54.5158H54.5167V52.0518Z" fill="black"/>
<path d="M59.4445 52.0518H56.9805V54.5158H59.4445V52.0518Z" fill="black"/>
<path d="M64.3722 52.0518H61.9082V54.5158H64.3722V52.0518Z" fill="black"/>
<path d="M66.8351 52.0518H64.3711V54.5158H66.8351V52.0518Z" fill="black"/>
<path d="M69.2999 52.0518H66.8359V54.5158H69.2999V52.0518Z" fill="black"/>
<path d="M32.341 54.5161H29.877V56.9801H32.341V54.5161Z" fill="black"/>
<path d="M37.2687 54.5161H34.8047V56.9801H37.2687V54.5161Z" fill="black"/>
<path d="M42.1964 54.5161H39.7324V56.9801H42.1964V54.5161Z" fill="black"/>
<path d="M44.6593 54.5161H42.1953V56.9801H44.6593V54.5161Z" fill="black"/>
<path d="M47.1242 54.5161H44.6602V56.9801H47.1242V54.5161Z" fill="black"/>
<path d="M49.587 54.5161H47.123V56.9801H49.587V54.5161Z" fill="black"/>
<path d="M59.4445 54.5161H56.9805V56.9801H59.4445V54.5161Z" fill="black"/>
<path d="M66.8351 54.5161H64.3711V56.9801H66.8351V54.5161Z" fill="black"/>
<path d="M69.2999 54.5161H66.8359V56.9801H69.2999V54.5161Z" fill="black"/>
<path d="M34.8038 56.98H32.3398V59.444H34.8038V56.98Z" fill="black"/>
<path d="M44.6593 56.98H42.1953V59.444H44.6593V56.98Z" fill="black"/>
<path d="M47.1242 56.98H44.6602V59.444H47.1242V56.98Z" fill="black"/>
<path d="M49.587 56.98H47.123V59.444H49.587V56.98Z" fill="black"/>
<path d="M52.0519 56.98H49.5879V59.444H52.0519V56.98Z" fill="black"/>
<path d="M54.5167 56.98H52.0527V59.444H54.5167V56.98Z" fill="black"/>
<path d="M56.9796 56.98H54.5156V59.444H56.9796V56.98Z" fill="black"/>
<path d="M59.4445 56.98H56.9805V59.444H59.4445V56.98Z" fill="black"/>
<path d="M64.3722 56.98H61.9082V59.444H64.3722V56.98Z" fill="black"/>
<path d="M69.2999 56.98H66.8359V59.444H69.2999V56.98Z" fill="black"/>
<path d="M29.8761 59.4438H27.4121V61.9078H29.8761V59.4438Z" fill="black"/>
<path d="M32.341 59.4438H29.877V61.9078H32.341V59.4438Z" fill="black"/>
<path d="M44.6593 59.4438H42.1953V61.9078H44.6593V59.4438Z" fill="black"/>
<path d="M47.1242 59.4438H44.6602V61.9078H47.1242V59.4438Z" fill="black"/>
<path d="M49.587 59.4438H47.123V61.9078H49.587V59.4438Z" fill="black"/>
<path d="M54.5167 59.4438H52.0527V61.9078H54.5167V59.4438Z" fill="black"/>
<path d="M59.4445 59.4438H56.9805V61.9078H59.4445V59.4438Z" fill="black"/>
<path d="M66.8351 59.4438H64.3711V61.9078H66.8351V59.4438Z" fill="black"/>
<path d="M69.2999 59.4438H66.8359V61.9078H69.2999V59.4438Z" fill="black"/>
<path d="M29.8761 61.9082H27.4121V64.3722H29.8761V61.9082Z" fill="black"/>
<path d="M44.6593 61.9082H42.1953V64.3722H44.6593V61.9082Z" fill="black"/>
<path d="M47.1242 61.9082H44.6602V64.3722H47.1242V61.9082Z" fill="black"/>
<path d="M54.5167 61.9082H52.0527V64.3722H54.5167V61.9082Z" fill="black"/>
<path d="M61.9074 61.9082H59.4434V64.3722H61.9074V61.9082Z" fill="black"/>
<path d="M64.3722 61.9082H61.9082V64.3722H64.3722V61.9082Z" fill="black"/>
<path d="M66.8351 61.9082H64.3711V64.3722H66.8351V61.9082Z" fill="black"/>
<path d="M29.8761 64.3721H27.4121V66.8361H29.8761V64.3721Z" fill="black"/>
<path d="M32.341 64.3721H29.877V66.8361H32.341V64.3721Z" fill="black"/>
<path d="M37.2687 64.3721H34.8047V66.8361H37.2687V64.3721Z" fill="black"/>
<path d="M39.7316 64.3721H37.2676V66.8361H39.7316V64.3721Z" fill="black"/>
<path d="M42.1964 64.3721H39.7324V66.8361H42.1964V64.3721Z" fill="black"/>
<path d="M47.1242 64.3721H44.6602V66.8361H47.1242V64.3721Z" fill="black"/>
<path d="M49.587 64.3721H47.123V66.8361H49.587V64.3721Z" fill="black"/>
<path d="M52.0519 64.3721H49.5879V66.8361H52.0519V64.3721Z" fill="black"/>
<path d="M59.4445 64.3721H56.9805V66.8361H59.4445V64.3721Z" fill="black"/>
<path d="M64.3722 64.3721H61.9082V66.8361H64.3722V64.3721Z" fill="black"/>
<path d="M66.8351 64.3721H64.3711V66.8361H66.8351V64.3721Z" fill="black"/>
<path d="M69.2999 64.3721H66.8359V66.8361H69.2999V64.3721Z" fill="black"/>
<path d="M29.8761 66.8359H27.4121V69.2999H29.8761V66.8359Z" fill="black"/>
<path d="M32.341 66.8359H29.877V69.2999H32.341V66.8359Z" fill="black"/>
<path d="M34.8038 66.8359H32.3398V69.2999H34.8038V66.8359Z" fill="black"/>
<path d="M37.2687 66.8359H34.8047V69.2999H37.2687V66.8359Z" fill="black"/>
<path d="M39.7316 66.8359H37.2676V69.2999H39.7316V66.8359Z" fill="black"/>
<path d="M47.1242 66.8359H44.6602V69.2999H47.1242V66.8359Z" fill="black"/>
<path d="M49.587 66.8359H47.123V69.2999H49.587V66.8359Z" fill="black"/>
<path d="M64.3722 66.8359H61.9082V69.2999H64.3722V66.8359Z" fill="black"/>
<path d="M66.8351 66.8359H64.3711V69.2999H66.8351V66.8359Z" fill="black"/>
<path d="M69.2999 66.8359H66.8359V69.2999H69.2999V66.8359Z" fill="black"/>
<g clip-path="url(#clip1_2259_17372)">
<path d="M22.5086 7.7002H20.0446H17.5806H17.5806H15.1166H12.6526H10.1886H7.72461V10.1642V12.6282V15.0922V17.5562V20.0202V22.4842V24.9481H10.1886H12.6526H15.1166H17.5806H17.5806H20.0446H22.5086H24.9726V22.4842V20.0202V17.5562V15.0922V12.6282V10.1642V7.7002H22.5086ZM22.5086 12.6282V15.0922V17.5562V20.0202V22.4842H20.0446H17.5806H17.5806H15.1166H12.6526H10.1886V20.0202V17.5562V15.0922V12.6282V10.1642H12.6526H15.1166H17.5806H17.5806H20.0446H22.5086V12.6282Z" fill="black"/>
</g>
<path d="M17.5549 12.6284H17.5549H15.0909H12.627V15.0924V17.5564V20.0204H15.0909H17.5549H17.5549H20.0189V17.5564V15.0924V12.6284H17.5549Z" fill="black"/>
<g clip-path="url(#clip2_2259_17372)">
<path d="M66.8621 7.7002H64.3981H61.9341H61.9341H59.4701H57.0061H54.5421H52.0781V10.1642V12.6282V15.0922V17.5562V20.0202V22.4842V24.9481H54.5421H57.0061H59.4701H61.9341H61.9341H64.3981H66.8621H69.3261V22.4842V20.0202V17.5562V15.0922V12.6282V10.1642V7.7002H66.8621ZM66.8621 12.6282V15.0922V17.5562V20.0202V22.4842H64.3981H61.9341H61.9341H59.4701H57.0061H54.5421V20.0202V17.5562V15.0922V12.6282V10.1642H57.0061H59.4701H61.9341H61.9341H64.3981H66.8621V12.6282Z" fill="black"/>
</g>
<path d="M61.9085 12.6284H61.9084H59.4445H56.9805V15.0924V17.5564V20.0204H59.4445H61.9084H61.9085H64.3724V17.5564V15.0924V12.6284H61.9085Z" fill="black"/>
<g clip-path="url(#clip3_2259_17372)">
<path d="M22.5086 52.0518H20.0446H17.5806H17.5806H15.1166H12.6526H10.1886H7.72461V54.5158V56.9797V59.4437V61.9078V64.3717V66.8357V69.2997H10.1886H12.6526H15.1166H17.5806H17.5806H20.0446H22.5086H24.9726V66.8357V64.3717V61.9078V59.4437V56.9797V54.5158V52.0518H22.5086ZM22.5086 56.9797V59.4437V61.9078V64.3717V66.8357H20.0446H17.5806H17.5806H15.1166H12.6526H10.1886V64.3717V61.9078V59.4437V56.9797V54.5158H12.6526H15.1166H17.5806H17.5806H20.0446H22.5086V56.9797Z" fill="black"/>
</g>
<path d="M17.5549 56.98H17.5549H15.0909H12.627V59.4439V61.908V64.372H15.0909H17.5549H17.5549H20.0189V61.908V59.4439V56.98H17.5549Z" fill="black"/>
</g>
<defs>
<clipPath id="clip0_2259_17372">
<rect width="77" height="77" fill="white"/>
</clipPath>
<clipPath id="clip1_2259_17372">
<rect width="17.248" height="17.248" fill="white" transform="translate(7.69922 7.7002)"/>
</clipPath>
<clipPath id="clip2_2259_17372">
<rect width="17.248" height="17.248" fill="white" transform="translate(52.0527 7.7002)"/>
</clipPath>
<clipPath id="clip3_2259_17372">
<rect width="17.248" height="17.248" fill="white" transform="translate(7.69922 52.0518)"/>
</clipPath>
</defs>
</svg>
