<svg width="433" height="327" viewBox="0 0 433 327" fill="none" xmlns="http://www.w3.org/2000/svg">
<g clip-path="url(#clip0_1915_14499)">
<path d="M150.708 134.185C151.654 134.321 152.618 134.248 153.533 133.972C154.448 133.696 155.292 133.223 156.004 132.586C156.716 131.95 157.28 131.165 157.656 130.287C158.032 129.409 158.21 128.46 158.179 127.505L179.869 119.179L170.048 112.162L150.957 121.144C149.355 121.303 147.867 122.043 146.775 123.225C145.684 124.406 145.064 125.947 145.033 127.554C145.002 129.162 145.563 130.725 146.609 131.947C147.655 133.169 149.114 133.965 150.708 134.185L150.708 134.185Z" fill="#FFB7B7"/>
<path d="M163.101 128.212L159.715 116.279L159.881 116.165L191.604 94.6398L219.026 67.1549L235 73.53L233.951 78.5804L233.883 78.6424L197.423 111.263L197.39 111.279L163.101 128.212Z" fill="#E6E7E8"/>
<path d="M195.599 155.468L244.693 148.594L240.372 118.502H204.228L195.599 155.468Z" fill="#FFB6B6"/>
<path d="M279.018 302.819L268.947 305.156L255.128 267.467L269.991 264.017L279.018 302.819Z" fill="#FFB6B6"/>
<path d="M288.387 319.015L281.165 320.691L278.291 314.179L276.574 321.757L257.419 326.203C256.501 326.417 255.538 326.331 254.672 325.959C253.806 325.587 253.082 324.949 252.605 324.137C252.128 323.324 251.924 322.381 252.021 321.445C252.119 320.508 252.514 319.627 253.148 318.931L265.99 304.827L264.388 297.941L280.7 295.166L288.387 319.015Z" fill="#2F2E41"/>
<path d="M216.879 308.424H206.54L201.62 268.588H216.879V308.424Z" fill="#FFB6B6"/>
<path d="M222.334 326.319H214.919L213.596 319.326L210.206 326.319H190.541C189.598 326.319 188.68 326.018 187.921 325.46C187.162 324.902 186.601 324.116 186.32 323.217C186.04 322.318 186.054 321.353 186.362 320.463C186.669 319.573 187.253 318.804 188.029 318.27L203.733 307.436V300.366L220.251 301.351L222.334 326.319Z" fill="#2F2E41"/>
<path d="M245.314 143.488L197.301 139.673C183.133 172.732 192.142 225.508 203.03 284.919L218.473 286.913L219.671 191.447L258.383 280.259L274.479 279.437L245.314 143.488Z" fill="#2F2E41"/>
<path d="M217.368 56.432V40.2065C217.367 37.3504 217.929 34.5221 219.022 31.883C220.115 29.2439 221.718 26.8458 223.74 24.8257C225.761 22.8056 228.161 21.2031 230.802 20.1098C233.444 19.0165 236.275 18.4538 239.134 18.4538C241.993 18.4538 244.825 19.0165 247.466 20.1098C250.107 21.2031 252.507 22.8056 254.529 24.8257C256.55 26.8458 258.153 29.2439 259.246 31.883C260.339 34.5221 260.901 37.3504 260.9 40.2065C264.736 48.1918 262.336 51.9882 260.9 56.432C260.899 57.2059 260.59 57.9476 260.042 58.4948C259.495 59.042 258.752 59.35 257.977 59.3513H220.292C219.517 59.3503 218.774 59.0425 218.226 58.4953C217.678 57.9481 217.37 57.2061 217.368 56.432Z" fill="#2F2E41"/>
<path d="M233.761 59.1066C224.947 59.1066 217.803 51.9698 217.803 43.1661C217.803 34.3624 224.947 27.2256 233.761 27.2256C242.574 27.2256 249.719 34.3624 249.719 43.1661C249.719 51.9698 242.574 59.1066 233.761 59.1066Z" fill="#FFB7B7"/>
<path d="M212.219 41.5042C212.224 36.9444 214.039 32.5729 217.267 29.3486C220.495 26.1244 224.871 24.3107 229.436 24.3056H232.685C237.25 24.3107 241.626 26.1244 244.854 29.3486C248.082 32.5729 249.897 36.9444 249.902 41.5042V41.8288C247.469 43.4904 245.159 43.7334 243.037 41.8288L240.695 35.2792L240.227 41.8288H236.678L235.495 38.5245L235.259 41.8288C230.466 45.9064 221.402 43.9524 212.219 41.8288L212.219 41.5042Z" fill="#2F2E41"/>
<path d="M243.066 127.297L202.436 125.753L200.165 99.2012C198.413 94.3414 198.385 90.1654 200.08 86.7986C201.539 84.0311 203.989 81.9154 206.942 80.8746L215.833 70.1484C216.976 68.7698 218.412 67.6622 220.037 66.9056C221.661 66.1491 223.434 65.7624 225.226 65.7737L248.327 65.9315C248.884 65.5971 252.262 63.8824 258.923 66.7655C266.147 69.8933 264.47 80.7599 264.452 80.869L264.435 80.9712L264.356 81.0407L248.991 93.9688L243.066 127.297Z" fill="#E6E7E8"/>
<path d="M432.318 327H24.3581C24.1773 327 24.0039 326.928 23.8761 326.801C23.7482 326.673 23.6764 326.5 23.6764 326.319C23.6764 326.138 23.7482 325.965 23.8761 325.838C24.0039 325.71 24.1773 325.638 24.3581 325.638H432.318C432.499 325.638 432.672 325.71 432.8 325.838C432.928 325.965 433 326.138 433 326.319C433 326.5 432.928 326.673 432.8 326.801C432.672 326.928 432.499 327 432.318 327Z" fill="#CCCCCC"/>
<path d="M135.276 165.835C135.306 181.303 141.128 196.2 151.597 207.597C162.065 218.995 176.423 226.068 191.848 227.427C207.273 228.786 222.649 224.332 234.953 214.941C247.257 205.549 255.599 191.9 258.339 176.677C261.08 161.453 258.02 145.756 249.761 132.672C241.502 119.587 228.643 110.062 213.71 105.969C198.777 101.876 182.852 103.51 169.064 110.551C155.277 117.593 144.625 129.531 139.203 144.019C139.067 144.383 138.936 144.747 138.807 145.114V145.118C138.235 146.732 137.731 148.377 137.295 150.052C135.95 155.205 135.272 160.51 135.276 165.835Z" fill="#3F3D56"/>
<path d="M204.546 123.754C207.352 122.239 210.467 121.383 213.654 121.253C216.842 121.123 220.017 121.721 222.937 123.003C225.509 124.121 228.216 126.126 229.074 129.747C225.605 127.702 221.114 130.934 220.221 136.118L220.429 136.175C220.901 139.766 219.848 143.675 217.81 145.902C217.659 144.897 217.285 143.939 216.716 143.096C216.148 142.254 215.398 141.549 214.523 141.032C213.026 140.049 211.369 139.334 210.226 137.644C208.871 135.641 208.527 132.712 207.989 130.041C207.451 127.37 206.43 124.499 204.546 123.754Z" fill="#007061"/>
<path d="M223.97 154.311C224.931 155.752 226.214 156.656 227.366 157.783C228.696 158.991 229.568 160.619 229.836 162.395C229.982 163.649 229.756 164.924 229.787 166.192C229.819 167.46 230.242 168.888 231.106 169.203C232.469 169.695 233.509 167.166 234.911 166.989C236.024 166.851 237.027 168.6 236.704 170.118C236.382 171.636 234.866 172.308 233.995 171.317C233.208 172.637 233.763 175.032 234.946 175.437C235.07 176.268 235.195 177.097 235.317 177.928C238.307 175.839 241.328 173.715 243.871 170.655C246.699 167.281 248.453 163.14 248.908 158.763C249.237 155.246 248.748 151.223 250.364 148.517C251.658 146.351 253.878 145.873 255.877 146.008C256.241 146.033 256.608 146.074 256.973 146.119C255.794 142.584 254.298 139.163 252.501 135.897C252.095 135.723 251.717 135.488 251.381 135.201C249.522 133.624 248.696 130.433 247.187 128.226C247.09 128.084 246.989 127.945 246.885 127.81C245.342 125.797 243.274 124.761 241.276 123.797C236.853 121.652 232.302 119.48 227.633 119.778L228.962 119.906C230.512 124.244 232.064 128.583 233.617 132.921C233.853 133.586 234.091 134.253 234.332 134.92C235.213 137.387 236.122 140.014 235.986 142.775C235.906 144.411 235.338 146.157 234.255 146.719C233.246 147.238 232.143 146.601 231.168 145.97C230.755 145.707 230.346 145.443 229.933 145.177C228.452 144.224 226.811 143.247 225.247 143.884C223.814 144.466 222.756 146.41 222.555 148.507C222.37 150.544 222.868 152.586 223.97 154.311Z" fill="#007061"/>
<path d="M215.158 183.929C219.484 181.268 223.81 178.607 228.136 175.947L228.063 175.758C230.752 176.781 231.869 181.557 231.425 185.463C230.98 189.368 229.473 192.86 228.711 196.665C227.685 201.873 228.072 207.26 229.834 212.268C224.145 205.892 219.111 198.963 214.807 191.584C214.205 190.654 213.747 189.639 213.447 188.573C213.13 187.437 213.243 186.224 213.765 185.167C214.119 184.645 214.598 184.219 215.158 183.929Z" fill="#007061"/>
<path d="M232.232 135.524C232.74 136.613 232.819 137.854 232.452 138.999C232.025 139.921 231.251 140.637 230.297 140.992L227.907 142.175C227.112 142.569 226.255 142.967 225.444 142.643C224.466 142.252 223.788 140.721 223.964 139.299C224.15 137.787 225.105 136.746 225.988 135.86C227.223 134.62 228.459 133.38 229.694 132.14L230.39 132.992C231.143 133.726 231.766 134.582 232.232 135.524Z" fill="#007061"/>
<path d="M148.089 151.695C147.013 151.947 145.938 152.2 144.863 152.453C145.05 156.081 146.85 159.439 149.265 160.655C150.271 161.161 151.391 161.348 152.224 162.294C152.976 163.153 153.358 164.491 153.708 165.769C154.322 168.001 154.936 170.232 155.55 172.464C156.209 174.869 157.056 177.54 158.769 178.406C160.24 179.151 161.922 178.24 163.053 176.712C164.184 175.184 164.874 173.129 165.544 171.126C165.502 173.309 166.519 175.451 167.958 176.21C169.401 176.968 171.156 176.282 172.121 174.588C172.815 173.372 173.102 171.767 173.782 170.534C174.462 169.3 175.888 168.594 176.63 169.751C177.119 170.52 177.057 171.698 177.3 172.675C177.422 173.324 177.744 173.919 178.22 174.376C178.696 174.834 179.303 175.132 179.957 175.229C180.558 175.215 181.15 175.079 181.697 174.83C182.244 174.58 182.734 174.222 183.138 173.777C185.262 171.607 186.645 168.821 187.089 165.818C187.39 164.378 187.352 162.888 186.978 161.466C186.551 160.118 185.521 159.079 184.498 159.335C183.825 157.914 185.153 156.029 186.35 156.196C187.55 156.362 188.49 157.647 189.475 158.635C190.457 159.623 191.831 160.34 192.819 159.359C192.797 159.718 192.919 160.071 193.157 160.34C193.395 160.609 193.731 160.773 194.09 160.795C194.125 160.797 194.161 160.798 194.196 160.797C194.854 160.609 195.465 160.285 195.99 159.848C198.255 158.437 201.131 159.373 202.74 162.041C201.734 157.765 200.26 152.859 197.169 151.854C195.907 151.442 194.529 151.781 193.336 151.067C191.224 149.803 190.797 145.024 192.622 143.053C192.389 144.917 192.434 147.093 193.419 148.368C194.405 149.643 196.472 148.812 196.347 146.927C196.375 147.192 196.486 147.441 196.665 147.639C196.844 147.837 197.081 147.974 197.342 148.029C197.603 148.085 197.875 148.056 198.118 147.948C198.362 147.839 198.565 147.656 198.699 147.426C199.355 146.428 199.299 144.796 198.834 143.604C198.355 142.524 197.668 141.549 196.812 140.735C195.164 138.971 193.492 137.186 191.584 136.078C189.673 134.969 187.467 134.595 185.552 135.696C184.543 136.279 183.655 137.249 182.624 137.762C182.382 137.912 182.113 138.013 181.832 138.059C181.551 138.105 181.263 138.095 180.986 138.03C180.708 137.965 180.446 137.846 180.215 137.68C179.984 137.514 179.787 137.305 179.637 137.063C179.625 137.044 179.614 137.025 179.603 137.006C178.836 135.662 179.197 133.666 178.913 131.985C178.403 129.016 175.43 127.626 173.782 129.588C175.014 129.272 176.287 130.728 176.439 132.491C176.596 134.255 175.704 136.036 174.511 136.57C172.506 137.457 170.542 135.225 169.026 133.16C167.445 130.998 165.861 128.837 164.274 126.677C164.021 126.309 163.737 125.964 163.424 125.644C162.928 125.161 162.265 124.884 161.571 124.869C160.878 124.855 160.205 125.105 159.688 125.568C158.086 126.874 157.333 129.553 156.018 131.396C154.111 134.075 151.256 134.726 148.599 135.246C146.618 135.631 144.636 136.018 142.653 136.407C141.331 138.863 140.178 141.407 139.201 144.019C142.838 145.676 145.922 148.34 148.089 151.695Z" fill="#007061"/>
<path d="M137.294 150.052C137.701 151.249 137.923 152.5 137.953 153.763C139.653 151.691 139.924 147.807 138.807 145.118C138.234 146.732 137.73 148.377 137.294 150.052Z" fill="#007061"/>
<path d="M141.686 193.386C143.172 196.4 144.9 199.289 146.854 202.024C148.103 201.491 149.445 202.443 150.614 203.337C151.836 204.273 153.303 205.184 154.555 204.332C155.835 203.459 156.248 201.016 155.842 199.079C155.376 197.292 154.56 195.615 153.442 194.145C152.401 192.592 151.287 190.981 149.841 190.378C148.391 189.775 146.528 190.628 146.105 192.686L145.078 192.651C145.654 191.861 145.352 190.226 144.579 189.938C143.687 189.602 142.914 190.825 142.386 191.906C142.15 192.395 141.911 192.887 141.686 193.386Z" fill="#007061"/>
<path d="M181.012 178.75C183.219 178.888 184.967 176.174 186.129 173.505C187.29 170.835 188.35 167.781 190.342 166.422C191.479 165.646 192.777 165.539 194.011 165.163C194.711 164.986 195.359 164.646 195.901 164.169C196.442 163.693 196.863 163.094 197.127 162.423L198.527 161.858C200.485 162.835 202.279 164.113 203.842 165.643C205.629 167.539 206.742 169.97 207.01 172.56C207.277 175.359 206.289 178.481 204.444 179.532C202.986 180.363 201.289 179.839 199.812 180.6C197.966 181.55 196.871 184.311 196.456 187.037C196.042 189.762 196.147 192.595 195.85 195.352C195.553 198.108 194.736 200.977 193.043 202.39C190.926 204.157 187.818 202.688 186.868 199.47C186.402 197.892 186.418 196.111 186.07 194.472C185.456 191.587 183.8 189.446 182.486 187.079C181.172 184.712 180.138 181.497 181.012 178.75Z" fill="#007061"/>
<path d="M202.819 150.395C202.614 150.584 202.422 150.788 202.245 151.004C202.062 151.319 201.968 151.679 201.974 152.043C201.981 152.407 202.086 152.763 202.28 153.072C202.014 153.057 201.754 152.987 201.517 152.866C201.28 152.746 201.07 152.577 200.901 152.372C200.498 151.913 200.144 151.415 199.844 150.884C199.702 150.702 199.602 150.492 199.548 150.268C199.494 150.045 199.489 149.812 199.532 149.586C199.636 149.289 199.883 149.162 200.055 148.938C200.295 148.501 200.459 148.027 200.539 147.535C200.635 147.074 200.858 146.649 201.182 146.308C201.506 145.966 201.92 145.722 202.375 145.602L202.265 145.623C202.453 145.735 202.602 145.903 202.69 146.103C202.778 146.303 202.801 146.526 202.756 146.74C202.689 147.172 202.411 147.531 202.439 147.972C202.478 148.606 203.113 148.904 203.152 149.538C203.158 149.856 203.039 150.164 202.819 150.395Z" fill="#007061"/>
<path d="M206.6 139.618L206.59 139.616C206.522 139.555 206.459 139.488 206.402 139.416L206.6 139.618Z" fill="#007061"/>
<path d="M205.941 142.595C205.675 142.363 205.479 142.062 205.374 141.726C205.268 141.39 205.257 141.031 205.341 140.689C205.502 139.968 206.069 139.483 206.593 139.617C206.744 139.77 206.933 139.883 207.14 139.944C207.348 140.005 207.567 140.012 207.778 139.965C208.102 139.882 208.457 139.668 208.738 139.911C208.898 140.093 209.011 140.312 209.065 140.549C209.168 140.867 209.272 141.186 209.376 141.504C209.426 141.618 209.438 141.745 209.413 141.866C209.393 141.915 209.361 141.958 209.32 141.991C209.279 142.024 209.23 142.045 209.178 142.054C208.554 142.237 207.931 142.421 207.308 142.604C207.093 142.703 206.859 142.753 206.623 142.752C206.387 142.75 206.154 142.697 205.941 142.595Z" fill="#007061"/>
<path d="M158.886 183.69C159.174 183.219 159.462 182.748 159.751 182.277C160.034 181.731 160.42 181.246 160.889 180.848C160.991 180.763 161.108 180.699 161.235 180.659C161.361 180.619 161.494 180.605 161.626 180.617C161.758 180.628 161.887 180.666 162.004 180.727C162.122 180.788 162.226 180.872 162.311 180.974L162.326 180.992L162.291 181.261C161.52 182.087 160.994 183.112 160.773 184.22C160.707 184.701 160.73 185.2 160.673 185.683C160.667 185.907 160.616 186.128 160.525 186.333C160.433 186.538 160.302 186.723 160.139 186.877C159.685 187.18 159.152 186.733 158.83 186.189C158.541 185.741 158.412 185.21 158.462 184.68C158.534 184.325 158.678 183.988 158.886 183.69Z" fill="#007061"/>
<path d="M154.369 184.303C154.314 183.862 154.35 183.414 154.474 182.988C154.495 182.41 154.341 181.84 154.034 181.351C153.729 180.889 153.498 180.382 153.349 179.849C153.286 179.607 153.297 179.351 153.381 179.114C153.477 178.9 153.708 178.803 153.84 178.972L153.557 179.155C153.94 179.086 154.333 179.105 154.707 179.21C154.921 179.292 155.112 179.424 155.264 179.595C155.415 179.766 155.524 179.971 155.579 180.192C155.626 180.538 155.703 180.879 155.808 181.211C155.977 181.558 156.305 181.674 156.51 181.979C156.651 182.249 156.722 182.55 156.717 182.854C156.711 183.158 156.631 183.457 156.482 183.722C156.223 184.156 155.812 184.479 155.329 184.627C154.983 184.751 154.527 184.758 154.369 184.303Z" fill="#007061"/>
<path d="M146.32 186.729C146.195 187.054 146.027 187.362 145.821 187.643C145.436 188.031 144.912 187.793 144.445 187.698C144.021 187.632 143.586 187.681 143.188 187.84C142.789 188 142.441 188.264 142.181 188.606C142.362 187.702 142.758 186.856 143.335 186.137C143.911 185.419 144.652 184.849 145.495 184.475C146.591 184.096 147.745 183.916 148.904 183.943L149.102 183.993C148.597 185.46 147.013 185.427 146.32 186.729Z" fill="#007061"/>
<path d="M180.41 189.729L180.407 189.735L180.35 189.624L180.41 189.729Z" fill="#007061"/>
<path d="M181.627 192.09C181.893 192.572 182.122 193.075 182.312 193.593C182.563 194.431 182.73 195.293 182.809 196.165C182.871 196.66 182.89 197.293 182.579 197.535C182.49 197.594 182.382 197.619 182.276 197.604C182.169 197.59 182.072 197.537 182.002 197.457C181.829 197.274 181.688 197.064 181.584 196.836C180.973 195.784 180.498 194.66 180.172 193.489C179.831 192.246 179.913 190.926 180.403 189.735C180.811 190.52 181.219 191.305 181.627 192.09Z" fill="#007061"/>
<path d="M193.409 129.193C193.215 129.383 192.969 129.511 192.703 129.563C192.437 129.615 192.161 129.588 191.91 129.486C191.391 129.259 190.914 128.944 190.501 128.555C190.159 128.303 189.869 127.987 189.646 127.624C189.524 127.408 189.445 127.169 189.415 126.922C189.385 126.676 189.404 126.425 189.472 126.186C189.567 125.956 189.72 125.755 189.915 125.601C190.11 125.447 190.341 125.345 190.587 125.305C191.278 125.1 191.97 124.895 192.662 124.69L192.161 124.239C192.676 123.963 193.246 124.476 193.568 125.11C193.774 125.524 193.918 125.966 193.995 126.423C194.104 126.899 194.108 127.394 194.007 127.873C193.906 128.351 193.702 128.802 193.409 129.193Z" fill="#007061"/>
<path d="M181.195 125.098C181 125.313 180.731 125.445 180.441 125.469C180.152 125.492 179.865 125.405 179.638 125.224C179.442 125.078 179.28 124.892 179.161 124.678C179.042 124.464 178.97 124.228 178.949 123.985C178.9 123.441 179.169 122.837 179.553 122.79L179.465 122.281C180.205 122.148 181.116 122.121 181.513 123.019C181.647 123.363 181.688 123.736 181.632 124.101C181.576 124.466 181.426 124.809 181.195 125.098Z" fill="#007061"/>
<path d="M254.109 179.564C254.82 178.926 255.382 178.14 255.756 177.262C256.131 176.383 256.307 175.434 256.275 174.479C256.242 173.525 256 172.59 255.566 171.739C255.133 170.888 254.518 170.143 253.764 169.555L261.268 147.588L249.578 150.621L244.25 171.016C243.345 172.345 242.96 173.961 243.168 175.556C243.376 177.15 244.162 178.613 245.378 179.667C246.594 180.722 248.155 181.293 249.764 181.274C251.374 181.256 252.921 180.647 254.112 179.565L254.109 179.564Z" fill="#FFB7B7"/>
<path d="M257.462 166.233L246.12 161.184L249.931 122.863L246.382 84.222L261.525 76.0585L264.734 80.0995V80.1913L266.434 129.054L266.425 129.091L257.462 166.233Z" fill="#E6E7E8"/>
<path d="M83.7133 280.426C90.1262 277.48 97.0436 274.01 104.465 270.014C142.852 249.342 190.055 217.095 237.38 179.213C284.705 141.331 326.498 102.339 355.059 69.4205C368.972 53.3848 378.994 39.6519 384.846 28.603C391.042 16.9056 392.291 8.61622 388.56 3.96568C381.292 -5.09419 357.622 3.06616 339.045 11.5073L339.724 12.9986C365.235 1.40654 382.124 -1.43738 387.281 4.99027C393.848 13.1767 381.652 36.2693 353.82 68.3475C325.321 101.193 283.605 140.112 236.354 177.935C189.104 215.757 141.989 247.946 103.687 268.572C66.2822 288.715 41.0611 295.574 34.4936 287.387C29.0408 280.59 36.4787 263.47 55.4365 239.182L54.1432 238.175C40.3682 255.823 25.5552 278.865 33.2137 288.412C36.9445 293.062 45.3156 293.65 58.0946 290.159C65.379 288.168 73.9518 284.91 83.7133 280.426Z" fill="#007061"/>
<path d="M329.285 169.969C346.966 161.848 363.124 153.691 377.276 145.709C395.774 135.275 409.832 125.703 419.06 117.261C428.83 108.323 432.795 100.935 430.846 95.3024C427.048 84.3303 402.009 84.072 381.672 85.7874L381.811 87.4202C409.737 85.0642 426.601 88.0535 429.296 95.8382C432.728 105.753 413.474 123.41 376.47 144.282C338.58 165.654 286.198 188.31 228.973 208.074C171.748 227.84 116.544 242.345 73.5314 248.917C31.5244 255.336 5.4635 253.33 2.03149 243.416C-0.817993 235.184 11.9458 221.556 37.9712 205.042L37.0919 203.659C18.1815 215.659 -3.52072 232.389 0.481659 243.951C2.43121 249.584 10.1183 252.947 23.3285 253.948C35.8063 254.893 52.7804 253.745 73.7792 250.537C116.888 243.95 172.193 229.42 229.509 209.623C265.464 197.204 299.524 183.64 329.285 169.969Z" fill="#007061"/>
<path d="M302.462 86.5968C297.184 86.5968 292.905 82.3226 292.905 77.05C292.905 71.7775 297.184 67.5032 302.462 67.5032C307.741 67.5032 312.02 71.7775 312.02 77.05C312.02 82.3226 307.741 86.5968 302.462 86.5968Z" fill="#E6E6E6"/>
<path d="M114.077 203.12C110.846 203.12 108.227 200.504 108.227 197.276C108.227 194.049 110.846 191.432 114.077 191.432C117.308 191.432 119.928 194.049 119.928 197.276C119.928 200.504 117.308 203.12 114.077 203.12Z" fill="#3BFF00"/>
<path d="M400.212 254.42C394.934 254.42 390.655 250.146 390.655 244.873C390.655 239.6 394.934 235.326 400.212 235.326C405.491 235.326 409.77 239.6 409.77 244.873C409.77 250.146 405.491 254.42 400.212 254.42Z" fill="#E6E6E6"/>
</g>
<defs>
<clipPath id="clip0_1915_14499">
<rect width="433" height="327" fill="white" transform="matrix(-1 0 0 1 433 0)"/>
</clipPath>
</defs>
</svg>
