<svg width="52" height="52" viewBox="0 0 52 52" fill="none" xmlns="http://www.w3.org/2000/svg">
<path d="M21.6125 26.2664C21.0418 26.2664 20.4945 26.0404 20.0909 25.6381C19.6873 25.2358 19.4606 24.6903 19.4606 24.1214C19.4606 21.8605 17.9973 19.8314 17.3086 19.8314C16.62 19.8314 15.1567 21.8605 15.1567 24.1214C15.1567 24.6903 14.9299 25.2358 14.5264 25.6381C14.1228 26.0404 13.5754 26.2664 13.0047 26.2664C12.434 26.2664 11.8866 26.0404 11.483 25.6381C11.0795 25.2358 10.8527 24.6903 10.8527 24.1214C10.8527 20.063 13.504 15.5414 17.3086 15.5414C21.1133 15.5414 23.7645 20.063 23.7645 24.1214C23.7645 24.6903 23.5378 25.2358 23.1342 25.6381C22.7306 26.0404 22.1833 26.2664 21.6125 26.2664ZM40.9802 24.1214C40.9802 20.063 38.329 15.5414 34.5243 15.5414C30.7196 15.5414 28.0684 20.063 28.0684 24.1214C28.0684 24.6903 28.2952 25.2358 28.6987 25.6381C29.1023 26.0404 29.6497 26.2664 30.2204 26.2664C30.7911 26.2664 31.3385 26.0404 31.7421 25.6381C32.1456 25.2358 32.3723 24.6903 32.3723 24.1214C32.3723 21.8605 33.8357 19.8314 34.5243 19.8314C35.2129 19.8314 36.6763 21.8605 36.6763 24.1214C36.6763 24.6903 36.903 25.2358 37.3066 25.6381C37.7101 26.0404 38.2575 26.2664 38.8282 26.2664C39.399 26.2664 39.9463 26.0404 40.3499 25.6381C40.7535 25.2358 40.9802 24.6903 40.9802 24.1214ZM51.74 26.2664C51.7326 19.442 49.0095 12.8992 44.1683 8.07359C39.327 3.248 32.763 0.533748 25.9165 0.526367C-8.2997 1.81337 -8.28463 50.7194 25.9165 52.0064C32.763 51.999 39.327 49.2847 44.1683 44.4591C49.0095 39.6336 51.7326 33.0908 51.74 26.2664ZM47.4361 26.2664C47.4298 31.9533 45.1606 37.4056 41.1262 41.4269C37.0919 45.4482 31.6219 47.7101 25.9165 47.7164C-2.59485 46.6439 -2.58409 5.88887 25.9165 4.81637C31.6219 4.82261 37.0919 7.08452 41.1262 11.1058C45.1606 15.1271 47.4298 20.5794 47.4361 26.2664ZM38.1095 34.3015C38.5208 33.9193 38.7656 33.3919 38.7917 32.832C38.8177 32.2721 38.6229 31.7243 38.2489 31.3058C37.8749 30.8873 37.3514 30.6313 36.7904 30.5927C36.2294 30.5541 35.6756 30.7358 35.2474 31.0991C32.7141 33.4512 29.3807 34.759 25.9186 34.759C22.4566 34.759 19.1231 33.4512 16.5899 31.0991C16.1641 30.7202 15.6048 30.5254 15.0349 30.5576C14.4651 30.5898 13.9314 30.8463 13.5513 31.2707C13.1712 31.695 12.9758 32.2526 13.0081 32.8206C13.0404 33.3886 13.2977 33.9205 13.7235 34.2994C17.1402 37.2099 21.4277 38.9108 25.9165 39.1364C30.405 38.9114 34.6925 37.2113 38.1095 34.3015Z" fill="#3E8C7C"/>
</svg>
